<svg width="96" height="24" viewBox="0 0 96 24" fill="none" xmlns="http://www.w3.org/2000/svg">
<g clip-path="url(#clip0_1_35)">
<path d="M12 0C5.37285 0 0 5.37285 0 12C0 18.6272 5.37285 24 12 24C18.6272 24 24 18.6272 24 12C24 5.37285 18.6272 0 12 0ZM19.2183 15.6089C19.2183 17.6172 17.5849 19.2507 15.5766 19.2507H8.42345C6.41538 19.2507 4.78166 17.6172 4.78166 15.6089V8.4558C4.78166 6.44774 6.41538 4.81401 8.42345 4.81401H15.5766C17.5849 4.81401 19.2183 6.44774 19.2183 8.4558V15.6089Z" fill="#F2F2F2"/>
<path fill-rule="evenodd" clip-rule="evenodd" d="M8.42317 6.38477H15.5763C16.7183 6.38477 17.6472 7.31366 17.6472 8.4554V15.6085C17.6472 16.7505 16.718 17.6794 15.5763 17.6794H8.42317C7.28144 17.6794 6.35254 16.7502 6.35254 15.6085V8.4554C6.35254 7.31366 7.28144 6.38477 8.42317 6.38477ZM8.28173 12.032C8.28173 14.0823 9.94968 15.7502 11.9997 15.7502C14.0498 15.7502 15.718 14.082 15.718 12.032C15.718 9.98191 14.05 8.31395 11.9997 8.31395C9.94968 8.31395 8.28173 9.98191 8.28173 12.032ZM14.9575 8.20299C14.9575 8.68803 15.3522 9.08269 15.8375 9.08269C16.3225 9.08269 16.7172 8.68803 16.7172 8.20299C16.7172 7.71795 16.3225 7.32329 15.8375 7.32329C15.3522 7.32329 14.9575 7.71795 14.9575 8.20299ZM9.85254 12.0313C9.85254 10.8479 10.8162 9.88477 11.9996 9.88477C13.1834 9.88477 14.1465 10.8482 14.1465 12.0313C14.1465 13.2153 13.1836 14.1787 11.9996 14.1787C10.8162 14.1787 9.85254 13.2153 9.85254 12.0313Z" fill="#F2F2F2"/>
</g>
<g clip-path="url(#clip1_1_35)">
<path d="M50.6667 12L46.6667 14.3333V9.66667L50.6667 12Z" fill="#F2F2F2"/>
<path fill-rule="evenodd" clip-rule="evenodd" d="M48 24C54.6274 24 60 18.6274 60 12C60 5.37258 54.6274 0 48 0C41.3726 0 36 5.37258 36 12C36 18.6274 41.3726 24 48 24ZM54.6667 12C54.6667 12 54.6667 9.52 54.362 8.332C54.1947 7.67733 53.7 7.16133 53.07 6.984C51.9307 6.66667 48 6.66667 48 6.66667C48 6.66667 44.0713 6.66667 42.93 6.984C42.3027 7.15867 41.8073 7.67533 41.638 8.332C41.3333 9.52 41.3333 12 41.3333 12C41.3333 12 41.3333 14.48 41.638 15.668C41.8053 16.3227 42.3 16.8387 42.93 17.016C44.0713 17.3333 48 17.3333 48 17.3333C48 17.3333 51.9307 17.3333 53.07 17.016C53.6973 16.8413 54.1927 16.3247 54.362 15.668C54.6667 14.48 54.6667 12 54.6667 12Z" fill="#F2F2F2"/>
</g>
<g clip-path="url(#clip2_1_35)">
<path fill-rule="evenodd" clip-rule="evenodd" d="M96 12C96 18.6274 90.6274 24 84 24C77.3726 24 72 18.6274 72 12C72 5.37258 77.3726 0 84 0C90.6274 0 96 5.37258 96 12ZM84.8755 12.4699H87.0168L87.3002 9.71553H84.8757V8.09301C84.8757 7.48443 85.2779 7.34154 85.5639 7.34154H87.3075V4.66551L84.9044 4.65546C82.2374 4.65546 81.6314 6.65318 81.6314 7.92894V9.71296H80.0884V12.4699H81.6314V20.3144H84.8755V12.4699Z" fill="#F2F2F2"/>
</g>
<defs>
<clipPath id="clip0_1_35">
<rect width="24" height="24" fill="white"/>
</clipPath>
<clipPath id="clip1_1_35">
<rect width="24" height="24" fill="white" transform="translate(36)"/>
</clipPath>
<clipPath id="clip2_1_35">
<rect width="24" height="24" fill="white" transform="translate(72)"/>
</clipPath>
</defs>
</svg>
