<svg width="127" height="13" viewBox="0 0 127 13" fill="none" xmlns="http://www.w3.org/2000/svg">
<path d="M4.207 11.21C3.521 11.21 2.926 11.11 2.422 10.909C1.9227 10.708 1.512 10.445 1.19 10.118C0.867999 9.78695 0.627702 9.42995 0.469002 9.04695L1.407 8.50096C1.519 8.81796 1.6963 9.10796 1.939 9.36896C2.1817 9.62996 2.4943 9.83796 2.877 9.99196C3.2597 10.146 3.7147 10.223 4.242 10.223C4.788 10.223 5.25 10.137 5.628 9.96396C6.0107 9.79096 6.3 9.54895 6.496 9.23595C6.692 8.92295 6.79 8.55895 6.79 8.14395C6.79 7.68695 6.6803 7.33196 6.461 7.07996C6.2417 6.82796 5.9477 6.65096 5.579 6.54796C5.2103 6.44096 4.7997 6.37995 4.347 6.36595C4.0063 6.35195 3.7637 6.34295 3.619 6.33795C3.4743 6.33295 3.3787 6.33095 3.332 6.33095C3.2853 6.33095 3.241 6.33095 3.199 6.33095V5.33696C3.2317 5.33696 3.318 5.33696 3.458 5.33696C3.598 5.33696 3.7473 5.33696 3.906 5.33696C4.0647 5.33196 4.1907 5.32795 4.284 5.32295C4.9513 5.28995 5.4763 5.11496 5.859 4.79796C6.2417 4.48096 6.433 4.05095 6.433 3.50995C6.433 2.93595 6.23 2.48996 5.824 2.17296C5.4227 1.85596 4.9023 1.69696 4.263 1.69696C3.661 1.69696 3.1523 1.84195 2.737 2.13095C2.3263 2.41595 1.9903 2.79796 1.729 3.27896L0.889 2.65596C1.2063 2.08696 1.6543 1.61995 2.233 1.25595C2.8117 0.891951 3.4977 0.709961 4.291 0.709961C4.7157 0.709961 5.1217 0.767949 5.509 0.884949C5.901 1.00195 6.2463 1.17395 6.545 1.40295C6.8483 1.63195 7.0863 1.92095 7.259 2.27095C7.4363 2.61595 7.525 3.02195 7.525 3.48895C7.525 4.03495 7.4037 4.51096 7.161 4.91696C6.923 5.32296 6.615 5.62895 6.237 5.83395C6.7503 5.98795 7.1517 6.25895 7.441 6.64595C7.735 7.03295 7.882 7.53995 7.882 8.16495C7.882 8.78095 7.7303 9.31795 7.427 9.77495C7.1237 10.2319 6.6943 10.587 6.139 10.839C5.5883 11.086 4.9443 11.21 4.207 11.21ZM11.4965 11.21C10.9272 11.21 10.4488 11.1069 10.0615 10.9019C9.6788 10.6969 9.3918 10.4239 9.2005 10.0829C9.0092 9.74195 8.9135 9.37096 8.9135 8.96996C8.9135 8.55896 8.9952 8.20895 9.1585 7.91995C9.3265 7.62595 9.5528 7.38596 9.8375 7.19896C10.1268 7.01196 10.4605 6.86996 10.8385 6.77196C11.2212 6.67896 11.6435 6.59695 12.1055 6.52695C12.5722 6.45195 13.0272 6.38895 13.4705 6.33795C13.9185 6.28195 14.3105 6.22796 14.6465 6.17696L14.2825 6.40096C14.2965 5.65396 14.1518 5.10096 13.8485 4.74196C13.5452 4.38296 13.0178 4.20296 12.2665 4.20296C11.7485 4.20296 11.3098 4.31995 10.9505 4.55295C10.5958 4.78595 10.3462 5.15495 10.2015 5.65895L9.2005 5.36496C9.3732 4.68796 9.7208 4.16295 10.2435 3.78995C10.7662 3.41695 11.4452 3.22995 12.2805 3.22995C12.9712 3.22995 13.5568 3.36095 14.0375 3.62195C14.5228 3.87895 14.8658 4.25196 15.0665 4.74196C15.1598 4.96096 15.2205 5.20596 15.2485 5.47696C15.2765 5.74796 15.2905 6.02295 15.2905 6.30295V11H14.3735V9.10295L14.6395 9.21495C14.3828 9.86395 13.9838 10.358 13.4425 10.699C12.9012 11.04 12.2525 11.21 11.4965 11.21ZM11.6155 10.321C12.0962 10.321 12.5162 10.235 12.8755 10.062C13.2348 9.88895 13.5242 9.65395 13.7435 9.35495C13.9628 9.05195 14.1052 8.71095 14.1705 8.33295C14.2265 8.08995 14.2568 7.82396 14.2615 7.53496C14.2662 7.24096 14.2685 7.02195 14.2685 6.87695L14.6605 7.07996C14.3105 7.12696 13.9302 7.17296 13.5195 7.21996C13.1135 7.26696 12.7122 7.31995 12.3155 7.38095C11.9235 7.44195 11.5688 7.51396 11.2515 7.59796C11.0368 7.65896 10.8292 7.74495 10.6285 7.85695C10.4278 7.96395 10.2622 8.10895 10.1315 8.29095C10.0055 8.47295 9.9425 8.69896 9.9425 8.96996C9.9425 9.18896 9.9962 9.40195 10.1035 9.60695C10.2155 9.81195 10.3928 9.98295 10.6355 10.118C10.8828 10.253 11.2095 10.321 11.6155 10.321ZM16.5528 12.6799V10.118C16.9821 10.118 17.2901 9.97996 17.4768 9.70496C17.6635 9.42496 17.8151 8.97895 17.9318 8.36795C18.0111 7.97095 18.0765 7.54396 18.1278 7.08696C18.1791 6.62996 18.2235 6.10695 18.2608 5.51895C18.2981 4.92595 18.3331 4.23296 18.3658 3.43996H23.3638V10.118H24.0918V12.6799H23.0978V11H17.5398V12.6799H16.5528ZM18.2958 10.118H22.3418V4.32196H19.3178C19.3038 4.67696 19.2828 5.05196 19.2548 5.44896C19.2315 5.84596 19.2011 6.24196 19.1638 6.63896C19.1311 7.03596 19.0915 7.40896 19.0448 7.75896C19.0028 8.10396 18.9515 8.40796 18.8908 8.66896C18.8208 9.00496 18.7438 9.29195 18.6598 9.52995C18.5805 9.76795 18.4591 9.96395 18.2958 10.118ZM27.6567 11.21C27.0873 11.21 26.609 11.1069 26.2217 10.9019C25.839 10.6969 25.552 10.4239 25.3607 10.0829C25.1693 9.74195 25.0737 9.37096 25.0737 8.96996C25.0737 8.55896 25.1553 8.20895 25.3187 7.91995C25.4867 7.62595 25.713 7.38596 25.9977 7.19896C26.287 7.01196 26.6207 6.86996 26.9987 6.77196C27.3813 6.67896 27.8037 6.59695 28.2657 6.52695C28.7323 6.45195 29.1873 6.38895 29.6307 6.33795C30.0787 6.28195 30.4707 6.22796 30.8067 6.17696L30.4427 6.40096C30.4567 5.65396 30.312 5.10096 30.0087 4.74196C29.7053 4.38296 29.178 4.20296 28.4267 4.20296C27.9087 4.20296 27.47 4.31995 27.1107 4.55295C26.756 4.78595 26.5063 5.15495 26.3617 5.65895L25.3607 5.36496C25.5333 4.68796 25.881 4.16295 26.4037 3.78995C26.9263 3.41695 27.6053 3.22995 28.4407 3.22995C29.1313 3.22995 29.717 3.36095 30.1977 3.62195C30.683 3.87895 31.026 4.25196 31.2267 4.74196C31.32 4.96096 31.3807 5.20596 31.4087 5.47696C31.4367 5.74796 31.4507 6.02295 31.4507 6.30295V11H30.5337V9.10295L30.7997 9.21495C30.543 9.86395 30.144 10.358 29.6027 10.699C29.0613 11.04 28.4127 11.21 27.6567 11.21ZM27.7757 10.321C28.2563 10.321 28.6763 10.235 29.0357 10.062C29.395 9.88895 29.6843 9.65395 29.9037 9.35495C30.123 9.05195 30.2653 8.71095 30.3307 8.33295C30.3867 8.08995 30.417 7.82396 30.4217 7.53496C30.4263 7.24096 30.4287 7.02195 30.4287 6.87695L30.8207 7.07996C30.4707 7.12696 30.0903 7.17296 29.6797 7.21996C29.2737 7.26696 28.8723 7.31995 28.4757 7.38095C28.0837 7.44195 27.729 7.51396 27.4117 7.59796C27.197 7.65896 26.9893 7.74495 26.7887 7.85695C26.588 7.96395 26.4223 8.10895 26.2917 8.29095C26.1657 8.47295 26.1027 8.69896 26.1027 8.96996C26.1027 9.18896 26.1563 9.40195 26.2637 9.60695C26.3757 9.81195 26.553 9.98295 26.7957 10.118C27.043 10.253 27.3697 10.321 27.7757 10.321ZM37.9 11V8.18596C37.648 8.31196 37.3376 8.42195 36.969 8.51495C36.6003 8.60795 36.2036 8.65495 35.779 8.65495C35.0136 8.65495 34.393 8.48495 33.917 8.14395C33.441 7.80295 33.1306 7.31096 32.986 6.66696C32.9393 6.47596 32.9066 6.27295 32.888 6.05795C32.874 5.84295 32.8646 5.64996 32.86 5.47696C32.8553 5.30396 32.853 5.18096 32.853 5.10596V3.43996H33.889V5.10596C33.889 5.25996 33.8936 5.43495 33.903 5.63095C33.9123 5.82695 33.9333 6.01796 33.966 6.20496C34.0593 6.71396 34.2693 7.09895 34.596 7.35995C34.9273 7.62095 35.3916 7.75195 35.989 7.75195C36.3623 7.75195 36.7146 7.70495 37.046 7.61195C37.382 7.51395 37.6666 7.38296 37.9 7.21996V3.43996H38.929V11H37.9ZM43.0512 11.21C42.4819 11.21 42.0035 11.1069 41.6162 10.9019C41.2335 10.6969 40.9465 10.4239 40.7552 10.0829C40.5639 9.74195 40.4682 9.37096 40.4682 8.96996C40.4682 8.55896 40.5499 8.20895 40.7132 7.91995C40.8812 7.62595 41.1075 7.38596 41.3922 7.19896C41.6815 7.01196 42.0152 6.86996 42.3932 6.77196C42.7759 6.67896 43.1982 6.59695 43.6602 6.52695C44.1269 6.45195 44.5819 6.38895 45.0252 6.33795C45.4732 6.28195 45.8652 6.22796 46.2012 6.17696L45.8372 6.40096C45.8512 5.65396 45.7065 5.10096 45.4032 4.74196C45.0999 4.38296 44.5725 4.20296 43.8212 4.20296C43.3032 4.20296 42.8645 4.31995 42.5052 4.55295C42.1505 4.78595 41.9009 5.15495 41.7562 5.65895L40.7552 5.36496C40.9279 4.68796 41.2755 4.16295 41.7982 3.78995C42.3209 3.41695 42.9999 3.22995 43.8352 3.22995C44.5259 3.22995 45.1115 3.36095 45.5922 3.62195C46.0775 3.87895 46.4205 4.25196 46.6212 4.74196C46.7145 4.96096 46.7752 5.20596 46.8032 5.47696C46.8312 5.74796 46.8452 6.02295 46.8452 6.30295V11H45.9282V9.10295L46.1942 9.21495C45.9375 9.86395 45.5385 10.358 44.9972 10.699C44.4559 11.04 43.8072 11.21 43.0512 11.21ZM43.1702 10.321C43.6509 10.321 44.0709 10.235 44.4302 10.062C44.7895 9.88895 45.0789 9.65395 45.2982 9.35495C45.5175 9.05195 45.6599 8.71095 45.7252 8.33295C45.7812 8.08995 45.8115 7.82396 45.8162 7.53496C45.8209 7.24096 45.8232 7.02195 45.8232 6.87695L46.2152 7.07996C45.8652 7.12696 45.4849 7.17296 45.0742 7.21996C44.6682 7.26696 44.2669 7.31995 43.8702 7.38095C43.4782 7.44195 43.1235 7.51396 42.8062 7.59796C42.5915 7.65896 42.3839 7.74495 42.1832 7.85695C41.9825 7.96395 41.8169 8.10895 41.6862 8.29095C41.5602 8.47295 41.4972 8.69896 41.4972 8.96996C41.4972 9.18896 41.5509 9.40195 41.6582 9.60695C41.7702 9.81195 41.9475 9.98295 42.1902 10.118C42.4375 10.253 42.7642 10.321 43.1702 10.321ZM54.6272 11.21C53.8759 11.21 53.2342 11.04 52.7022 10.699C52.1702 10.358 51.7619 9.88696 51.4772 9.28496C51.1926 8.68296 51.0502 7.99195 51.0502 7.21295C51.0502 6.41995 51.1949 5.72395 51.4842 5.12695C51.7736 4.52995 52.1842 4.06495 52.7162 3.73395C53.2529 3.39795 53.8899 3.22995 54.6272 3.22995C55.3832 3.22995 56.0272 3.39995 56.5592 3.74095C57.0959 4.07695 57.5042 4.54595 57.7842 5.14795C58.069 5.74495 58.211 6.43395 58.211 7.21295C58.211 8.00595 58.069 8.70395 57.7842 9.30595C57.4996 9.90295 57.0889 10.3699 56.5522 10.7059C56.0156 11.0419 55.3739 11.21 54.6272 11.21ZM54.6272 10.223C55.4672 10.223 56.0926 9.94495 56.5032 9.38995C56.9139 8.82995 57.1192 8.10395 57.1192 7.21295C57.1192 6.29795 56.9116 5.56996 56.4962 5.02896C56.0856 4.48796 55.4626 4.21695 54.6272 4.21695C54.0626 4.21695 53.5959 4.34496 53.2272 4.60196C52.8632 4.85396 52.5902 5.20595 52.4082 5.65895C52.2309 6.10695 52.1422 6.62495 52.1422 7.21295C52.1422 8.12295 52.3522 8.85296 52.7722 9.40396C53.1922 9.94996 53.8106 10.223 54.6272 10.223ZM61.629 11V4.39195H58.948V3.43996H65.339V4.39195H62.658V11H61.629ZM69.469 11L69.476 3.43996H70.512V7.07996L73.886 3.43996H75.258L71.716 7.21996L75.72 11H74.222L70.512 7.35995V11H69.469ZM79.442 11.21C78.69 11.21 78.049 11.04 77.517 10.699C76.985 10.358 76.576 9.88696 76.292 9.28496C76.007 8.68296 75.865 7.99195 75.865 7.21295C75.865 6.41995 76.009 5.72395 76.299 5.12695C76.588 4.52995 76.999 4.06495 77.531 3.73395C78.067 3.39795 78.704 3.22995 79.442 3.22995C80.198 3.22995 80.842 3.39995 81.374 3.74095C81.91 4.07695 82.319 4.54595 82.599 5.14795C82.883 5.74495 83.026 6.43395 83.026 7.21295C83.026 8.00595 82.883 8.70395 82.599 9.30595C82.314 9.90295 81.903 10.3699 81.367 10.7059C80.83 11.0419 80.188 11.21 79.442 11.21ZM79.442 10.223C80.282 10.223 80.907 9.94495 81.318 9.38995C81.728 8.82995 81.934 8.10395 81.934 7.21295C81.934 6.29795 81.726 5.56996 81.311 5.02896C80.9 4.48796 80.277 4.21695 79.442 4.21695C78.877 4.21695 78.41 4.34496 78.042 4.60196C77.678 4.85396 77.405 5.20595 77.223 5.65895C77.045 6.10695 76.957 6.62495 76.957 7.21295C76.957 8.12295 77.167 8.85296 77.587 9.40396C78.007 9.94996 78.625 10.223 79.442 10.223ZM84.563 11V3.43996H85.48L88.427 9.62796L91.381 3.43996H92.291V11H91.297V5.63795L88.756 11H88.105L85.564 5.63795V11H84.563ZM94.243 11V3.43996H100.256V11H99.227V4.42696H95.272V11H94.243ZM104.383 11.21C103.814 11.21 103.336 11.1069 102.948 10.9019C102.566 10.6969 102.279 10.4239 102.087 10.0829C101.896 9.74195 101.8 9.37096 101.8 8.96996C101.8 8.55896 101.882 8.20895 102.045 7.91995C102.213 7.62595 102.44 7.38596 102.724 7.19896C103.014 7.01196 103.347 6.86996 103.725 6.77196C104.108 6.67896 104.53 6.59695 104.992 6.52695C105.459 6.45195 105.914 6.38895 106.357 6.33795C106.805 6.28195 107.197 6.22796 107.533 6.17696L107.169 6.40096C107.183 5.65396 107.039 5.10096 106.735 4.74196C106.432 4.38296 105.905 4.20296 105.153 4.20296C104.635 4.20296 104.197 4.31995 103.837 4.55295C103.483 4.78595 103.233 5.15495 103.088 5.65895L102.087 5.36496C102.26 4.68796 102.608 4.16295 103.13 3.78995C103.653 3.41695 104.332 3.22995 105.167 3.22995C105.858 3.22995 106.444 3.36095 106.924 3.62195C107.41 3.87895 107.753 4.25196 107.953 4.74196C108.047 4.96096 108.107 5.20596 108.135 5.47696C108.163 5.74796 108.177 6.02295 108.177 6.30295V11H107.26V9.10295L107.526 9.21495C107.27 9.86395 106.871 10.358 106.329 10.699C105.788 11.04 105.139 11.21 104.383 11.21ZM104.502 10.321C104.983 10.321 105.403 10.235 105.762 10.062C106.122 9.88895 106.411 9.65395 106.63 9.35495C106.85 9.05195 106.992 8.71095 107.057 8.33295C107.113 8.08995 107.144 7.82396 107.148 7.53496C107.153 7.24096 107.155 7.02195 107.155 6.87695L107.547 7.07996C107.197 7.12696 106.817 7.17296 106.406 7.21996C106 7.26696 105.599 7.31995 105.202 7.38095C104.81 7.44195 104.456 7.51396 104.138 7.59796C103.924 7.65896 103.716 7.74495 103.515 7.85695C103.315 7.96395 103.149 8.10895 103.018 8.29095C102.892 8.47295 102.829 8.69896 102.829 8.96996C102.829 9.18896 102.883 9.40195 102.99 9.60695C103.102 9.81195 103.28 9.98295 103.522 10.118C103.77 10.253 104.096 10.321 104.502 10.321ZM109.993 11V3.43996H111.022V6.72296H115.285V3.43996H116.314V11H115.285V7.70996H111.022V11H109.993ZM118.467 11V9.80295H119.664V11H118.467ZM122.022 11V9.80295H123.219V11H122.022ZM125.576 11V9.80295H126.773V11H125.576Z" fill="#2B59C3"/>
</svg>
