<svg width="94" height="9" viewBox="0 0 94 9" fill="none" xmlns="http://www.w3.org/2000/svg">
<path d="M0.700001 8.00003V0.800034H2.885C2.9617 0.800034 3.0917 0.802023 3.275 0.805023C3.4617 0.808023 3.64 0.822032 3.81 0.845032C4.3567 0.922032 4.8133 1.12503 5.18 1.45503C5.5467 1.78503 5.8217 2.20503 6.005 2.71503C6.1883 3.22503 6.28 3.78702 6.28 4.40002C6.28 5.01302 6.1883 5.57504 6.005 6.08504C5.8217 6.59504 5.5467 7.01503 5.18 7.34503C4.8133 7.67503 4.3567 7.87803 3.81 7.95503C3.6433 7.97503 3.465 7.98803 3.275 7.99503C3.085 7.99803 2.955 8.00003 2.885 8.00003H0.700001ZM1.46 7.29503H2.885C3.0217 7.29503 3.1683 7.29203 3.325 7.28503C3.485 7.27503 3.6217 7.25803 3.735 7.23503C4.155 7.16203 4.4933 6.99204 4.75 6.72504C5.01 6.45804 5.2 6.12504 5.32 5.72504C5.44 5.32204 5.5 4.88002 5.5 4.40002C5.5 3.91702 5.44 3.47304 5.32 3.07004C5.2 2.66704 5.01 2.33304 4.75 2.07004C4.49 1.80704 4.1517 1.63803 3.735 1.56503C3.6217 1.54203 3.4833 1.52703 3.32 1.52003C3.16 1.51003 3.015 1.50504 2.885 1.50504H1.46V7.29503ZM9.7038 8.15002C9.1771 8.15002 8.7204 8.03303 8.3338 7.80003C7.9504 7.56703 7.6521 7.23803 7.4388 6.81503C7.2254 6.39203 7.1188 5.89503 7.1188 5.32503C7.1188 4.73503 7.2238 4.22503 7.4338 3.79503C7.6438 3.36503 7.9388 3.03303 8.3188 2.80003C8.7021 2.56703 9.1538 2.45003 9.6738 2.45003C10.2071 2.45003 10.6621 2.57304 11.0388 2.82004C11.4154 3.06304 11.7004 3.41303 11.8938 3.87003C12.0871 4.32703 12.1754 4.87204 12.1588 5.50504H11.4088V5.24503C11.3954 4.54503 11.2438 4.01703 10.9538 3.66003C10.6671 3.30303 10.2471 3.12503 9.6938 3.12503C9.1138 3.12503 8.6688 3.31303 8.3588 3.69003C8.0521 4.06703 7.8988 4.60303 7.8988 5.30003C7.8988 5.98003 8.0521 6.50803 8.3588 6.88503C8.6688 7.25803 9.1071 7.44504 9.6738 7.44504C10.0604 7.44504 10.3971 7.35702 10.6838 7.18002C10.9738 7.00002 11.2021 6.74203 11.3688 6.40503L12.0538 6.67003C11.8404 7.14003 11.5254 7.50503 11.1088 7.76503C10.6954 8.02203 10.2271 8.15002 9.7038 8.15002ZM7.6388 5.50504V4.89003H11.7638V5.50504H7.6388ZM14.7157 8.15002C14.309 8.15002 13.9674 8.07702 13.6907 7.93002C13.4174 7.78302 13.2124 7.58803 13.0757 7.34503C12.939 7.10203 12.8707 6.83703 12.8707 6.55003C12.8707 6.25703 12.929 6.00703 13.0457 5.80003C13.1657 5.59003 13.3274 5.41803 13.5307 5.28503C13.7374 5.15203 13.9757 5.05003 14.2457 4.98003C14.519 4.91303 14.8207 4.85502 15.1507 4.80502C15.484 4.75202 15.809 4.70703 16.1257 4.67003C16.4457 4.63003 16.7257 4.59202 16.9657 4.55502L16.7057 4.71503C16.7157 4.18203 16.6124 3.78703 16.3957 3.53003C16.179 3.27303 15.8024 3.14503 15.2657 3.14503C14.8957 3.14503 14.5824 3.22803 14.3257 3.39503C14.0724 3.56203 13.894 3.82503 13.7907 4.18503L13.0757 3.97504C13.199 3.49204 13.4474 3.11704 13.8207 2.85004C14.194 2.58304 14.679 2.45003 15.2757 2.45003C15.769 2.45003 16.1874 2.54303 16.5307 2.73003C16.8774 2.91303 17.1224 3.18003 17.2657 3.53003C17.3324 3.68703 17.3757 3.86202 17.3957 4.05502C17.4157 4.24802 17.4257 4.44503 17.4257 4.64503V8.00003H16.7707V6.64503L16.9607 6.72504C16.7774 7.18804 16.4924 7.54203 16.1057 7.78503C15.719 8.02803 15.2557 8.15002 14.7157 8.15002ZM14.8007 7.51503C15.144 7.51503 15.444 7.45303 15.7007 7.33003C15.9574 7.20703 16.164 7.03803 16.3207 6.82503C16.4774 6.60803 16.579 6.36503 16.6257 6.09503C16.6657 5.92203 16.6874 5.73202 16.6907 5.52502C16.694 5.31502 16.6957 5.15802 16.6957 5.05502L16.9757 5.20003C16.7257 5.23303 16.454 5.26703 16.1607 5.30003C15.8707 5.33303 15.584 5.37202 15.3007 5.41502C15.0207 5.45802 14.7674 5.51004 14.5407 5.57004C14.3874 5.61304 14.239 5.67504 14.0957 5.75504C13.9524 5.83204 13.834 5.93503 13.7407 6.06503C13.6507 6.19503 13.6057 6.35703 13.6057 6.55003C13.6057 6.70703 13.644 6.85804 13.7207 7.00504C13.8007 7.15204 13.9274 7.27303 14.1007 7.37003C14.2774 7.46703 14.5107 7.51503 14.8007 7.51503ZM20.8223 8.15002C20.319 8.15002 19.889 8.02502 19.5323 7.77502C19.1757 7.52202 18.9023 7.18003 18.7123 6.75003C18.5223 6.32003 18.4273 5.83503 18.4273 5.29503C18.4273 4.75803 18.5207 4.27503 18.7073 3.84503C18.8973 3.41503 19.169 3.07503 19.5223 2.82503C19.8757 2.57503 20.299 2.45003 20.7923 2.45003C21.299 2.45003 21.7257 2.57304 22.0723 2.82004C22.419 3.06704 22.6807 3.40504 22.8573 3.83504C23.0373 4.26204 23.1273 4.74803 23.1273 5.29503C23.1273 5.83203 23.039 6.31703 22.8623 6.75003C22.6857 7.18003 22.4257 7.52202 22.0823 7.77502C21.739 8.02502 21.319 8.15002 20.8223 8.15002ZM20.8973 7.46503C21.2807 7.46503 21.5973 7.37203 21.8473 7.18503C22.0973 6.99803 22.284 6.74202 22.4073 6.41502C22.5307 6.08502 22.5923 5.71203 22.5923 5.29503C22.5923 4.87203 22.5307 4.49803 22.4073 4.17503C22.284 3.84803 22.0973 3.59303 21.8473 3.41003C21.6007 3.22703 21.289 3.13503 20.9123 3.13503C20.5257 3.13503 20.2057 3.23003 19.9523 3.42003C19.699 3.61003 19.5107 3.86804 19.3873 4.19504C19.2673 4.52204 19.2073 4.88803 19.2073 5.29503C19.2073 5.70503 19.269 6.07503 19.3923 6.40503C19.519 6.73203 19.7073 6.99002 19.9573 7.18002C20.2073 7.37002 20.5207 7.46503 20.8973 7.46503ZM22.5923 8.00003V3.93503H22.5123V0.800034H23.2523V8.00003H22.5923ZM24.7551 8.00003V0.650024H25.4901V8.00003H24.7551ZM27.0891 1.57503V0.750031H27.8241V1.57503H27.0891ZM27.0891 8.00003V2.60004H27.8241V8.00003H27.0891ZM33.223 8.00003V5.24503C33.223 4.94503 33.1947 4.67003 33.138 4.42003C33.0814 4.16703 32.9897 3.94703 32.863 3.76003C32.7397 3.57002 32.578 3.42304 32.378 3.32004C32.1814 3.21704 31.9414 3.16502 31.658 3.16502C31.398 3.16502 31.168 3.21003 30.968 3.30003C30.7714 3.39003 30.6047 3.52003 30.468 3.69003C30.3347 3.85703 30.233 4.06003 30.163 4.30003C30.093 4.54003 30.058 4.81303 30.058 5.12003L29.538 5.00504C29.538 4.45204 29.6347 3.98703 29.828 3.61003C30.0214 3.23303 30.288 2.94804 30.628 2.75504C30.968 2.56204 31.358 2.46503 31.798 2.46503C32.1214 2.46503 32.403 2.51504 32.643 2.61504C32.8864 2.71504 33.0914 2.85003 33.258 3.02003C33.428 3.19003 33.5647 3.38503 33.668 3.60503C33.7714 3.82203 33.8464 4.05303 33.893 4.30003C33.9397 4.54303 33.963 4.78703 33.963 5.03003V8.00003H33.223ZM29.318 8.00003V2.60004H29.983V3.93002H30.058V8.00003H29.318ZM37.5163 8.15002C36.9896 8.15002 36.5329 8.03303 36.1463 7.80003C35.7629 7.56703 35.4646 7.23803 35.2513 6.81503C35.0379 6.39203 34.9313 5.89503 34.9313 5.32503C34.9313 4.73503 35.0363 4.22503 35.2463 3.79503C35.4563 3.36503 35.7513 3.03303 36.1313 2.80003C36.5146 2.56703 36.9663 2.45003 37.4863 2.45003C38.0196 2.45003 38.4746 2.57304 38.8513 2.82004C39.2279 3.06304 39.5129 3.41303 39.7063 3.87003C39.8996 4.32703 39.9879 4.87204 39.9713 5.50504H39.2213V5.24503C39.2079 4.54503 39.0563 4.01703 38.7663 3.66003C38.4796 3.30303 38.0596 3.12503 37.5063 3.12503C36.9263 3.12503 36.4813 3.31303 36.1713 3.69003C35.8646 4.06703 35.7113 4.60303 35.7113 5.30003C35.7113 5.98003 35.8646 6.50803 36.1713 6.88503C36.4813 7.25803 36.9196 7.44504 37.4863 7.44504C37.8729 7.44504 38.2096 7.35702 38.4963 7.18002C38.7863 7.00002 39.0146 6.74203 39.1813 6.40503L39.8663 6.67003C39.6529 7.14003 39.3379 7.50503 38.9213 7.76503C38.5079 8.02203 38.0396 8.15002 37.5163 8.15002ZM35.4513 5.50504V4.89003H39.5763V5.50504H35.4513ZM45.4328 8.15002C44.9895 8.15002 44.5895 8.04703 44.2328 7.84003C43.8795 7.63303 43.5995 7.35303 43.3928 7.00003C43.1861 6.64303 43.0828 6.24303 43.0828 5.80003V3.00003C43.0828 2.55703 43.1861 2.15802 43.3928 1.80502C43.5995 1.44802 43.8795 1.16704 44.2328 0.960037C44.5895 0.753037 44.9895 0.650024 45.4328 0.650024C45.8761 0.650024 46.2745 0.753037 46.6278 0.960037C46.9845 1.16704 47.2661 1.44802 47.4728 1.80502C47.6795 2.15802 47.7828 2.55703 47.7828 3.00003V5.80003C47.7828 6.24303 47.6795 6.64303 47.4728 7.00003C47.2661 7.35303 46.9845 7.63303 46.6278 7.84003C46.2745 8.04703 45.8761 8.15002 45.4328 8.15002ZM45.4328 7.44003C45.7295 7.44003 45.9995 7.36804 46.2428 7.22504C46.4861 7.07804 46.6795 6.88303 46.8228 6.64003C46.9661 6.39703 47.0378 6.12804 47.0378 5.83504V2.96503C47.0378 2.66803 46.9661 2.39803 46.8228 2.15503C46.6795 1.91203 46.4861 1.71803 46.2428 1.57503C45.9995 1.42803 45.7295 1.35503 45.4328 1.35503C45.1361 1.35503 44.8661 1.42803 44.6228 1.57503C44.3795 1.71803 44.1861 1.91203 44.0428 2.15503C43.8995 2.39803 43.8278 2.66803 43.8278 2.96503V5.83504C43.8278 6.12804 43.8995 6.39703 44.0428 6.64003C44.1861 6.88303 44.3795 7.07804 44.6228 7.22504C44.8661 7.36804 45.1361 7.44003 45.4328 7.44003ZM51.3113 8.15002C50.938 8.15002 50.593 8.07303 50.2763 7.92003C49.9597 7.76703 49.6897 7.55503 49.4663 7.28503C49.243 7.01503 49.083 6.70503 48.9863 6.35503L49.6913 6.16502C49.7547 6.42502 49.8697 6.65003 50.0363 6.84003C50.203 7.02703 50.398 7.17202 50.6213 7.27502C50.848 7.37802 51.0847 7.43002 51.3313 7.43002C51.6513 7.43002 51.938 7.35303 52.1913 7.20003C52.448 7.04303 52.6513 6.83703 52.8013 6.58003C52.9513 6.32303 53.0263 6.04203 53.0263 5.73503C53.0263 5.41803 52.948 5.13304 52.7913 4.88004C52.6347 4.62304 52.428 4.42003 52.1713 4.27003C51.9147 4.12003 51.6347 4.04503 51.3313 4.04503C50.9913 4.04503 50.698 4.12003 50.4513 4.27003C50.2047 4.41703 50.008 4.60203 49.8613 4.82503L49.1913 4.54503L49.4113 0.800034H53.2563V1.50504H49.7363L50.1013 1.16003L49.9063 4.35503L49.7213 4.11003C49.928 3.87303 50.178 3.68802 50.4713 3.55502C50.7647 3.42202 51.073 3.35503 51.3963 3.35503C51.8397 3.35503 52.2397 3.46203 52.5963 3.67503C52.953 3.88503 53.2363 4.17003 53.4463 4.53003C53.6563 4.89003 53.7613 5.29203 53.7613 5.73503C53.7613 6.17503 53.6497 6.57804 53.4263 6.94504C53.203 7.30804 52.9063 7.60004 52.5363 7.82004C52.1663 8.04004 51.758 8.15002 51.3113 8.15002ZM55.0978 8.00003V7.14503H55.9528V8.00003H55.0978ZM59.847 8.15002C59.404 8.15002 59.004 8.04703 58.647 7.84003C58.294 7.63303 58.014 7.35303 57.8069 7.00003C57.6002 6.64303 57.4969 6.24303 57.4969 5.80003V3.00003C57.4969 2.55703 57.6002 2.15802 57.8069 1.80502C58.014 1.44802 58.294 1.16704 58.647 0.960037C59.004 0.753037 59.404 0.650024 59.847 0.650024C60.29 0.650024 60.689 0.753037 61.042 0.960037C61.399 1.16704 61.68 1.44802 61.887 1.80502C62.094 2.15802 62.197 2.55703 62.197 3.00003V5.80003C62.197 6.24303 62.094 6.64303 61.887 7.00003C61.68 7.35303 61.399 7.63303 61.042 7.84003C60.689 8.04703 60.29 8.15002 59.847 8.15002ZM59.847 7.44003C60.144 7.44003 60.414 7.36804 60.657 7.22504C60.9 7.07804 61.094 6.88303 61.237 6.64003C61.38 6.39703 61.452 6.12804 61.452 5.83504V2.96503C61.452 2.66803 61.38 2.39803 61.237 2.15503C61.094 1.91203 60.9 1.71803 60.657 1.57503C60.414 1.42803 60.144 1.35503 59.847 1.35503C59.55 1.35503 59.28 1.42803 59.037 1.57503C58.794 1.71803 58.6 1.91203 58.457 2.15503C58.314 2.39803 58.242 2.66803 58.242 2.96503V5.83504C58.242 6.12804 58.314 6.39703 58.457 6.64003C58.6 6.88303 58.794 7.07804 59.037 7.22504C59.28 7.36804 59.55 7.44003 59.847 7.44003ZM65.725 8.15002C65.352 8.15002 65.007 8.07303 64.69 7.92003C64.374 7.76703 64.104 7.55503 63.88 7.28503C63.657 7.01503 63.497 6.70503 63.4 6.35503L64.105 6.16502C64.169 6.42502 64.284 6.65003 64.45 6.84003C64.617 7.02703 64.812 7.17202 65.035 7.27502C65.262 7.37802 65.499 7.43002 65.745 7.43002C66.065 7.43002 66.352 7.35303 66.605 7.20003C66.862 7.04303 67.065 6.83703 67.215 6.58003C67.365 6.32303 67.44 6.04203 67.44 5.73503C67.44 5.41803 67.362 5.13304 67.205 4.88004C67.049 4.62304 66.842 4.42003 66.585 4.27003C66.329 4.12003 66.049 4.04503 65.745 4.04503C65.405 4.04503 65.112 4.12003 64.865 4.27003C64.619 4.41703 64.422 4.60203 64.275 4.82503L63.605 4.54503L63.825 0.800034H67.67V1.50504H64.15L64.515 1.16003L64.32 4.35503L64.135 4.11003C64.342 3.87303 64.592 3.68802 64.885 3.55502C65.179 3.42202 65.487 3.35503 65.81 3.35503C66.254 3.35503 66.654 3.46203 67.01 3.67503C67.367 3.88503 67.65 4.17003 67.86 4.53003C68.07 4.89003 68.175 5.29203 68.175 5.73503C68.175 6.17503 68.064 6.57804 67.84 6.94504C67.617 7.30804 67.32 7.60004 66.95 7.82004C66.58 8.04004 66.172 8.15002 65.725 8.15002ZM69.512 8.00003V7.14503H70.367V8.00003H69.512ZM71.711 7.99503L71.716 7.32503L74.971 4.38503C75.251 4.13203 75.436 3.89202 75.526 3.66502C75.619 3.43502 75.666 3.19504 75.666 2.94504C75.666 2.64804 75.596 2.38003 75.456 2.14003C75.316 1.90003 75.128 1.71004 74.891 1.57004C74.654 1.42704 74.389 1.35503 74.096 1.35503C73.789 1.35503 73.516 1.42803 73.276 1.57503C73.036 1.72203 72.846 1.91503 72.706 2.15503C72.569 2.39503 72.503 2.65703 72.506 2.94003H71.756C71.756 2.50303 71.859 2.11203 72.066 1.76503C72.273 1.41803 72.553 1.14703 72.906 0.950027C73.259 0.750027 73.659 0.650024 74.106 0.650024C74.543 0.650024 74.934 0.753037 75.281 0.960037C75.631 1.16304 75.906 1.44002 76.106 1.79002C76.309 2.13702 76.411 2.52303 76.411 2.95003C76.411 3.25003 76.374 3.51503 76.301 3.74503C76.231 3.97203 76.119 4.18304 75.966 4.38004C75.816 4.57304 75.624 4.77303 75.391 4.98003L72.501 7.59003L72.386 7.29002H76.411V7.99503H71.711ZM79.964 8.15002C79.521 8.15002 79.121 8.04703 78.764 7.84003C78.411 7.63303 78.131 7.35303 77.924 7.00003C77.717 6.64303 77.614 6.24303 77.614 5.80003V3.00003C77.614 2.55703 77.717 2.15802 77.924 1.80502C78.131 1.44802 78.411 1.16704 78.764 0.960037C79.121 0.753037 79.521 0.650024 79.964 0.650024C80.407 0.650024 80.806 0.753037 81.159 0.960037C81.516 1.16704 81.797 1.44802 82.004 1.80502C82.211 2.15802 82.314 2.55703 82.314 3.00003V5.80003C82.314 6.24303 82.211 6.64303 82.004 7.00003C81.797 7.35303 81.516 7.63303 81.159 7.84003C80.806 8.04703 80.407 8.15002 79.964 8.15002ZM79.964 7.44003C80.261 7.44003 80.531 7.36804 80.774 7.22504C81.017 7.07804 81.211 6.88303 81.354 6.64003C81.497 6.39703 81.569 6.12804 81.569 5.83504V2.96503C81.569 2.66803 81.497 2.39803 81.354 2.15503C81.211 1.91203 81.017 1.71803 80.774 1.57503C80.531 1.42803 80.261 1.35503 79.964 1.35503C79.667 1.35503 79.397 1.42803 79.154 1.57503C78.911 1.71803 78.717 1.91203 78.574 2.15503C78.431 2.39803 78.359 2.66803 78.359 2.96503V5.83504C78.359 6.12804 78.431 6.39703 78.574 6.64003C78.717 6.88303 78.911 7.07804 79.154 7.22504C79.397 7.36804 79.667 7.44003 79.964 7.44003ZM83.518 7.99503L83.523 7.32503L86.778 4.38503C87.058 4.13203 87.243 3.89202 87.333 3.66502C87.426 3.43502 87.473 3.19504 87.473 2.94504C87.473 2.64804 87.403 2.38003 87.263 2.14003C87.123 1.90003 86.934 1.71004 86.698 1.57004C86.461 1.42704 86.196 1.35503 85.903 1.35503C85.596 1.35503 85.323 1.42803 85.083 1.57503C84.843 1.72203 84.653 1.91503 84.513 2.15503C84.376 2.39503 84.309 2.65703 84.313 2.94003H83.563C83.563 2.50303 83.666 2.11203 83.873 1.76503C84.079 1.41803 84.359 1.14703 84.713 0.950027C85.066 0.750027 85.466 0.650024 85.913 0.650024C86.349 0.650024 86.741 0.753037 87.088 0.960037C87.438 1.16304 87.713 1.44002 87.913 1.79002C88.116 2.13702 88.218 2.52303 88.218 2.95003C88.218 3.25003 88.181 3.51503 88.108 3.74503C88.038 3.97203 87.926 4.18304 87.773 4.38004C87.623 4.57304 87.431 4.77303 87.198 4.98003L84.308 7.59003L84.193 7.29002H88.218V7.99503H83.518ZM91.356 8.14503C90.999 8.14503 90.671 8.08203 90.371 7.95503C90.071 7.82803 89.812 7.64802 89.596 7.41502C89.379 7.17802 89.221 6.89704 89.121 6.57004L89.821 6.36003C89.941 6.71703 90.137 6.98703 90.411 7.17003C90.687 7.35303 90.999 7.44203 91.346 7.43503C91.666 7.42803 91.941 7.35703 92.171 7.22003C92.404 7.08303 92.582 6.89302 92.706 6.65002C92.829 6.40702 92.891 6.12502 92.891 5.80502C92.891 5.31502 92.747 4.92203 92.461 4.62503C92.177 4.32503 91.802 4.17503 91.336 4.17503C91.206 4.17503 91.069 4.19303 90.926 4.23003C90.782 4.26303 90.649 4.31203 90.526 4.37503L90.156 3.79002L92.956 1.20503L93.076 1.50504H89.406V0.800034H93.566V1.51503L91.126 3.84503L91.116 3.55502C91.616 3.49202 92.056 3.54804 92.436 3.72504C92.816 3.90204 93.112 4.17203 93.326 4.53503C93.542 4.89503 93.651 5.31802 93.651 5.80502C93.651 6.26502 93.551 6.67202 93.351 7.02502C93.154 7.37502 92.882 7.65004 92.536 7.85004C92.189 8.04704 91.796 8.14503 91.356 8.14503Z" fill="#2B59C3"/>
</svg>
