<svg width="41" height="32" viewBox="0 0 41 32" fill="none" xmlns="http://www.w3.org/2000/svg">
<path d="M34.2877 5.79698e-06H5.8491C3.5449 -0.0037942 1.6739 1.8611 1.6702 4.1653C1.6699 4.3528 1.6822 4.5401 1.7071 4.7259C1.7664 5.184 2.1858 5.5073 2.644 5.448C2.7556 5.4336 2.8631 5.3968 2.9601 5.3398C3.3291 5.1251 3.7494 5.01411 4.1762 5.01861H10.1317C11.2064 5.02161 12.1613 5.7051 12.5105 6.7215L12.6526 7.17991C13.2282 8.88361 14.824 10.0322 16.6223 10.0371H35.9606C36.3992 10.0375 36.8301 10.1528 37.2102 10.3717C37.3387 10.4466 37.4848 10.4858 37.6334 10.4855C38.0954 10.4855 38.4699 10.1109 38.4699 9.64901V4.1821C38.4699 1.8724 36.5975 5.79698e-06 34.2877 5.79698e-06Z" fill="#0031A3"/>
<path d="M38.0625 8.93126C37.4263 8.56046 36.7029 8.36536 35.9664 8.36586H16.6282C15.5534 8.36286 14.5986 7.67926 14.2494 6.66286L14.1072 6.20456C13.5317 4.50076 11.9358 3.35216 10.1375 3.34736H4.1821C3.4634 3.34036 2.7562 3.52696 2.1345 3.88766C0.816099 4.62546 -0.000399853 6.01856 1.46902e-07 7.52946V27.604C1.46902e-07 29.914 1.8724 31.786 4.1821 31.786H35.9664C38.2761 31.786 40.1485 29.914 40.1485 27.604V12.5481C40.1537 11.0552 39.3573 9.67446 38.0625 8.93126Z" fill="#2B59C3"/>
</svg>
