<svg width="4" height="18" viewBox="0 0 4 18" fill="none" xmlns="http://www.w3.org/2000/svg">
<path fill-rule="evenodd" clip-rule="evenodd" d="M3.405 1.7027C3.405 2.6431 2.643 3.4054 1.703 3.4054C0.762003 3.4054 0 2.6431 0 1.7027C0 0.762298 0.762003 0 1.703 0C2.643 0 3.405 0.762298 3.405 1.7027ZM3.405 8.5128C3.405 9.4531 2.643 10.2155 1.703 10.2155C0.762003 10.2155 0 9.4531 0 8.5128C0 7.5724 0.762003 6.8101 1.703 6.8101C2.643 6.8101 3.405 7.5724 3.405 8.5128ZM1.703 17.026C2.643 17.026 3.405 16.263 3.405 15.323C3.405 14.383 2.643 13.62 1.703 13.62C0.762003 13.62 0 14.383 0 15.323C0 16.263 0.762003 17.026 1.703 17.026Z" fill="#2B59C3"/>
</svg>
