<svg width="94" height="9" viewBox="0 0 94 9" fill="none" xmlns="http://www.w3.org/2000/svg">
<path d="M0.699997 8.00003V0.800034H2.88499C2.96199 0.800034 3.09199 0.802023 3.27499 0.805023C3.46199 0.808023 3.64 0.822032 3.81 0.845032C4.357 0.922032 4.81299 1.12503 5.17999 1.45503C5.54699 1.78503 5.822 2.20503 6.005 2.71503C6.188 3.22503 6.28 3.78702 6.28 4.40002C6.28 5.01302 6.188 5.57504 6.005 6.08504C5.822 6.59504 5.54699 7.01503 5.17999 7.34503C4.81299 7.67503 4.357 7.87803 3.81 7.95503C3.643 7.97503 3.46499 7.98803 3.27499 7.99503C3.08499 7.99803 2.95499 8.00003 2.88499 8.00003H0.699997ZM1.46001 7.29503H2.88499C3.02199 7.29503 3.168 7.29203 3.325 7.28503C3.485 7.27503 3.622 7.25803 3.735 7.23503C4.155 7.16203 4.493 6.99204 4.75 6.72504C5.01 6.45804 5.20001 6.12504 5.32001 5.72504C5.44001 5.32204 5.5 4.88002 5.5 4.40002C5.5 3.91702 5.44001 3.47304 5.32001 3.07004C5.20001 2.66704 5.01 2.33304 4.75 2.07004C4.49 1.80704 4.152 1.63803 3.735 1.56503C3.622 1.54203 3.48301 1.52703 3.32001 1.52003C3.16001 1.51003 3.01499 1.50504 2.88499 1.50504H1.46001V7.29503ZM9.70399 8.15002C9.17699 8.15002 8.72 8.03303 8.334 7.80003C7.95 7.56703 7.652 7.23803 7.439 6.81503C7.225 6.39203 7.119 5.89503 7.119 5.32503C7.119 4.73503 7.22401 4.22503 7.43401 3.79503C7.64401 3.36503 7.939 3.03303 8.319 2.80003C8.702 2.56703 9.154 2.45003 9.674 2.45003C10.207 2.45003 10.662 2.57304 11.039 2.82004C11.415 3.06304 11.7 3.41303 11.894 3.87003C12.087 4.32703 12.175 4.87204 12.159 5.50504H11.409V5.24503C11.395 4.54503 11.244 4.01703 10.954 3.66003C10.667 3.30303 10.247 3.12503 9.694 3.12503C9.114 3.12503 8.66899 3.31303 8.35899 3.69003C8.05199 4.06703 7.899 4.60303 7.899 5.30003C7.899 5.98003 8.05199 6.50803 8.35899 6.88503C8.66899 7.25803 9.107 7.44504 9.674 7.44504C10.06 7.44504 10.397 7.35702 10.684 7.18002C10.974 7.00002 11.202 6.74203 11.369 6.40503L12.054 6.67003C11.84 7.14003 11.525 7.50503 11.109 7.76503C10.695 8.02203 10.227 8.15002 9.70399 8.15002ZM7.63901 5.50504V4.89003H11.764V5.50504H7.63901ZM14.716 8.15002C14.309 8.15002 13.967 8.07702 13.691 7.93002C13.417 7.78302 13.212 7.58803 13.076 7.34503C12.939 7.10203 12.871 6.83703 12.871 6.55003C12.871 6.25703 12.929 6.00703 13.046 5.80003C13.166 5.59003 13.327 5.41803 13.531 5.28503C13.737 5.15203 13.976 5.05003 14.246 4.98003C14.519 4.91303 14.821 4.85502 15.151 4.80502C15.484 4.75202 15.809 4.70703 16.126 4.67003C16.446 4.63003 16.726 4.59202 16.966 4.55502L16.706 4.71503C16.716 4.18203 16.612 3.78703 16.396 3.53003C16.179 3.27303 15.802 3.14503 15.266 3.14503C14.896 3.14503 14.582 3.22803 14.326 3.39503C14.072 3.56203 13.894 3.82503 13.791 4.18503L13.076 3.97504C13.199 3.49204 13.447 3.11704 13.821 2.85004C14.194 2.58304 14.679 2.45003 15.276 2.45003C15.769 2.45003 16.187 2.54303 16.531 2.73003C16.877 2.91303 17.122 3.18003 17.266 3.53003C17.332 3.68703 17.376 3.86202 17.396 4.05502C17.416 4.24802 17.426 4.44503 17.426 4.64503V8.00003H16.771V6.64503L16.961 6.72504C16.777 7.18804 16.492 7.54203 16.106 7.78503C15.719 8.02803 15.256 8.15002 14.716 8.15002ZM14.801 7.51503C15.144 7.51503 15.444 7.45303 15.701 7.33003C15.957 7.20703 16.164 7.03803 16.321 6.82503C16.477 6.60803 16.579 6.36503 16.626 6.09503C16.666 5.92203 16.687 5.73202 16.691 5.52502C16.694 5.31502 16.696 5.15802 16.696 5.05502L16.976 5.20003C16.726 5.23303 16.454 5.26703 16.161 5.30003C15.871 5.33303 15.584 5.37202 15.301 5.41502C15.021 5.45802 14.767 5.51004 14.541 5.57004C14.387 5.61304 14.239 5.67504 14.096 5.75504C13.952 5.83204 13.834 5.93503 13.741 6.06503C13.651 6.19503 13.606 6.35703 13.606 6.55003C13.606 6.70703 13.644 6.85804 13.721 7.00504C13.801 7.15204 13.927 7.27303 14.101 7.37003C14.277 7.46703 14.511 7.51503 14.801 7.51503ZM20.822 8.15002C20.319 8.15002 19.889 8.02502 19.532 7.77502C19.176 7.52202 18.902 7.18003 18.712 6.75003C18.522 6.32003 18.427 5.83503 18.427 5.29503C18.427 4.75803 18.521 4.27503 18.707 3.84503C18.897 3.41503 19.169 3.07503 19.522 2.82503C19.876 2.57503 20.299 2.45003 20.792 2.45003C21.299 2.45003 21.726 2.57304 22.072 2.82004C22.419 3.06704 22.681 3.40504 22.857 3.83504C23.037 4.26204 23.127 4.74803 23.127 5.29503C23.127 5.83203 23.039 6.31703 22.862 6.75003C22.686 7.18003 22.426 7.52202 22.082 7.77502C21.739 8.02502 21.319 8.15002 20.822 8.15002ZM20.897 7.46503C21.281 7.46503 21.597 7.37203 21.847 7.18503C22.097 6.99803 22.284 6.74202 22.407 6.41502C22.531 6.08502 22.592 5.71203 22.592 5.29503C22.592 4.87203 22.531 4.49803 22.407 4.17503C22.284 3.84803 22.097 3.59303 21.847 3.41003C21.601 3.22703 21.289 3.13503 20.912 3.13503C20.526 3.13503 20.206 3.23003 19.952 3.42003C19.699 3.61003 19.511 3.86804 19.387 4.19504C19.267 4.52204 19.207 4.88803 19.207 5.29503C19.207 5.70503 19.269 6.07503 19.392 6.40503C19.519 6.73203 19.707 6.99002 19.957 7.18002C20.207 7.37002 20.521 7.46503 20.897 7.46503ZM22.592 8.00003V3.93503H22.512V0.800034H23.252V8.00003H22.592ZM24.755 8.00003V0.650024H25.49V8.00003H24.755ZM27.089 1.57503V0.750031H27.824V1.57503H27.089ZM27.089 8.00003V2.60004H27.824V8.00003H27.089ZM33.223 8.00003V5.24503C33.223 4.94503 33.195 4.67003 33.138 4.42003C33.081 4.16703 32.99 3.94703 32.863 3.76003C32.74 3.57002 32.578 3.42304 32.378 3.32004C32.181 3.21704 31.941 3.16502 31.658 3.16502C31.398 3.16502 31.168 3.21003 30.968 3.30003C30.771 3.39003 30.605 3.52003 30.468 3.69003C30.335 3.85703 30.233 4.06003 30.163 4.30003C30.093 4.54003 30.058 4.81303 30.058 5.12003L29.538 5.00504C29.538 4.45204 29.635 3.98703 29.828 3.61003C30.021 3.23303 30.288 2.94804 30.628 2.75504C30.968 2.56204 31.358 2.46503 31.798 2.46503C32.121 2.46503 32.403 2.51504 32.643 2.61504C32.886 2.71504 33.091 2.85003 33.258 3.02003C33.428 3.19003 33.565 3.38503 33.668 3.60503C33.771 3.82203 33.846 4.05303 33.893 4.30003C33.94 4.54303 33.963 4.78703 33.963 5.03003V8.00003H33.223ZM29.318 8.00003V2.60004H29.983V3.93002H30.058V8.00003H29.318ZM37.516 8.15002C36.99 8.15002 36.533 8.03303 36.146 7.80003C35.763 7.56703 35.465 7.23803 35.251 6.81503C35.038 6.39203 34.931 5.89503 34.931 5.32503C34.931 4.73503 35.036 4.22503 35.246 3.79503C35.456 3.36503 35.751 3.03303 36.131 2.80003C36.515 2.56703 36.966 2.45003 37.486 2.45003C38.02 2.45003 38.475 2.57304 38.851 2.82004C39.228 3.06304 39.513 3.41303 39.706 3.87003C39.9 4.32703 39.988 4.87204 39.971 5.50504H39.221V5.24503C39.208 4.54503 39.056 4.01703 38.766 3.66003C38.48 3.30303 38.06 3.12503 37.506 3.12503C36.926 3.12503 36.481 3.31303 36.171 3.69003C35.865 4.06703 35.711 4.60303 35.711 5.30003C35.711 5.98003 35.865 6.50803 36.171 6.88503C36.481 7.25803 36.92 7.44504 37.486 7.44504C37.873 7.44504 38.21 7.35702 38.496 7.18002C38.786 7.00002 39.015 6.74203 39.181 6.40503L39.866 6.67003C39.653 7.14003 39.338 7.50503 38.921 7.76503C38.508 8.02203 38.04 8.15002 37.516 8.15002ZM35.451 5.50504V4.89003H39.576V5.50504H35.451ZM42.883 7.99503L42.888 7.32503L46.143 4.38503C46.423 4.13203 46.608 3.89202 46.698 3.66502C46.791 3.43502 46.838 3.19504 46.838 2.94504C46.838 2.64804 46.768 2.38003 46.628 2.14003C46.488 1.90003 46.299 1.71004 46.063 1.57004C45.826 1.42704 45.561 1.35503 45.268 1.35503C44.961 1.35503 44.688 1.42803 44.448 1.57503C44.208 1.72203 44.018 1.91503 43.878 2.15503C43.741 2.39503 43.674 2.65703 43.678 2.94003H42.928C42.928 2.50303 43.031 2.11203 43.238 1.76503C43.444 1.41803 43.724 1.14703 44.078 0.950027C44.431 0.750027 44.831 0.650024 45.278 0.650024C45.714 0.650024 46.106 0.753037 46.453 0.960037C46.803 1.16304 47.078 1.44002 47.278 1.79002C47.481 2.13702 47.583 2.52303 47.583 2.95003C47.583 3.25003 47.546 3.51503 47.473 3.74503C47.403 3.97203 47.291 4.18304 47.138 4.38004C46.988 4.57304 46.796 4.77303 46.563 4.98003L43.673 7.59003L43.558 7.29002H47.583V7.99503H42.883ZM50.981 8.15002C50.531 8.15002 50.133 8.06004 49.786 7.88004C49.443 7.70004 49.173 7.44803 48.976 7.12503C48.783 6.79803 48.686 6.41703 48.686 5.98003C48.686 5.53303 48.794 5.13702 49.011 4.79002C49.228 4.44002 49.558 4.17503 50.001 3.99503L49.991 4.28503C49.621 4.14803 49.339 3.92504 49.146 3.61504C48.953 3.30504 48.856 2.96204 48.856 2.58504C48.856 2.18504 48.948 1.84202 49.131 1.55502C49.314 1.26502 49.564 1.04203 49.881 0.885025C50.201 0.728025 50.568 0.650024 50.981 0.650024C51.394 0.650024 51.761 0.728025 52.081 0.885025C52.401 1.04203 52.653 1.26502 52.836 1.55502C53.019 1.84202 53.111 2.18504 53.111 2.58504C53.111 2.96204 53.018 3.30303 52.831 3.61003C52.648 3.91703 52.366 4.14203 51.986 4.28503L51.961 3.99503C52.404 4.17203 52.736 4.43503 52.956 4.78503C53.179 5.13503 53.291 5.53303 53.291 5.98003C53.291 6.41703 53.193 6.79803 52.996 7.12503C52.799 7.44803 52.528 7.70004 52.181 7.88004C51.834 8.06004 51.434 8.15002 50.981 8.15002ZM50.981 7.44504C51.434 7.44504 51.803 7.32004 52.086 7.07004C52.369 6.81704 52.511 6.45303 52.511 5.98003C52.511 5.50003 52.371 5.13703 52.091 4.89003C51.811 4.64003 51.441 4.51503 50.981 4.51503C50.521 4.51503 50.153 4.64003 49.876 4.89003C49.599 5.13703 49.461 5.50003 49.461 5.98003C49.461 6.45303 49.601 6.81704 49.881 7.07004C50.161 7.32004 50.528 7.44504 50.981 7.44504ZM50.981 3.80502C51.381 3.80502 51.706 3.70303 51.956 3.50003C52.206 3.29303 52.331 2.98804 52.331 2.58504C52.331 2.18204 52.206 1.88002 51.956 1.68002C51.706 1.47702 51.381 1.37503 50.981 1.37503C50.581 1.37503 50.256 1.47702 50.006 1.68002C49.759 1.88002 49.636 2.18204 49.636 2.58504C49.636 2.98804 49.759 3.29303 50.006 3.50003C50.256 3.70303 50.581 3.80502 50.981 3.80502ZM54.727 8.00003V7.14503H55.582V8.00003H54.727ZM59.476 8.15002C59.032 8.15002 58.632 8.04703 58.276 7.84003C57.922 7.63303 57.642 7.35303 57.436 7.00003C57.229 6.64303 57.126 6.24303 57.126 5.80003V3.00003C57.126 2.55703 57.229 2.15802 57.436 1.80502C57.642 1.44802 57.922 1.16704 58.276 0.960037C58.632 0.753037 59.032 0.650024 59.476 0.650024C59.919 0.650024 60.317 0.753037 60.671 0.960037C61.027 1.16704 61.309 1.44802 61.516 1.80502C61.722 2.15802 61.826 2.55703 61.826 3.00003V5.80003C61.826 6.24303 61.722 6.64303 61.516 7.00003C61.309 7.35303 61.027 7.63303 60.671 7.84003C60.317 8.04703 59.919 8.15002 59.476 8.15002ZM59.476 7.44003C59.772 7.44003 60.042 7.36804 60.286 7.22504C60.529 7.07804 60.722 6.88303 60.866 6.64003C61.009 6.39703 61.081 6.12804 61.081 5.83504V2.96503C61.081 2.66803 61.009 2.39803 60.866 2.15503C60.722 1.91203 60.529 1.71803 60.286 1.57503C60.042 1.42803 59.772 1.35503 59.476 1.35503C59.179 1.35503 58.909 1.42803 58.666 1.57503C58.422 1.71803 58.229 1.91203 58.086 2.15503C57.942 2.39803 57.871 2.66803 57.871 2.96503V5.83504C57.871 6.12804 57.942 6.39703 58.086 6.64003C58.229 6.88303 58.422 7.07804 58.666 7.22504C58.909 7.36804 59.179 7.44003 59.476 7.44003ZM66.399 8.00003V6.60503H63.029V5.90503L65.439 0.800034H66.264L63.854 5.90503H66.399V3.80502H67.139V5.90503H67.924V6.60503H67.139V8.00003H66.399ZM69.072 8.00003V7.14503H69.927V8.00003H69.072ZM71.271 7.99503L71.276 7.32503L74.531 4.38503C74.811 4.13203 74.996 3.89202 75.086 3.66502C75.18 3.43502 75.226 3.19504 75.226 2.94504C75.226 2.64804 75.156 2.38003 75.016 2.14003C74.876 1.90003 74.688 1.71004 74.451 1.57004C74.215 1.42704 73.95 1.35503 73.656 1.35503C73.35 1.35503 73.076 1.42803 72.836 1.57503C72.596 1.72203 72.406 1.91503 72.266 2.15503C72.13 2.39503 72.063 2.65703 72.066 2.94003H71.316C71.316 2.50303 71.42 2.11203 71.626 1.76503C71.833 1.41803 72.113 1.14703 72.466 0.950027C72.82 0.750027 73.22 0.650024 73.666 0.650024C74.103 0.650024 74.495 0.753037 74.841 0.960037C75.191 1.16304 75.466 1.44002 75.666 1.79002C75.87 2.13702 75.971 2.52303 75.971 2.95003C75.971 3.25003 75.935 3.51503 75.861 3.74503C75.791 3.97203 75.68 4.18304 75.526 4.38004C75.376 4.57304 75.185 4.77303 74.951 4.98003L72.061 7.59003L71.946 7.29002H75.971V7.99503H71.271ZM79.525 8.15002C79.081 8.15002 78.681 8.04703 78.325 7.84003C77.971 7.63303 77.691 7.35303 77.485 7.00003C77.278 6.64303 77.175 6.24303 77.175 5.80003V3.00003C77.175 2.55703 77.278 2.15802 77.485 1.80502C77.691 1.44802 77.971 1.16704 78.325 0.960037C78.681 0.753037 79.081 0.650024 79.525 0.650024C79.968 0.650024 80.366 0.753037 80.72 0.960037C81.076 1.16704 81.358 1.44802 81.565 1.80502C81.771 2.15802 81.875 2.55703 81.875 3.00003V5.80003C81.875 6.24303 81.771 6.64303 81.565 7.00003C81.358 7.35303 81.076 7.63303 80.72 7.84003C80.366 8.04703 79.968 8.15002 79.525 8.15002ZM79.525 7.44003C79.821 7.44003 80.091 7.36804 80.335 7.22504C80.578 7.07804 80.771 6.88303 80.915 6.64003C81.058 6.39703 81.13 6.12804 81.13 5.83504V2.96503C81.13 2.66803 81.058 2.39803 80.915 2.15503C80.771 1.91203 80.578 1.71803 80.335 1.57503C80.091 1.42803 79.821 1.35503 79.525 1.35503C79.228 1.35503 78.958 1.42803 78.715 1.57503C78.471 1.71803 78.278 1.91203 78.135 2.15503C77.991 2.39803 77.92 2.66803 77.92 2.96503V5.83504C77.92 6.12804 77.991 6.39703 78.135 6.64003C78.278 6.88303 78.471 7.07804 78.715 7.22504C78.958 7.36804 79.228 7.44003 79.525 7.44003ZM83.078 7.99503L83.083 7.32503L86.338 4.38503C86.618 4.13203 86.803 3.89202 86.893 3.66502C86.986 3.43502 87.033 3.19504 87.033 2.94504C87.033 2.64804 86.963 2.38003 86.823 2.14003C86.683 1.90003 86.495 1.71004 86.258 1.57004C86.021 1.42704 85.756 1.35503 85.463 1.35503C85.156 1.35503 84.883 1.42803 84.643 1.57503C84.403 1.72203 84.213 1.91503 84.073 2.15503C83.936 2.39503 83.87 2.65703 83.873 2.94003H83.123C83.123 2.50303 83.226 2.11203 83.433 1.76503C83.64 1.41803 83.92 1.14703 84.273 0.950027C84.626 0.750027 85.026 0.650024 85.473 0.650024C85.91 0.650024 86.301 0.753037 86.648 0.960037C86.998 1.16304 87.273 1.44002 87.473 1.79002C87.676 2.13702 87.778 2.52303 87.778 2.95003C87.778 3.25003 87.741 3.51503 87.668 3.74503C87.598 3.97203 87.486 4.18304 87.333 4.38004C87.183 4.57304 86.991 4.77303 86.758 4.98003L83.868 7.59003L83.753 7.29002H87.778V7.99503H83.078ZM90.916 8.14503C90.56 8.14503 90.231 8.08203 89.931 7.95503C89.631 7.82803 89.373 7.64802 89.156 7.41502C88.94 7.17802 88.781 6.89704 88.681 6.57004L89.381 6.36003C89.501 6.71703 89.698 6.98703 89.971 7.17003C90.248 7.35303 90.56 7.44203 90.906 7.43503C91.226 7.42803 91.501 7.35703 91.731 7.22003C91.965 7.08303 92.143 6.89302 92.266 6.65002C92.39 6.40702 92.451 6.12502 92.451 5.80502C92.451 5.31502 92.308 4.92203 92.021 4.62503C91.738 4.32503 91.363 4.17503 90.896 4.17503C90.766 4.17503 90.63 4.19303 90.486 4.23003C90.343 4.26303 90.21 4.31203 90.086 4.37503L89.716 3.79002L92.516 1.20503L92.636 1.50504H88.966V0.800034H93.126V1.51503L90.686 3.84503L90.676 3.55502C91.176 3.49202 91.616 3.54804 91.996 3.72504C92.376 3.90204 92.673 4.17203 92.886 4.53503C93.103 4.89503 93.211 5.31802 93.211 5.80502C93.211 6.26502 93.111 6.67202 92.911 7.02502C92.715 7.37502 92.443 7.65004 92.096 7.85004C91.75 8.04704 91.356 8.14503 90.916 8.14503Z" fill="#FF784F"/>
</svg>
