<svg width="127" height="13" viewBox="0 0 127 13" fill="none" xmlns="http://www.w3.org/2000/svg">
<path d="M4.20676 11.21C3.52076 11.21 2.92575 11.11 2.42175 10.909C1.92275 10.708 1.51176 10.445 1.18976 10.118C0.867758 9.78695 0.62775 9.42995 0.46875 9.04695L1.40675 8.50096C1.51875 8.81796 1.69575 9.10796 1.93875 9.36896C2.18175 9.62996 2.49375 9.83796 2.87675 9.99196C3.25975 10.146 3.71476 10.223 4.24176 10.223C4.78776 10.223 5.24976 10.137 5.62776 9.96396C6.01076 9.79096 6.29976 9.54895 6.49576 9.23595C6.69176 8.92295 6.78975 8.55895 6.78975 8.14395C6.78975 7.68695 6.67975 7.33196 6.46075 7.07996C6.24175 6.82796 5.94775 6.65096 5.57875 6.54796C5.20975 6.44096 4.79976 6.37995 4.34676 6.36595C4.00576 6.35195 3.76376 6.34295 3.61876 6.33795C3.47376 6.33295 3.37876 6.33095 3.33176 6.33095C3.28476 6.33095 3.24076 6.33095 3.19876 6.33095V5.33696C3.23176 5.33696 3.31775 5.33696 3.45775 5.33696C3.59775 5.33696 3.74676 5.33696 3.90576 5.33696C4.06476 5.33196 4.19075 5.32795 4.28375 5.32295C4.95075 5.28995 5.47575 5.11496 5.85875 4.79796C6.24175 4.48096 6.43275 4.05095 6.43275 3.50995C6.43275 2.93595 6.22976 2.48996 5.82376 2.17296C5.42276 1.85596 4.90176 1.69696 4.26276 1.69696C3.66076 1.69696 3.15176 1.84195 2.73676 2.13095C2.32576 2.41595 1.98976 2.79796 1.72876 3.27896L0.888763 2.65596C1.20576 2.08696 1.65376 1.61995 2.23276 1.25595C2.81176 0.891951 3.49776 0.709961 4.29076 0.709961C4.71576 0.709961 5.12176 0.767949 5.50876 0.884949C5.90076 1.00195 6.24575 1.17395 6.54475 1.40295C6.84775 1.63195 7.08576 1.92095 7.25876 2.27095C7.43576 2.61595 7.52475 3.02195 7.52475 3.48895C7.52475 4.03495 7.40375 4.51096 7.16075 4.91696C6.92275 5.32296 6.61476 5.62895 6.23676 5.83395C6.74976 5.98795 7.15175 6.25895 7.44075 6.64595C7.73475 7.03295 7.88176 7.53995 7.88176 8.16495C7.88176 8.78095 7.72976 9.31795 7.42676 9.77495C7.12376 10.2319 6.69376 10.587 6.13876 10.839C5.58776 11.086 4.94376 11.21 4.20676 11.21ZM11.4967 11.21C10.9268 11.21 10.4488 11.1069 10.0618 10.9019C9.67875 10.6969 9.39176 10.4239 9.20076 10.0829C9.00876 9.74195 8.91376 9.37096 8.91376 8.96996C8.91376 8.55896 8.99475 8.20895 9.15875 7.91995C9.32675 7.62595 9.55275 7.38596 9.83775 7.19896C10.1268 7.01196 10.4608 6.86996 10.8388 6.77196C11.2208 6.67896 11.6438 6.59695 12.1058 6.52695C12.5718 6.45195 13.0267 6.38895 13.4707 6.33795C13.9187 6.28195 14.3108 6.22796 14.6468 6.17696L14.2828 6.40096C14.2968 5.65396 14.1518 5.10096 13.8488 4.74196C13.5448 4.38296 13.0178 4.20296 12.2668 4.20296C11.7488 4.20296 11.3098 4.31995 10.9508 4.55295C10.5958 4.78595 10.3458 5.15495 10.2018 5.65895L9.20076 5.36496C9.37276 4.68796 9.72076 4.16295 10.2438 3.78995C10.7658 3.41695 11.4448 3.22995 12.2808 3.22995C12.9708 3.22995 13.5568 3.36095 14.0378 3.62195C14.5227 3.87895 14.8658 4.25196 15.0668 4.74196C15.1598 4.96096 15.2207 5.20596 15.2487 5.47696C15.2767 5.74796 15.2908 6.02295 15.2908 6.30295V11H14.3737V9.10295L14.6398 9.21495C14.3828 9.86395 13.9837 10.358 13.4427 10.699C12.9007 11.04 12.2527 11.21 11.4967 11.21ZM11.6158 10.321C12.0958 10.321 12.5158 10.235 12.8758 10.062C13.2348 9.88895 13.5238 9.65395 13.7438 9.35495C13.9628 9.05195 14.1048 8.71095 14.1708 8.33295C14.2268 8.08995 14.2567 7.82396 14.2617 7.53496C14.2657 7.24096 14.2688 7.02195 14.2688 6.87695L14.6608 7.07996C14.3108 7.12696 13.9298 7.17296 13.5198 7.21996C13.1138 7.26696 12.7118 7.31995 12.3158 7.38095C11.9237 7.44195 11.5688 7.51396 11.2518 7.59796C11.0368 7.65896 10.8288 7.74495 10.6288 7.85695C10.4278 7.96395 10.2618 8.10895 10.1318 8.29095C10.0058 8.47295 9.94275 8.69896 9.94275 8.96996C9.94275 9.18896 9.99576 9.40195 10.1038 9.60695C10.2158 9.81195 10.3928 9.98295 10.6358 10.118C10.8828 10.253 11.2098 10.321 11.6158 10.321ZM16.5527 12.6799V10.118C16.9818 10.118 17.2898 9.97996 17.4768 9.70496C17.6628 9.42496 17.8148 8.97895 17.9318 8.36795C18.0108 7.97095 18.0758 7.54396 18.1278 7.08696C18.1788 6.62996 18.2228 6.10695 18.2608 5.51895C18.2978 4.92595 18.3328 4.23296 18.3658 3.43996H23.3638V10.118H24.0918V12.6799H23.0978V11H17.5397V12.6799H16.5527ZM18.2958 10.118H22.3418V4.32196H19.3177C19.3037 4.67696 19.2828 5.05196 19.2548 5.44896C19.2308 5.84596 19.2008 6.24196 19.1638 6.63896C19.1308 7.03596 19.0908 7.40896 19.0448 7.75896C19.0028 8.10396 18.9508 8.40796 18.8908 8.66896C18.8208 9.00496 18.7438 9.29195 18.6598 9.52995C18.5798 9.76795 18.4588 9.96395 18.2958 10.118ZM27.6568 11.21C27.0868 11.21 26.6088 11.1069 26.2218 10.9019C25.8388 10.6969 25.5517 10.4239 25.3607 10.0829C25.1687 9.74195 25.0738 9.37096 25.0738 8.96996C25.0738 8.55896 25.1548 8.20895 25.3188 7.91995C25.4868 7.62595 25.7128 7.38596 25.9978 7.19896C26.2868 7.01196 26.6207 6.86996 26.9987 6.77196C27.3807 6.67896 27.8038 6.59695 28.2658 6.52695C28.7318 6.45195 29.1868 6.38895 29.6308 6.33795C30.0788 6.28195 30.4708 6.22796 30.8068 6.17696L30.4427 6.40096C30.4567 5.65396 30.3118 5.10096 30.0088 4.74196C29.7048 4.38296 29.1778 4.20296 28.4268 4.20296C27.9088 4.20296 27.4697 4.31995 27.1107 4.55295C26.7557 4.78595 26.5058 5.15495 26.3618 5.65895L25.3607 5.36496C25.5327 4.68796 25.8808 4.16295 26.4038 3.78995C26.9258 3.41695 27.6047 3.22995 28.4408 3.22995C29.1308 3.22995 29.7168 3.36095 30.1978 3.62195C30.6828 3.87895 31.0257 4.25196 31.2267 4.74196C31.3197 4.96096 31.3808 5.20596 31.4088 5.47696C31.4368 5.74796 31.4507 6.02295 31.4507 6.30295V11H30.5338V9.10295L30.7997 9.21495C30.5427 9.86395 30.1438 10.358 29.6028 10.699C29.0608 11.04 28.4128 11.21 27.6568 11.21ZM27.7758 10.321C28.2558 10.321 28.6758 10.235 29.0358 10.062C29.3948 9.88895 29.6838 9.65395 29.9038 9.35495C30.1228 9.05195 30.2647 8.71095 30.3307 8.33295C30.3867 8.08995 30.4168 7.82396 30.4218 7.53496C30.4258 7.24096 30.4287 7.02195 30.4287 6.87695L30.8208 7.07996C30.4708 7.12696 30.0897 7.17296 29.6797 7.21996C29.2737 7.26696 28.8718 7.31995 28.4758 7.38095C28.0838 7.44195 27.7288 7.51396 27.4118 7.59796C27.1968 7.65896 26.9888 7.74495 26.7888 7.85695C26.5878 7.96395 26.4218 8.10895 26.2918 8.29095C26.1658 8.47295 26.1028 8.69896 26.1028 8.96996C26.1028 9.18896 26.1558 9.40195 26.2638 9.60695C26.3758 9.81195 26.5528 9.98295 26.7958 10.118C27.0428 10.253 27.3698 10.321 27.7758 10.321ZM37.8997 11V8.18596C37.6478 8.31196 37.3377 8.42195 36.9688 8.51495C36.5998 8.60795 36.2037 8.65495 35.7787 8.65495C35.0137 8.65495 34.3927 8.48495 33.9167 8.14395C33.4407 7.80295 33.1307 7.31096 32.9857 6.66696C32.9387 6.47596 32.9068 6.27295 32.8878 6.05795C32.8738 5.84295 32.8647 5.64996 32.8597 5.47696C32.8547 5.30396 32.8528 5.18096 32.8528 5.10596V3.43996H33.8888V5.10596C33.8888 5.25996 33.8938 5.43495 33.9028 5.63095C33.9118 5.82695 33.9328 6.01796 33.9658 6.20496C34.0588 6.71396 34.2688 7.09895 34.5958 7.35995C34.9268 7.62095 35.3918 7.75195 35.9888 7.75195C36.3618 7.75195 36.7147 7.70495 37.0457 7.61195C37.3817 7.51395 37.6667 7.38296 37.8997 7.21996V3.43996H38.9287V11H37.8997ZM43.0508 11.21C42.4818 11.21 42.0038 11.1069 41.6158 10.9019C41.2338 10.6969 40.9468 10.4239 40.7548 10.0829C40.5638 9.74195 40.4677 9.37096 40.4677 8.96996C40.4677 8.55896 40.5498 8.20895 40.7128 7.91995C40.8808 7.62595 41.1078 7.38596 41.3918 7.19896C41.6818 7.01196 42.0148 6.86996 42.3928 6.77196C42.7758 6.67896 43.1978 6.59695 43.6598 6.52695C44.1268 6.45195 44.5817 6.38895 45.0247 6.33795C45.4728 6.28195 45.8647 6.22796 46.2007 6.17696L45.8368 6.40096C45.8508 5.65396 45.7068 5.10096 45.4028 4.74196C45.0998 4.38296 44.5728 4.20296 43.8208 4.20296C43.3028 4.20296 42.8648 4.31995 42.5048 4.55295C42.1508 4.78595 41.9008 5.15495 41.7558 5.65895L40.7548 5.36496C40.9278 4.68796 41.2758 4.16295 41.7978 3.78995C42.3208 3.41695 42.9997 3.22995 43.8347 3.22995C44.5257 3.22995 45.1118 3.36095 45.5918 3.62195C46.0778 3.87895 46.4208 4.25196 46.6208 4.74196C46.7148 4.96096 46.7748 5.20596 46.8028 5.47696C46.8308 5.74796 46.8448 6.02295 46.8448 6.30295V11H45.9278V9.10295L46.1938 9.21495C45.9378 9.86395 45.5388 10.358 44.9968 10.699C44.4558 11.04 43.8068 11.21 43.0508 11.21ZM43.1698 10.321C43.6508 10.321 44.0707 10.235 44.4297 10.062C44.7897 9.88895 45.0788 9.65395 45.2978 9.35495C45.5178 9.05195 45.6598 8.71095 45.7248 8.33295C45.7808 8.08995 45.8118 7.82396 45.8158 7.53496C45.8208 7.24096 45.8228 7.02195 45.8228 6.87695L46.2148 7.07996C45.8648 7.12696 45.4848 7.17296 45.0738 7.21996C44.6678 7.26696 44.2668 7.31995 43.8698 7.38095C43.4778 7.44195 43.1238 7.51396 42.8058 7.59796C42.5918 7.65896 42.3838 7.74495 42.1828 7.85695C41.9828 7.96395 41.8168 8.10895 41.6858 8.29095C41.5598 8.47295 41.4968 8.69896 41.4968 8.96996C41.4968 9.18896 41.5507 9.40195 41.6577 9.60695C41.7697 9.81195 41.9478 9.98295 42.1898 10.118C42.4378 10.253 42.7638 10.321 43.1698 10.321ZM54.6268 11.21C53.8758 11.21 53.2338 11.04 52.7018 10.699C52.1698 10.358 51.7617 9.88696 51.4767 9.28496C51.1927 8.68296 51.0497 7.99195 51.0497 7.21295C51.0497 6.41995 51.1948 5.72395 51.4838 5.12695C51.7738 4.52995 52.1838 4.06495 52.7158 3.73395C53.2528 3.39795 53.8898 3.22995 54.6268 3.22995C55.3828 3.22995 56.0267 3.39995 56.5587 3.74095C57.0957 4.07695 57.5038 4.54595 57.7838 5.14795C58.0688 5.74495 58.2108 6.43395 58.2108 7.21295C58.2108 8.00595 58.0688 8.70395 57.7838 9.30595C57.4998 9.90295 57.0888 10.3699 56.5518 10.7059C56.0158 11.0419 55.3738 11.21 54.6268 11.21ZM54.6268 10.223C55.4668 10.223 56.0927 9.94495 56.5027 9.38995C56.9137 8.82995 57.1187 8.10395 57.1187 7.21295C57.1187 6.29795 56.9118 5.56996 56.4958 5.02896C56.0858 4.48796 55.4628 4.21695 54.6268 4.21695C54.0628 4.21695 53.5957 4.34496 53.2267 4.60196C52.8627 4.85396 52.5897 5.20595 52.4077 5.65895C52.2307 6.10695 52.1418 6.62495 52.1418 7.21295C52.1418 8.12295 52.3518 8.85296 52.7718 9.40396C53.1918 9.94996 53.8108 10.223 54.6268 10.223ZM61.6288 11V4.39195H58.9478V3.43996H65.3387V4.39195H62.6577V11H61.6288ZM69.4688 11L69.4758 3.43996H70.5117V7.07996L73.8857 3.43996H75.2578L71.7158 7.21996L75.7198 11H74.2217L70.5117 7.35995V11H69.4688ZM79.4417 11.21C78.6897 11.21 78.0488 11.04 77.5168 10.699C76.9848 10.358 76.5757 9.88696 76.2917 9.28496C76.0067 8.68296 75.8647 7.99195 75.8647 7.21295C75.8647 6.41995 76.0088 5.72395 76.2988 5.12695C76.5878 4.52995 76.9988 4.06495 77.5308 3.73395C78.0668 3.39795 78.7037 3.22995 79.4417 3.22995C80.1977 3.22995 80.8418 3.39995 81.3737 3.74095C81.9098 4.07695 82.3188 4.54595 82.5988 5.14795C82.8828 5.74495 83.0258 6.43395 83.0258 7.21295C83.0258 8.00595 82.8828 8.70395 82.5988 9.30595C82.3138 9.90295 81.9028 10.3699 81.3668 10.7059C80.8298 11.0419 80.1877 11.21 79.4417 11.21ZM79.4417 10.223C80.2817 10.223 80.9067 9.94495 81.3177 9.38995C81.7278 8.82995 81.9337 8.10395 81.9337 7.21295C81.9337 6.29795 81.7258 5.56996 81.3108 5.02896C80.8998 4.48796 80.2767 4.21695 79.4417 4.21695C78.8767 4.21695 78.4097 4.34496 78.0417 4.60196C77.6777 4.85396 77.4047 5.20595 77.2227 5.65895C77.0447 6.10695 76.9568 6.62495 76.9568 7.21295C76.9568 8.12295 77.1668 8.85296 77.5868 9.40396C78.0068 9.94996 78.6247 10.223 79.4417 10.223ZM84.5627 11V3.43996H85.4798L88.4268 9.62796L91.3808 3.43996H92.2907V11H91.2968V5.63795L88.7558 11H88.1048L85.5638 5.63795V11H84.5627ZM94.2428 11V3.43996H100.256V11H99.2267V4.42696H95.2718V11H94.2428ZM104.383 11.21C103.814 11.21 103.336 11.1069 102.948 10.9019C102.566 10.6969 102.279 10.4239 102.087 10.0829C101.896 9.74195 101.8 9.37096 101.8 8.96996C101.8 8.55896 101.882 8.20895 102.045 7.91995C102.213 7.62595 102.44 7.38596 102.724 7.19896C103.014 7.01196 103.347 6.86996 103.725 6.77196C104.108 6.67896 104.53 6.59695 104.992 6.52695C105.459 6.45195 105.914 6.38895 106.357 6.33795C106.805 6.28195 107.197 6.22796 107.533 6.17696L107.169 6.40096C107.183 5.65396 107.039 5.10096 106.735 4.74196C106.432 4.38296 105.905 4.20296 105.153 4.20296C104.635 4.20296 104.197 4.31995 103.837 4.55295C103.483 4.78595 103.233 5.15495 103.088 5.65895L102.087 5.36496C102.26 4.68796 102.608 4.16295 103.13 3.78995C103.653 3.41695 104.332 3.22995 105.167 3.22995C105.858 3.22995 106.444 3.36095 106.924 3.62195C107.41 3.87895 107.753 4.25196 107.953 4.74196C108.047 4.96096 108.107 5.20596 108.135 5.47696C108.163 5.74796 108.177 6.02295 108.177 6.30295V11H107.26V9.10295L107.526 9.21495C107.27 9.86395 106.871 10.358 106.329 10.699C105.788 11.04 105.139 11.21 104.383 11.21ZM104.502 10.321C104.983 10.321 105.403 10.235 105.762 10.062C106.122 9.88895 106.411 9.65395 106.63 9.35495C106.85 9.05195 106.992 8.71095 107.057 8.33295C107.113 8.08995 107.144 7.82396 107.148 7.53496C107.153 7.24096 107.155 7.02195 107.155 6.87695L107.547 7.07996C107.197 7.12696 106.817 7.17296 106.406 7.21996C106 7.26696 105.599 7.31995 105.202 7.38095C104.81 7.44195 104.456 7.51396 104.138 7.59796C103.924 7.65896 103.716 7.74495 103.515 7.85695C103.315 7.96395 103.149 8.10895 103.018 8.29095C102.892 8.47295 102.829 8.69896 102.829 8.96996C102.829 9.18896 102.883 9.40195 102.99 9.60695C103.102 9.81195 103.28 9.98295 103.522 10.118C103.77 10.253 104.096 10.321 104.502 10.321ZM109.993 11V3.43996H111.022V6.72296H115.285V3.43996H116.314V11H115.285V7.70996H111.022V11H109.993ZM118.467 11V9.80295H119.664V11H118.467ZM122.022 11V9.80295H123.219V11H122.022ZM125.576 11V9.80295H126.773V11H125.576Z" fill="#FF784F"/>
</svg>
