<svg width="41" height="32" viewBox="0 0 41 32" fill="none" xmlns="http://www.w3.org/2000/svg">
<path d="M34.288 5.79698e-06H5.849C3.545 -0.0037942 1.674 1.8611 1.67 4.1653C1.67 4.3528 1.682 4.5401 1.707 4.7259C1.766 5.184 2.186 5.5073 2.644 5.448C2.756 5.4336 2.86301 5.3968 2.96001 5.3398C3.32901 5.1251 3.74899 5.01411 4.17599 5.01861H10.132C11.206 5.02161 12.161 5.7051 12.51 6.7215L12.653 7.17991C13.228 8.88361 14.824 10.0322 16.622 10.0371H35.961C36.399 10.0375 36.83 10.1528 37.21 10.3717C37.339 10.4466 37.485 10.4858 37.633 10.4855C38.095 10.4855 38.47 10.1109 38.47 9.64901V4.1821C38.47 1.8724 36.597 5.79698e-06 34.288 5.79698e-06Z" fill="#D94C21"/>
<path d="M38.063 8.93126C37.426 8.56046 36.703 8.36536 35.966 8.36586H16.628C15.553 8.36286 14.599 7.67926 14.249 6.66286L14.107 6.20456C13.532 4.50076 11.936 3.35216 10.138 3.34736H4.18201C3.46301 3.34036 2.75599 3.52696 2.13499 3.88766C0.815995 4.62546 0 6.01856 0 7.52946V27.604C0 29.914 1.87201 31.786 4.18201 31.786H35.966C38.276 31.786 40.149 29.914 40.149 27.604V12.5481C40.154 11.0552 39.357 9.67446 38.063 8.93126Z" fill="#FF784F"/>
</svg>
