<svg width="41" height="32" viewBox="0 0 41 32" fill="none" xmlns="http://www.w3.org/2000/svg">
<path d="M34.288 6.42232e-06H5.849C3.545 -0.00399358 1.674 1.861 1.67 4.165C1.67 4.353 1.682 4.54 1.707 4.726C1.766 5.184 2.186 5.507 2.644 5.448C2.756 5.434 2.86301 5.397 2.96001 5.34C3.32901 5.125 3.74899 5.014 4.17599 5.019H10.132C11.206 5.022 12.161 5.70501 12.51 6.72201L12.653 7.18C13.228 8.884 14.824 10.032 16.622 10.037H35.961C36.399 10.037 36.83 10.153 37.21 10.372C37.339 10.447 37.485 10.486 37.633 10.485C38.095 10.485 38.47 10.111 38.47 9.64901V4.18201C38.47 1.87201 36.597 6.42232e-06 34.288 6.42232e-06Z" fill="#039612"/>
<path d="M38.063 8.93099C37.426 8.55999 36.703 8.36499 35.966 8.36599H16.628C15.553 8.36299 14.599 7.67899 14.249 6.66299L14.107 6.20499C13.532 4.50099 11.936 3.35199 10.138 3.34699H4.18201C3.46301 3.33999 2.75599 3.52699 2.13499 3.88799C0.815995 4.62599 0 6.019 0 7.529V27.604C0 29.914 1.87201 31.786 4.18201 31.786H35.966C38.276 31.786 40.149 29.914 40.149 27.604V12.548C40.154 11.055 39.357 9.67399 38.063 8.93099Z" fill="#2BC33A"/>
</svg>
