<svg width="92" height="9" viewBox="0 0 92 9" fill="none" xmlns="http://www.w3.org/2000/svg">
<path d="M0.700012 8.00003V0.800034H2.88501C2.96201 0.800034 3.09199 0.802023 3.27499 0.805023C3.46199 0.808023 3.64 0.822032 3.81 0.845032C4.357 0.922032 4.81299 1.12503 5.17999 1.45503C5.54699 1.78503 5.822 2.20503 6.005 2.71503C6.188 3.22503 6.28 3.78702 6.28 4.40002C6.28 5.01302 6.188 5.57504 6.005 6.08504C5.822 6.59504 5.54699 7.01503 5.17999 7.34503C4.81299 7.67503 4.357 7.87803 3.81 7.95503C3.643 7.97503 3.46499 7.98803 3.27499 7.99503C3.08499 7.99803 2.95501 8.00003 2.88501 8.00003H0.700012ZM1.45999 7.29503H2.88501C3.02201 7.29503 3.16801 7.29203 3.32501 7.28503C3.48501 7.27503 3.62199 7.25803 3.73499 7.23503C4.15499 7.16203 4.493 6.99204 4.75 6.72504C5.01 6.45804 5.20001 6.12504 5.32001 5.72504C5.44001 5.32204 5.5 4.88002 5.5 4.40002C5.5 3.91702 5.44001 3.47304 5.32001 3.07004C5.20001 2.66704 5.01 2.33304 4.75 2.07004C4.49 1.80704 4.15199 1.63803 3.73499 1.56503C3.62199 1.54203 3.48301 1.52703 3.32001 1.52003C3.16001 1.51003 3.01501 1.50504 2.88501 1.50504H1.45999V7.29503ZM9.70401 8.15002C9.17701 8.15002 8.72001 8.03303 8.33401 7.80003C7.95002 7.56703 7.652 7.23803 7.439 6.81503C7.225 6.39203 7.11899 5.89503 7.11899 5.32503C7.11899 4.73503 7.22399 4.22503 7.43399 3.79503C7.64399 3.36503 7.939 3.03303 8.319 2.80003C8.702 2.56703 9.15401 2.45003 9.67401 2.45003C10.207 2.45003 10.662 2.57304 11.039 2.82004C11.415 3.06304 11.7 3.41303 11.894 3.87003C12.087 4.32703 12.175 4.87204 12.159 5.50504H11.409V5.24503C11.395 4.54503 11.244 4.01703 10.954 3.66003C10.667 3.30303 10.247 3.12503 9.694 3.12503C9.114 3.12503 8.66901 3.31303 8.35901 3.69003C8.05201 4.06703 7.89899 4.60303 7.89899 5.30003C7.89899 5.98003 8.05201 6.50803 8.35901 6.88503C8.66901 7.25803 9.10701 7.44504 9.67401 7.44504C10.06 7.44504 10.397 7.35702 10.684 7.18002C10.974 7.00002 11.202 6.74203 11.369 6.40503L12.054 6.67003C11.84 7.14003 11.525 7.50503 11.109 7.76503C10.695 8.02203 10.227 8.15002 9.70401 8.15002ZM7.63901 5.50504V4.89003H11.764V5.50504H7.63901ZM14.716 8.15002C14.309 8.15002 13.967 8.07702 13.691 7.93002C13.417 7.78302 13.212 7.58803 13.076 7.34503C12.939 7.10203 12.871 6.83703 12.871 6.55003C12.871 6.25703 12.929 6.00703 13.046 5.80003C13.166 5.59003 13.327 5.41803 13.531 5.28503C13.737 5.15203 13.976 5.05003 14.246 4.98003C14.519 4.91303 14.821 4.85502 15.151 4.80502C15.484 4.75202 15.809 4.70703 16.126 4.67003C16.446 4.63003 16.726 4.59202 16.966 4.55502L16.706 4.71503C16.716 4.18203 16.612 3.78703 16.396 3.53003C16.179 3.27303 15.802 3.14503 15.266 3.14503C14.896 3.14503 14.582 3.22803 14.326 3.39503C14.072 3.56203 13.894 3.82503 13.791 4.18503L13.076 3.97504C13.199 3.49204 13.447 3.11704 13.821 2.85004C14.194 2.58304 14.679 2.45003 15.276 2.45003C15.769 2.45003 16.187 2.54303 16.531 2.73003C16.877 2.91303 17.122 3.18003 17.266 3.53003C17.332 3.68703 17.376 3.86202 17.396 4.05502C17.416 4.24802 17.426 4.44503 17.426 4.64503V8.00003H16.771V6.64503L16.961 6.72504C16.777 7.18804 16.492 7.54203 16.106 7.78503C15.719 8.02803 15.256 8.15002 14.716 8.15002ZM14.801 7.51503C15.144 7.51503 15.444 7.45303 15.701 7.33003C15.957 7.20703 16.164 7.03803 16.321 6.82503C16.477 6.60803 16.579 6.36503 16.626 6.09503C16.666 5.92203 16.687 5.73202 16.691 5.52502C16.694 5.31502 16.696 5.15802 16.696 5.05502L16.976 5.20003C16.726 5.23303 16.454 5.26703 16.161 5.30003C15.871 5.33303 15.584 5.37202 15.301 5.41502C15.021 5.45802 14.767 5.51004 14.541 5.57004C14.387 5.61304 14.239 5.67504 14.096 5.75504C13.952 5.83204 13.834 5.93503 13.741 6.06503C13.651 6.19503 13.606 6.35703 13.606 6.55003C13.606 6.70703 13.644 6.85804 13.721 7.00504C13.801 7.15204 13.927 7.27303 14.101 7.37003C14.277 7.46703 14.511 7.51503 14.801 7.51503ZM20.822 8.15002C20.319 8.15002 19.889 8.02502 19.532 7.77502C19.176 7.52202 18.902 7.18003 18.712 6.75003C18.522 6.32003 18.427 5.83503 18.427 5.29503C18.427 4.75803 18.521 4.27503 18.707 3.84503C18.897 3.41503 19.169 3.07503 19.522 2.82503C19.876 2.57503 20.299 2.45003 20.792 2.45003C21.299 2.45003 21.726 2.57304 22.072 2.82004C22.419 3.06704 22.681 3.40504 22.857 3.83504C23.037 4.26204 23.127 4.74803 23.127 5.29503C23.127 5.83203 23.039 6.31703 22.862 6.75003C22.686 7.18003 22.426 7.52202 22.082 7.77502C21.739 8.02502 21.319 8.15002 20.822 8.15002ZM20.897 7.46503C21.281 7.46503 21.597 7.37203 21.847 7.18503C22.097 6.99803 22.284 6.74202 22.407 6.41502C22.531 6.08502 22.592 5.71203 22.592 5.29503C22.592 4.87203 22.531 4.49803 22.407 4.17503C22.284 3.84803 22.097 3.59303 21.847 3.41003C21.601 3.22703 21.289 3.13503 20.912 3.13503C20.526 3.13503 20.206 3.23003 19.952 3.42003C19.699 3.61003 19.511 3.86804 19.387 4.19504C19.267 4.52204 19.207 4.88803 19.207 5.29503C19.207 5.70503 19.269 6.07503 19.392 6.40503C19.519 6.73203 19.707 6.99002 19.957 7.18002C20.207 7.37002 20.521 7.46503 20.897 7.46503ZM22.592 8.00003V3.93503H22.512V0.800034H23.252V8.00003H22.592ZM24.755 8.00003V0.650024H25.49V8.00003H24.755ZM27.089 1.57503V0.750031H27.824V1.57503H27.089ZM27.089 8.00003V2.60004H27.824V8.00003H27.089ZM33.223 8.00003V5.24503C33.223 4.94503 33.195 4.67003 33.138 4.42003C33.081 4.16703 32.99 3.94703 32.863 3.76003C32.74 3.57002 32.578 3.42304 32.378 3.32004C32.181 3.21704 31.941 3.16502 31.658 3.16502C31.398 3.16502 31.168 3.21003 30.968 3.30003C30.771 3.39003 30.605 3.52003 30.468 3.69003C30.335 3.85703 30.233 4.06003 30.163 4.30003C30.093 4.54003 30.058 4.81303 30.058 5.12003L29.538 5.00504C29.538 4.45204 29.635 3.98703 29.828 3.61003C30.021 3.23303 30.288 2.94804 30.628 2.75504C30.968 2.56204 31.358 2.46503 31.798 2.46503C32.121 2.46503 32.403 2.51504 32.643 2.61504C32.886 2.71504 33.091 2.85003 33.258 3.02003C33.428 3.19003 33.565 3.38503 33.668 3.60503C33.771 3.82203 33.846 4.05303 33.893 4.30003C33.94 4.54303 33.963 4.78703 33.963 5.03003V8.00003H33.223ZM29.318 8.00003V2.60004H29.983V3.93002H30.058V8.00003H29.318ZM37.516 8.15002C36.99 8.15002 36.533 8.03303 36.146 7.80003C35.763 7.56703 35.465 7.23803 35.251 6.81503C35.038 6.39203 34.931 5.89503 34.931 5.32503C34.931 4.73503 35.036 4.22503 35.246 3.79503C35.456 3.36503 35.751 3.03303 36.131 2.80003C36.515 2.56703 36.966 2.45003 37.486 2.45003C38.02 2.45003 38.475 2.57304 38.851 2.82004C39.228 3.06304 39.513 3.41303 39.706 3.87003C39.9 4.32703 39.988 4.87204 39.971 5.50504H39.221V5.24503C39.208 4.54503 39.056 4.01703 38.766 3.66003C38.48 3.30303 38.06 3.12503 37.506 3.12503C36.926 3.12503 36.481 3.31303 36.171 3.69003C35.865 4.06703 35.711 4.60303 35.711 5.30003C35.711 5.98003 35.865 6.50803 36.171 6.88503C36.481 7.25803 36.92 7.44504 37.486 7.44504C37.873 7.44504 38.21 7.35702 38.496 7.18002C38.786 7.00002 39.015 6.74203 39.181 6.40503L39.866 6.67003C39.653 7.14003 39.338 7.50503 38.921 7.76503C38.508 8.02203 38.04 8.15002 37.516 8.15002ZM35.451 5.50504V4.89003H39.576V5.50504H35.451ZM44.338 8.00003V1.62003L42.983 2.43503V1.61003L44.338 0.800034H45.083V8.00003H44.338ZM46.779 7.99503L46.784 7.32503L50.039 4.38503C50.319 4.13203 50.504 3.89202 50.594 3.66502C50.688 3.43502 50.734 3.19504 50.734 2.94504C50.734 2.64804 50.664 2.38003 50.524 2.14003C50.384 1.90003 50.196 1.71004 49.959 1.57004C49.723 1.42704 49.458 1.35503 49.164 1.35503C48.858 1.35503 48.584 1.42803 48.344 1.57503C48.104 1.72203 47.914 1.91503 47.774 2.15503C47.638 2.39503 47.571 2.65703 47.574 2.94003H46.824C46.824 2.50303 46.928 2.11203 47.134 1.76503C47.341 1.41803 47.621 1.14703 47.974 0.950027C48.328 0.750027 48.728 0.650024 49.174 0.650024C49.611 0.650024 50.003 0.753037 50.349 0.960037C50.699 1.16304 50.974 1.44002 51.174 1.79002C51.378 2.13702 51.479 2.52303 51.479 2.95003C51.479 3.25003 51.443 3.51503 51.369 3.74503C51.299 3.97203 51.188 4.18304 51.034 4.38004C50.884 4.57304 50.693 4.77303 50.459 4.98003L47.569 7.59003L47.454 7.29002H51.479V7.99503H46.779ZM52.822 8.00003V7.14503H53.677V8.00003H52.822ZM57.571 8.15002C57.128 8.15002 56.728 8.04703 56.371 7.84003C56.018 7.63303 55.738 7.35303 55.531 7.00003C55.325 6.64303 55.221 6.24303 55.221 5.80003V3.00003C55.221 2.55703 55.325 2.15802 55.531 1.80502C55.738 1.44802 56.018 1.16704 56.371 0.960037C56.728 0.753037 57.128 0.650024 57.571 0.650024C58.015 0.650024 58.413 0.753037 58.766 0.960037C59.123 1.16704 59.405 1.44802 59.611 1.80502C59.818 2.15802 59.921 2.55703 59.921 3.00003V5.80003C59.921 6.24303 59.818 6.64303 59.611 7.00003C59.405 7.35303 59.123 7.63303 58.766 7.84003C58.413 8.04703 58.015 8.15002 57.571 8.15002ZM57.571 7.44003C57.868 7.44003 58.138 7.36804 58.381 7.22504C58.625 7.07804 58.818 6.88303 58.961 6.64003C59.105 6.39703 59.176 6.12804 59.176 5.83504V2.96503C59.176 2.66803 59.105 2.39803 58.961 2.15503C58.818 1.91203 58.625 1.71803 58.381 1.57503C58.138 1.42803 57.868 1.35503 57.571 1.35503C57.275 1.35503 57.005 1.42803 56.761 1.57503C56.518 1.71803 56.325 1.91203 56.181 2.15503C56.038 2.39803 55.966 2.66803 55.966 2.96503V5.83504C55.966 6.12804 56.038 6.39703 56.181 6.64003C56.325 6.88303 56.518 7.07804 56.761 7.22504C57.005 7.36804 57.275 7.44003 57.571 7.44003ZM63.76 8.15002C63.31 8.15002 62.9 8.04203 62.53 7.82503C62.163 7.60503 61.87 7.30803 61.65 6.93503C61.433 6.55803 61.325 6.13502 61.325 5.66502V3.17003C61.325 2.68703 61.433 2.25704 61.65 1.88004C61.867 1.50004 62.162 1.20203 62.535 0.985031C62.912 0.765031 63.338 0.655029 63.815 0.655029C64.225 0.655029 64.605 0.745034 64.955 0.925034C65.308 1.10503 65.597 1.35702 65.82 1.68002L65.255 2.14503C65.102 1.90503 64.898 1.71304 64.645 1.57004C64.392 1.42704 64.115 1.35503 63.815 1.35503C63.478 1.35503 63.178 1.43704 62.915 1.60004C62.652 1.76304 62.445 1.97803 62.295 2.24503C62.145 2.50803 62.07 2.79503 62.07 3.10503V4.67503L61.885 4.46503C62.095 4.13503 62.37 3.86802 62.71 3.66502C63.053 3.46202 63.427 3.36003 63.83 3.36003C64.277 3.36003 64.678 3.46702 65.035 3.68002C65.392 3.89002 65.675 4.17503 65.885 4.53503C66.095 4.89503 66.2 5.29803 66.2 5.74503C66.2 6.18803 66.088 6.59203 65.865 6.95503C65.645 7.31803 65.35 7.60803 64.98 7.82503C64.613 8.04203 64.207 8.15002 63.76 8.15002ZM63.76 7.43503C64.073 7.43503 64.358 7.36004 64.615 7.21004C64.875 7.06004 65.08 6.85704 65.23 6.60004C65.383 6.34304 65.46 6.05803 65.46 5.74503C65.46 5.43203 65.383 5.14703 65.23 4.89003C65.08 4.63003 64.877 4.42502 64.62 4.27502C64.363 4.12202 64.078 4.04503 63.765 4.04503C63.452 4.04503 63.167 4.12202 62.91 4.27502C62.653 4.42502 62.448 4.63003 62.295 4.89003C62.145 5.14703 62.07 5.43203 62.07 5.74503C62.07 6.05503 62.145 6.33803 62.295 6.59503C62.445 6.85203 62.648 7.05704 62.905 7.21004C63.162 7.36004 63.447 7.43503 63.76 7.43503ZM67.666 8.00003V7.14503H68.521V8.00003H67.666ZM69.865 7.99503L69.87 7.32503L73.125 4.38503C73.405 4.13203 73.59 3.89202 73.68 3.66502C73.774 3.43502 73.82 3.19504 73.82 2.94504C73.82 2.64804 73.75 2.38003 73.61 2.14003C73.47 1.90003 73.282 1.71004 73.045 1.57004C72.809 1.42704 72.544 1.35503 72.25 1.35503C71.944 1.35503 71.67 1.42803 71.43 1.57503C71.19 1.72203 71 1.91503 70.86 2.15503C70.724 2.39503 70.657 2.65703 70.66 2.94003H69.91C69.91 2.50303 70.014 2.11203 70.22 1.76503C70.427 1.41803 70.707 1.14703 71.06 0.950027C71.414 0.750027 71.814 0.650024 72.26 0.650024C72.697 0.650024 73.089 0.753037 73.435 0.960037C73.785 1.16304 74.06 1.44002 74.26 1.79002C74.464 2.13702 74.565 2.52303 74.565 2.95003C74.565 3.25003 74.529 3.51503 74.455 3.74503C74.385 3.97203 74.274 4.18304 74.12 4.38004C73.97 4.57304 73.779 4.77303 73.545 4.98003L70.655 7.59003L70.54 7.29002H74.565V7.99503H69.865ZM78.118 8.15002C77.675 8.15002 77.275 8.04703 76.918 7.84003C76.565 7.63303 76.285 7.35303 76.078 7.00003C75.872 6.64303 75.768 6.24303 75.768 5.80003V3.00003C75.768 2.55703 75.872 2.15802 76.078 1.80502C76.285 1.44802 76.565 1.16704 76.918 0.960037C77.275 0.753037 77.675 0.650024 78.118 0.650024C78.562 0.650024 78.96 0.753037 79.313 0.960037C79.67 1.16704 79.952 1.44802 80.158 1.80502C80.365 2.15802 80.468 2.55703 80.468 3.00003V5.80003C80.468 6.24303 80.365 6.64303 80.158 7.00003C79.952 7.35303 79.67 7.63303 79.313 7.84003C78.96 8.04703 78.562 8.15002 78.118 8.15002ZM78.118 7.44003C78.415 7.44003 78.685 7.36804 78.928 7.22504C79.172 7.07804 79.365 6.88303 79.508 6.64003C79.652 6.39703 79.723 6.12804 79.723 5.83504V2.96503C79.723 2.66803 79.652 2.39803 79.508 2.15503C79.365 1.91203 79.172 1.71803 78.928 1.57503C78.685 1.42803 78.415 1.35503 78.118 1.35503C77.822 1.35503 77.552 1.42803 77.308 1.57503C77.065 1.71803 76.872 1.91203 76.728 2.15503C76.585 2.39803 76.513 2.66803 76.513 2.96503V5.83504C76.513 6.12804 76.585 6.39703 76.728 6.64003C76.872 6.88303 77.065 7.07804 77.308 7.22504C77.552 7.36804 77.822 7.44003 78.118 7.44003ZM81.672 7.99503L81.677 7.32503L84.932 4.38503C85.212 4.13203 85.397 3.89202 85.487 3.66502C85.58 3.43502 85.627 3.19504 85.627 2.94504C85.627 2.64804 85.557 2.38003 85.417 2.14003C85.277 1.90003 85.089 1.71004 84.852 1.57004C84.615 1.42704 84.35 1.35503 84.057 1.35503C83.75 1.35503 83.477 1.42803 83.237 1.57503C82.997 1.72203 82.807 1.91503 82.667 2.15503C82.53 2.39503 82.464 2.65703 82.467 2.94003H81.717C81.717 2.50303 81.82 2.11203 82.027 1.76503C82.234 1.41803 82.514 1.14703 82.867 0.950027C83.22 0.750027 83.62 0.650024 84.067 0.650024C84.504 0.650024 84.895 0.753037 85.242 0.960037C85.592 1.16304 85.867 1.44002 86.067 1.79002C86.27 2.13702 86.372 2.52303 86.372 2.95003C86.372 3.25003 86.335 3.51503 86.262 3.74503C86.192 3.97203 86.08 4.18304 85.927 4.38004C85.777 4.57304 85.585 4.77303 85.352 4.98003L82.462 7.59003L82.347 7.29002H86.372V7.99503H81.672ZM89.51 8.14503C89.153 8.14503 88.825 8.08203 88.525 7.95503C88.225 7.82803 87.967 7.64802 87.75 7.41502C87.533 7.17802 87.375 6.89704 87.275 6.57004L87.975 6.36003C88.095 6.71703 88.292 6.98703 88.565 7.17003C88.842 7.35303 89.153 7.44203 89.5 7.43503C89.82 7.42803 90.095 7.35703 90.325 7.22003C90.558 7.08303 90.737 6.89302 90.86 6.65002C90.983 6.40702 91.045 6.12502 91.045 5.80502C91.045 5.31502 90.902 4.92203 90.615 4.62503C90.332 4.32503 89.957 4.17503 89.49 4.17503C89.36 4.17503 89.223 4.19303 89.08 4.23003C88.937 4.26303 88.803 4.31203 88.68 4.37503L88.31 3.79002L91.11 1.20503L91.23 1.50504H87.56V0.800034H91.72V1.51503L89.28 3.84503L89.27 3.55502C89.77 3.49202 90.21 3.54804 90.59 3.72504C90.97 3.90204 91.267 4.17203 91.48 4.53503C91.697 4.89503 91.805 5.31802 91.805 5.80502C91.805 6.26502 91.705 6.67202 91.505 7.02502C91.308 7.37502 91.037 7.65004 90.69 7.85004C90.343 8.04704 89.95 8.14503 89.51 8.14503Z" fill="#2BC33A"/>
</svg>
