<svg width="130" height="15" viewBox="0 0 130 15" fill="none" xmlns="http://www.w3.org/2000/svg">
<path d="M0.980011 11V0.919952H4.87201C4.97001 0.919952 5.07999 0.92496 5.20099 0.93396C5.32699 0.93896 5.45301 0.952952 5.57901 0.975952C6.10601 1.05495 6.55199 1.23996 6.91599 1.52896C7.28499 1.81396 7.56199 2.17295 7.74899 2.60695C7.93999 3.04095 8.03601 3.52195 8.03601 4.04895C8.03601 4.57195 7.93999 5.04995 7.74899 5.48395C7.55799 5.91795 7.278 6.27995 6.909 6.56895C6.545 6.85395 6.10201 7.03596 5.57901 7.11496C5.45301 7.13396 5.32699 7.14795 5.20099 7.15695C5.07999 7.16595 4.97001 7.17096 4.87201 7.17096H2.009V11H0.980011ZM2.009 6.19095H4.84399C4.92799 6.19095 5.026 6.18596 5.138 6.17696C5.25 6.16796 5.36001 6.15096 5.46701 6.12796C5.81201 6.05296 6.095 5.91096 6.314 5.70096C6.538 5.49096 6.704 5.24095 6.811 4.95195C6.923 4.66295 6.979 4.36195 6.979 4.04895C6.979 3.73595 6.923 3.43495 6.811 3.14595C6.704 2.85195 6.538 2.59995 6.314 2.38995C6.095 2.17995 5.81201 2.03795 5.46701 1.96295C5.36001 1.93995 5.25 1.92596 5.138 1.92096C5.026 1.91196 4.92799 1.90695 4.84399 1.90695H2.009V6.19095ZM11.592 11.21C11.023 11.21 10.545 11.1069 10.157 10.9019C9.77501 10.6969 9.48799 10.4239 9.29599 10.0829C9.10499 9.74195 9.009 9.37096 9.009 8.96996C9.009 8.55896 9.091 8.20895 9.254 7.91995C9.422 7.62595 9.64901 7.38596 9.93301 7.19896C10.223 7.01196 10.556 6.86996 10.934 6.77196C11.317 6.67896 11.739 6.59695 12.201 6.52695C12.668 6.45195 13.123 6.38895 13.566 6.33795C14.014 6.28195 14.406 6.22796 14.742 6.17696L14.378 6.40096C14.392 5.65396 14.248 5.10096 13.944 4.74196C13.641 4.38296 13.114 4.20296 12.362 4.20296C11.844 4.20296 11.406 4.31995 11.046 4.55295C10.692 4.78595 10.442 5.15495 10.297 5.65895L9.29599 5.36496C9.46899 4.68796 9.81699 4.16295 10.339 3.78995C10.862 3.41695 11.541 3.22995 12.376 3.22995C13.067 3.22995 13.653 3.36095 14.133 3.62195C14.619 3.87895 14.962 4.25196 15.162 4.74196C15.256 4.96096 15.316 5.20596 15.344 5.47696C15.372 5.74796 15.386 6.02295 15.386 6.30295V11H14.469V9.10295L14.735 9.21495C14.479 9.86395 14.08 10.358 13.538 10.699C12.997 11.04 12.348 11.21 11.592 11.21ZM11.711 10.321C12.192 10.321 12.612 10.235 12.971 10.062C13.331 9.88895 13.62 9.65395 13.839 9.35495C14.059 9.05195 14.201 8.71095 14.266 8.33295C14.322 8.08995 14.353 7.82396 14.357 7.53496C14.362 7.24096 14.364 7.02195 14.364 6.87695L14.756 7.07996C14.406 7.12696 14.026 7.17296 13.615 7.21996C13.209 7.26696 12.808 7.31995 12.411 7.38095C12.019 7.44195 11.665 7.51396 11.347 7.59796C11.133 7.65896 10.925 7.74495 10.724 7.85695C10.524 7.96395 10.358 8.10895 10.227 8.29095C10.101 8.47295 10.038 8.69896 10.038 8.96996C10.038 9.18896 10.092 9.40195 10.199 9.60695C10.311 9.81195 10.489 9.98295 10.731 10.118C10.979 10.253 11.305 10.321 11.711 10.321ZM19.932 11.21C19.171 11.21 18.506 11.044 17.937 10.713C17.372 10.377 16.926 9.91296 16.6 9.31996L17.426 8.79495C17.701 9.26195 18.044 9.61595 18.455 9.85895C18.865 10.1019 19.337 10.223 19.869 10.223C20.424 10.223 20.87 10.095 21.206 9.83795C21.542 9.58095 21.71 9.22896 21.71 8.78096C21.71 8.47296 21.637 8.22796 21.493 8.04596C21.353 7.86396 21.138 7.73296 20.849 7.65396C20.564 7.57496 20.207 7.53496 19.778 7.53496H18.882V6.65295H19.764C20.286 6.65295 20.706 6.55996 21.024 6.37296C21.346 6.18196 21.507 5.88296 21.507 5.47696C21.507 5.04796 21.346 4.72995 21.024 4.52495C20.706 4.31495 20.326 4.20996 19.883 4.20996C19.435 4.20996 19.01 4.30296 18.609 4.48996C18.212 4.67196 17.878 4.90796 17.608 5.19696L16.95 4.50395C17.328 4.08895 17.769 3.77396 18.273 3.55896C18.781 3.33996 19.344 3.22995 19.96 3.22995C20.445 3.22995 20.884 3.31595 21.276 3.48895C21.672 3.65695 21.985 3.90396 22.214 4.23096C22.447 4.55796 22.564 4.94995 22.564 5.40695C22.564 5.83595 22.459 6.20696 22.249 6.51996C22.043 6.83296 21.752 7.09195 21.374 7.29695L21.318 6.91196C21.644 6.97296 21.915 7.10295 22.13 7.30396C22.344 7.50496 22.503 7.74495 22.606 8.02495C22.708 8.30495 22.76 8.58995 22.76 8.87895C22.76 9.35995 22.634 9.77495 22.382 10.125C22.134 10.47 21.796 10.7389 21.367 10.9299C20.942 11.1169 20.464 11.21 19.932 11.21ZM27.699 11.21C27.004 11.21 26.416 11.035 25.935 10.685C25.455 10.33 25.091 9.85195 24.843 9.24995C24.596 8.64295 24.472 7.96395 24.472 7.21295C24.472 6.44795 24.596 5.76596 24.843 5.16896C25.095 4.56696 25.464 4.09296 25.949 3.74796C26.435 3.40296 27.032 3.22995 27.741 3.22995C28.432 3.22995 29.025 3.40496 29.519 3.75496C30.014 4.10496 30.392 4.58095 30.653 5.18295C30.919 5.78495 31.052 6.46195 31.052 7.21295C31.052 7.96895 30.919 8.64795 30.653 9.24995C30.387 9.85195 30.005 10.33 29.505 10.685C29.006 11.035 28.404 11.21 27.699 11.21ZM24.297 14.36V3.43996H25.221V9.13095H25.333V14.36H24.297ZM27.594 10.251C28.122 10.251 28.56 10.118 28.91 9.85196C29.26 9.58596 29.522 9.22395 29.694 8.76695C29.872 8.30495 29.96 7.78695 29.96 7.21295C29.96 6.64395 29.874 6.12996 29.701 5.67296C29.529 5.21596 29.265 4.85395 28.91 4.58795C28.56 4.32195 28.115 4.18895 27.573 4.18895C27.046 4.18895 26.607 4.31696 26.257 4.57396C25.912 4.83096 25.653 5.18796 25.48 5.64496C25.308 6.09796 25.221 6.61995 25.221 7.21295C25.221 7.79595 25.308 8.31896 25.48 8.78096C25.653 9.23796 25.914 9.59795 26.264 9.85895C26.614 10.1199 27.058 10.251 27.594 10.251ZM34.752 11.21C34.183 11.21 33.705 11.1069 33.317 10.9019C32.935 10.6969 32.648 10.4239 32.456 10.0829C32.265 9.74195 32.169 9.37096 32.169 8.96996C32.169 8.55896 32.251 8.20895 32.414 7.91995C32.582 7.62595 32.809 7.38596 33.093 7.19896C33.383 7.01196 33.716 6.86996 34.094 6.77196C34.477 6.67896 34.899 6.59695 35.361 6.52695C35.828 6.45195 36.283 6.38895 36.726 6.33795C37.174 6.28195 37.566 6.22796 37.902 6.17696L37.538 6.40096C37.552 5.65396 37.408 5.10096 37.104 4.74196C36.801 4.38296 36.274 4.20296 35.522 4.20296C35.004 4.20296 34.566 4.31995 34.206 4.55295C33.852 4.78595 33.602 5.15495 33.457 5.65895L32.456 5.36496C32.629 4.68796 32.977 4.16295 33.499 3.78995C34.022 3.41695 34.701 3.22995 35.536 3.22995C36.227 3.22995 36.813 3.36095 37.293 3.62195C37.779 3.87895 38.122 4.25196 38.322 4.74196C38.416 4.96096 38.476 5.20596 38.504 5.47696C38.532 5.74796 38.546 6.02295 38.546 6.30295V11H37.629V9.10295L37.895 9.21495C37.639 9.86395 37.24 10.358 36.698 10.699C36.157 11.04 35.508 11.21 34.752 11.21ZM34.871 10.321C35.352 10.321 35.772 10.235 36.131 10.062C36.491 9.88895 36.78 9.65395 36.999 9.35495C37.219 9.05195 37.361 8.71095 37.426 8.33295C37.482 8.08995 37.513 7.82396 37.517 7.53496C37.522 7.24096 37.524 7.02195 37.524 6.87695L37.916 7.07996C37.566 7.12696 37.186 7.17296 36.775 7.21996C36.369 7.26696 35.968 7.31995 35.571 7.38095C35.179 7.44195 34.825 7.51396 34.507 7.59796C34.293 7.65896 34.085 7.74495 33.884 7.85695C33.684 7.96395 33.518 8.10895 33.387 8.29095C33.261 8.47295 33.198 8.69896 33.198 8.96996C33.198 9.18896 33.252 9.40195 33.359 9.60695C33.471 9.81195 33.649 9.98295 33.891 10.118C34.139 10.253 34.465 10.321 34.871 10.321ZM43.4 11.2169C42.695 11.2119 42.091 11.058 41.587 10.755C41.083 10.452 40.691 9.99896 40.411 9.39696C40.135 8.79496 39.986 8.04396 39.963 7.14296C39.949 6.74596 39.958 6.31496 39.991 5.84796C40.023 5.37696 40.075 4.92895 40.145 4.50395C40.215 4.07895 40.299 3.73396 40.397 3.46796C40.518 3.12296 40.691 2.80095 40.915 2.50195C41.143 2.19895 41.407 1.95095 41.706 1.75995C41.995 1.56395 42.322 1.41195 42.686 1.30495C43.054 1.19295 43.437 1.10696 43.834 1.04596C44.235 0.984959 44.632 0.931949 45.024 0.884949C45.42 0.837949 45.787 0.779961 46.123 0.709961L46.235 1.64096C45.978 1.69196 45.675 1.73896 45.325 1.78096C44.975 1.82296 44.608 1.87395 44.226 1.93495C43.843 1.99095 43.477 2.06795 43.127 2.16595C42.777 2.26395 42.478 2.39195 42.231 2.55095C41.853 2.77995 41.561 3.12496 41.356 3.58696C41.155 4.04896 41.031 4.57895 40.985 5.17595C41.274 4.72295 41.657 4.38296 42.133 4.15396C42.613 3.92496 43.134 3.81096 43.694 3.81096C44.375 3.81096 44.961 3.96695 45.451 4.27995C45.945 4.59295 46.326 5.02696 46.592 5.58195C46.858 6.13695 46.991 6.77395 46.991 7.49295C46.991 8.24395 46.844 8.89996 46.55 9.45996C46.26 10.02 45.847 10.4539 45.311 10.7619C44.774 11.0649 44.137 11.2169 43.4 11.2169ZM43.477 10.2299C44.27 10.2299 44.872 9.98296 45.283 9.48796C45.698 8.99296 45.906 8.33496 45.906 7.51396C45.906 6.67396 45.691 6.01096 45.262 5.52596C44.837 5.04096 44.237 4.79796 43.463 4.79796C42.688 4.79796 42.093 5.04096 41.678 5.52596C41.262 6.01096 41.055 6.67396 41.055 7.51396C41.055 8.35396 41.262 9.01695 41.678 9.50195C42.093 9.98695 42.693 10.2299 43.477 10.2299ZM51.688 11.21C50.936 11.21 50.295 11.04 49.763 10.699C49.231 10.358 48.822 9.88696 48.538 9.28496C48.253 8.68296 48.111 7.99195 48.111 7.21295C48.111 6.41995 48.255 5.72395 48.545 5.12695C48.834 4.52995 49.245 4.06495 49.777 3.73395C50.313 3.39795 50.95 3.22995 51.688 3.22995C52.444 3.22995 53.088 3.39995 53.62 3.74095C54.156 4.07695 54.565 4.54595 54.845 5.14795C55.129 5.74495 55.272 6.43395 55.272 7.21295C55.272 8.00595 55.129 8.70395 54.845 9.30595C54.56 9.90295 54.149 10.3699 53.613 10.7059C53.076 11.0419 52.434 11.21 51.688 11.21ZM51.688 10.223C52.528 10.223 53.153 9.94495 53.564 9.38995C53.974 8.82995 54.18 8.10395 54.18 7.21295C54.18 6.29795 53.972 5.56996 53.557 5.02896C53.146 4.48796 52.523 4.21695 51.688 4.21695C51.123 4.21695 50.656 4.34496 50.288 4.60196C49.924 4.85396 49.651 5.20595 49.469 5.65895C49.291 6.10695 49.203 6.62495 49.203 7.21295C49.203 8.12295 49.413 8.85296 49.833 9.40396C50.253 9.94996 50.871 10.223 51.688 10.223ZM58.689 11V4.39195H56.008V3.43996H62.399V4.39195H59.718V11H58.689ZM65.61 11.21C65.04 11.21 64.562 11.1069 64.175 10.9019C63.792 10.6969 63.505 10.4239 63.314 10.0829C63.122 9.74195 63.027 9.37096 63.027 8.96996C63.027 8.55896 63.108 8.20895 63.272 7.91995C63.44 7.62595 63.666 7.38596 63.951 7.19896C64.24 7.01196 64.574 6.86996 64.952 6.77196C65.334 6.67896 65.757 6.59695 66.219 6.52695C66.685 6.45195 67.14 6.38895 67.584 6.33795C68.032 6.28195 68.424 6.22796 68.76 6.17696L68.396 6.40096C68.41 5.65396 68.265 5.10096 67.962 4.74196C67.658 4.38296 67.131 4.20296 66.38 4.20296C65.862 4.20296 65.423 4.31995 65.064 4.55295C64.709 4.78595 64.459 5.15495 64.315 5.65895L63.314 5.36496C63.486 4.68796 63.834 4.16295 64.357 3.78995C64.879 3.41695 65.558 3.22995 66.394 3.22995C67.084 3.22995 67.67 3.36095 68.151 3.62195C68.636 3.87895 68.979 4.25196 69.18 4.74196C69.273 4.96096 69.334 5.20596 69.362 5.47696C69.39 5.74796 69.404 6.02295 69.404 6.30295V11H68.487V9.10295L68.753 9.21495C68.496 9.86395 68.097 10.358 67.556 10.699C67.014 11.04 66.366 11.21 65.61 11.21ZM65.729 10.321C66.209 10.321 66.629 10.235 66.989 10.062C67.348 9.88895 67.637 9.65395 67.857 9.35495C68.076 9.05195 68.218 8.71095 68.284 8.33295C68.34 8.08995 68.37 7.82396 68.375 7.53496C68.379 7.24096 68.382 7.02195 68.382 6.87695L68.774 7.07996C68.424 7.12696 68.043 7.17296 67.633 7.21996C67.227 7.26696 66.825 7.31995 66.429 7.38095C66.037 7.44195 65.682 7.51396 65.365 7.59796C65.15 7.65896 64.942 7.74495 64.742 7.85695C64.541 7.96395 64.375 8.10895 64.245 8.29095C64.119 8.47295 64.056 8.69896 64.056 8.96996C64.056 9.18896 64.109 9.40195 64.217 9.60695C64.329 9.81195 64.506 9.98295 64.749 10.118C64.996 10.253 65.323 10.321 65.729 10.321ZM73.277 11V4.39195H70.596V3.43996H76.987V4.39195H74.306V11H73.277ZM78.329 11L78.315 3.43996H79.351V6.28896H81.122C81.341 6.28896 81.556 6.29395 81.766 6.30295C81.98 6.31195 82.169 6.33095 82.333 6.35895C82.706 6.42895 83.037 6.55295 83.327 6.72995C83.621 6.90695 83.849 7.15195 84.013 7.46495C84.181 7.77795 84.265 8.16996 84.265 8.64096C84.265 9.28996 84.097 9.80095 83.761 10.174C83.429 10.547 83.009 10.7899 82.501 10.9019C82.309 10.9439 82.102 10.9719 81.878 10.9859C81.654 10.9949 81.432 11 81.213 11H78.329ZM79.351 10.118H81.171C81.329 10.118 81.507 10.113 81.703 10.104C81.899 10.095 82.071 10.0689 82.221 10.0269C82.468 9.95695 82.692 9.81695 82.893 9.60695C83.098 9.39195 83.201 9.06996 83.201 8.64096C83.201 8.21596 83.103 7.89696 82.907 7.68196C82.711 7.46296 82.449 7.31796 82.123 7.24796C81.978 7.21496 81.822 7.19395 81.654 7.18495C81.486 7.17595 81.325 7.17096 81.171 7.17096H79.351V10.118ZM92.187 14.1499V11.147C91.45 11.264 90.778 11.184 90.171 10.909C89.564 10.629 89.081 10.1759 88.722 9.55095C88.363 8.92595 88.183 8.15096 88.183 7.22696C88.183 6.30296 88.363 5.52795 88.722 4.90295C89.081 4.27295 89.564 3.81795 90.171 3.53795C90.778 3.25795 91.45 3.17595 92.187 3.29295V0.975952H93.139V3.29295C93.876 3.17595 94.548 3.25795 95.155 3.53795C95.762 3.81795 96.245 4.27295 96.604 4.90295C96.963 5.52795 97.143 6.30296 97.143 7.22696C97.143 8.15096 96.963 8.92595 96.604 9.55095C96.245 10.1759 95.762 10.629 95.155 10.909C94.548 11.184 93.876 11.264 93.139 11.147V14.1499H92.187ZM92.187 10.188V4.25896C91.809 4.19396 91.445 4.20496 91.095 4.29396C90.745 4.37796 90.43 4.54395 90.15 4.79095C89.87 5.03395 89.648 5.35796 89.485 5.76396C89.326 6.16496 89.247 6.65296 89.247 7.22696C89.247 7.80096 89.329 8.29096 89.492 8.69696C89.655 9.09796 89.877 9.41995 90.157 9.66295C90.437 9.90595 90.752 10.069 91.102 10.153C91.452 10.237 91.814 10.249 92.187 10.188ZM93.139 10.188C93.512 10.249 93.874 10.237 94.224 10.153C94.574 10.069 94.889 9.90795 95.169 9.66995C95.449 9.42695 95.671 9.10495 95.834 8.70395C95.997 8.29795 96.079 7.80596 96.079 7.22696C96.079 6.64796 95.997 6.15796 95.834 5.75696C95.675 5.35096 95.456 5.02695 95.176 4.78395C94.896 4.54095 94.581 4.37796 94.231 4.29396C93.881 4.20496 93.517 4.19396 93.139 4.25896V10.188ZM99.484 14.36L100.947 10.391L100.968 11.567L97.657 3.43996H98.749L101.465 10.237H101.017L103.523 3.43996H104.573L100.513 14.36H99.484ZM105.782 11V3.43996H106.811V6.72296H111.074V3.43996H112.103V11H111.074V7.70996H106.811V11H105.782ZM114.053 11L114.06 3.43996H115.096V7.07996L118.47 3.43996H119.842L116.3 7.21996L120.304 11H118.806L115.096 7.35995V11H114.053ZM121.201 11V9.80295H122.398V11H121.201ZM124.756 11V9.80295H125.953V11H124.756ZM128.311 11V9.80295H129.508V11H128.311Z" fill="#2BC33A"/>
</svg>
