<svg width="4" height="18" viewBox="0 0 4 18" fill="none" xmlns="http://www.w3.org/2000/svg">
<path fill-rule="evenodd" clip-rule="evenodd" d="M3.405 1.703C3.405 2.643 2.643 3.405 1.703 3.405C0.762003 3.405 0 2.643 0 1.703C0 0.762003 0.762003 0 1.703 0C2.643 0 3.405 0.762003 3.405 1.703ZM3.405 8.513C3.405 9.453 2.643 10.215 1.703 10.215C0.762003 10.215 0 9.453 0 8.513C0 7.572 0.762003 6.81 1.703 6.81C2.643 6.81 3.405 7.572 3.405 8.513ZM1.703 17.026C2.643 17.026 3.405 16.263 3.405 15.323C3.405 14.383 2.643 13.62 1.703 13.62C0.762003 13.62 0 14.383 0 15.323C0 16.263 0.762003 17.026 1.703 17.026Z" fill="#2BC33A"/>
</svg>
