<svg width="94" height="9" viewBox="0 0 94 9" fill="none" xmlns="http://www.w3.org/2000/svg">
<path d="M0.699997 8.00003V0.800018H2.88499C2.96199 0.800018 3.09199 0.802023 3.27499 0.805023C3.46199 0.808023 3.64 0.822032 3.81 0.845032C4.357 0.922032 4.81299 1.12502 5.17999 1.45502C5.54699 1.78502 5.822 2.20503 6.005 2.71503C6.188 3.22503 6.28 3.78702 6.28 4.40002C6.28 5.01302 6.188 5.57502 6.005 6.08502C5.822 6.59502 5.54699 7.01503 5.17999 7.34503C4.81299 7.67503 4.357 7.87802 3.81 7.95502C3.643 7.97502 3.46499 7.98803 3.27499 7.99503C3.08499 7.99803 2.95499 8.00003 2.88499 8.00003H0.699997ZM1.46001 7.29504H2.88499C3.02199 7.29504 3.168 7.29203 3.325 7.28503C3.485 7.27503 3.622 7.25802 3.735 7.23502C4.155 7.16202 4.493 6.99204 4.75 6.72504C5.01 6.45804 5.20001 6.12504 5.32001 5.72504C5.44001 5.32204 5.5 4.88002 5.5 4.40002C5.5 3.91702 5.44001 3.47304 5.32001 3.07004C5.20001 2.66704 5.01 2.33304 4.75 2.07004C4.49 1.80704 4.152 1.63803 3.735 1.56503C3.622 1.54203 3.48301 1.52702 3.32001 1.52002C3.16001 1.51002 3.01499 1.50504 2.88499 1.50504H1.46001V7.29504ZM9.70399 8.15002C9.17699 8.15002 8.72 8.03302 8.334 7.80002C7.95 7.56702 7.652 7.23803 7.439 6.81503C7.225 6.39203 7.119 5.89504 7.119 5.32504C7.119 4.73504 7.22401 4.22504 7.43401 3.79504C7.64401 3.36504 7.939 3.03302 8.319 2.80002C8.702 2.56702 9.154 2.45004 9.674 2.45004C10.207 2.45004 10.662 2.57304 11.039 2.82004C11.415 3.06304 11.7 3.41303 11.894 3.87003C12.087 4.32703 12.175 4.87204 12.159 5.50504H11.409V5.24503C11.395 4.54503 11.244 4.01703 10.954 3.66003C10.667 3.30303 10.247 3.12503 9.694 3.12503C9.114 3.12503 8.66899 3.31303 8.35899 3.69003C8.05199 4.06703 7.899 4.60302 7.899 5.30002C7.899 5.98002 8.05199 6.50804 8.35899 6.88504C8.66899 7.25804 9.107 7.44504 9.674 7.44504C10.06 7.44504 10.397 7.35702 10.684 7.18002C10.974 7.00002 11.202 6.74203 11.369 6.40503L12.054 6.67004C11.84 7.14004 11.525 7.50504 11.109 7.76505C10.695 8.02205 10.227 8.15002 9.70399 8.15002ZM7.63901 5.50504V4.89005H11.764V5.50504H7.63901ZM14.716 8.15002C14.309 8.15002 13.967 8.07702 13.691 7.93002C13.417 7.78302 13.212 7.58803 13.076 7.34503C12.939 7.10203 12.871 6.83702 12.871 6.55002C12.871 6.25702 12.929 6.00702 13.046 5.80002C13.166 5.59002 13.327 5.41803 13.531 5.28503C13.737 5.15203 13.976 5.05004 14.246 4.98004C14.519 4.91304 14.821 4.85502 15.151 4.80502C15.484 4.75202 15.809 4.70704 16.126 4.67004C16.446 4.63004 16.726 4.59202 16.966 4.55502L16.706 4.71503C16.716 4.18203 16.612 3.78703 16.396 3.53003C16.179 3.27303 15.802 3.14502 15.266 3.14502C14.896 3.14502 14.582 3.22802 14.326 3.39502C14.072 3.56202 13.894 3.82503 13.791 4.18503L13.076 3.97504C13.199 3.49204 13.447 3.11704 13.821 2.85004C14.194 2.58304 14.679 2.45004 15.276 2.45004C15.769 2.45004 16.187 2.54304 16.531 2.73004C16.877 2.91304 17.122 3.18003 17.266 3.53003C17.332 3.68703 17.376 3.86202 17.396 4.05502C17.416 4.24802 17.426 4.44502 17.426 4.64502V8.00003H16.771V6.64502L16.961 6.72504C16.777 7.18804 16.492 7.54203 16.106 7.78503C15.719 8.02803 15.256 8.15002 14.716 8.15002ZM14.801 7.51505C15.144 7.51505 15.444 7.45302 15.701 7.33002C15.957 7.20702 16.164 7.03804 16.321 6.82504C16.477 6.60804 16.579 6.36503 16.626 6.09503C16.666 5.92203 16.687 5.73202 16.691 5.52502C16.694 5.31502 16.696 5.15802 16.696 5.05502L16.976 5.20004C16.726 5.23304 16.454 5.26702 16.161 5.30002C15.871 5.33302 15.584 5.37204 15.301 5.41504C15.021 5.45804 14.767 5.51004 14.541 5.57004C14.387 5.61304 14.239 5.67504 14.096 5.75504C13.952 5.83204 13.834 5.93503 13.741 6.06503C13.651 6.19503 13.606 6.35702 13.606 6.55002C13.606 6.70702 13.644 6.85804 13.721 7.00504C13.801 7.15204 13.927 7.27303 14.101 7.37003C14.277 7.46703 14.511 7.51505 14.801 7.51505ZM20.822 8.15002C20.319 8.15002 19.889 8.02502 19.532 7.77502C19.176 7.52202 18.902 7.18003 18.712 6.75003C18.522 6.32003 18.427 5.83504 18.427 5.29504C18.427 4.75804 18.521 4.27503 18.707 3.84503C18.897 3.41503 19.169 3.07504 19.522 2.82504C19.876 2.57504 20.299 2.45004 20.792 2.45004C21.299 2.45004 21.726 2.57304 22.072 2.82004C22.419 3.06704 22.681 3.40502 22.857 3.83502C23.037 4.26202 23.127 4.74804 23.127 5.29504C23.127 5.83204 23.039 6.31703 22.862 6.75003C22.686 7.18003 22.426 7.52202 22.082 7.77502C21.739 8.02502 21.319 8.15002 20.822 8.15002ZM20.897 7.46503C21.281 7.46503 21.597 7.37203 21.847 7.18503C22.097 6.99803 22.284 6.74204 22.407 6.41504C22.531 6.08504 22.592 5.71204 22.592 5.29504C22.592 4.87204 22.531 4.49802 22.407 4.17502C22.284 3.84802 22.097 3.59303 21.847 3.41003C21.601 3.22703 21.289 3.13504 20.912 3.13504C20.526 3.13504 20.206 3.23004 19.952 3.42004C19.699 3.61004 19.511 3.86804 19.387 4.19504C19.267 4.52204 19.207 4.88804 19.207 5.29504C19.207 5.70504 19.269 6.07503 19.392 6.40503C19.519 6.73203 19.707 6.99002 19.957 7.18002C20.207 7.37002 20.521 7.46503 20.897 7.46503ZM22.592 8.00003V3.93503H22.512V0.800018H23.252V8.00003H22.592ZM24.755 8.00003V0.650024H25.49V8.00003H24.755ZM27.089 1.57504V0.750031H27.824V1.57504H27.089ZM27.089 8.00003V2.60004H27.824V8.00003H27.089ZM33.223 8.00003V5.24503C33.223 4.94503 33.195 4.67004 33.138 4.42004C33.081 4.16704 32.99 3.94704 32.863 3.76004C32.74 3.57004 32.578 3.42304 32.378 3.32004C32.181 3.21704 31.941 3.16504 31.658 3.16504C31.398 3.16504 31.168 3.21002 30.968 3.30002C30.771 3.39002 30.605 3.52003 30.468 3.69003C30.335 3.85703 30.233 4.06002 30.163 4.30002C30.093 4.54002 30.058 4.81303 30.058 5.12003L29.538 5.00504C29.538 4.45204 29.635 3.98702 29.828 3.61002C30.021 3.23302 30.288 2.94804 30.628 2.75504C30.968 2.56204 31.358 2.46503 31.798 2.46503C32.121 2.46503 32.403 2.51502 32.643 2.61502C32.886 2.71502 33.091 2.85002 33.258 3.02002C33.428 3.19002 33.565 3.38504 33.668 3.60504C33.771 3.82204 33.846 4.05302 33.893 4.30002C33.94 4.54302 33.963 4.78703 33.963 5.03003V8.00003H33.223ZM29.318 8.00003V2.60004H29.983V3.93002H30.058V8.00003H29.318ZM37.516 8.15002C36.99 8.15002 36.533 8.03302 36.146 7.80002C35.763 7.56702 35.465 7.23803 35.251 6.81503C35.038 6.39203 34.931 5.89504 34.931 5.32504C34.931 4.73504 35.036 4.22504 35.246 3.79504C35.456 3.36504 35.751 3.03302 36.131 2.80002C36.515 2.56702 36.966 2.45004 37.486 2.45004C38.02 2.45004 38.475 2.57304 38.851 2.82004C39.228 3.06304 39.513 3.41303 39.706 3.87003C39.9 4.32703 39.988 4.87204 39.971 5.50504H39.221V5.24503C39.208 4.54503 39.056 4.01703 38.766 3.66003C38.48 3.30303 38.06 3.12503 37.506 3.12503C36.926 3.12503 36.481 3.31303 36.171 3.69003C35.865 4.06703 35.711 4.60302 35.711 5.30002C35.711 5.98002 35.865 6.50804 36.171 6.88504C36.481 7.25804 36.92 7.44504 37.486 7.44504C37.873 7.44504 38.21 7.35702 38.496 7.18002C38.786 7.00002 39.015 6.74203 39.181 6.40503L39.866 6.67004C39.653 7.14004 39.338 7.50504 38.921 7.76505C38.508 8.02205 38.04 8.15002 37.516 8.15002ZM35.451 5.50504V4.89005H39.576V5.50504H35.451ZM42.883 7.99503L42.888 7.32504L46.143 4.38504C46.423 4.13204 46.608 3.89204 46.698 3.66504C46.791 3.43504 46.838 3.19504 46.838 2.94504C46.838 2.64804 46.768 2.38005 46.628 2.14005C46.488 1.90005 46.299 1.71004 46.063 1.57004C45.826 1.42704 45.561 1.35504 45.268 1.35504C44.961 1.35504 44.688 1.42804 44.448 1.57504C44.208 1.72204 44.018 1.91503 43.878 2.15503C43.741 2.39503 43.674 2.65703 43.678 2.94003H42.928C42.928 2.50303 43.031 2.11205 43.238 1.76505C43.444 1.41805 43.724 1.14704 44.078 0.950043C44.431 0.750043 44.831 0.650024 45.278 0.650024C45.714 0.650024 46.106 0.753022 46.453 0.960022C46.803 1.16302 47.078 1.44004 47.278 1.79004C47.481 2.13704 47.583 2.52304 47.583 2.95004C47.583 3.25004 47.546 3.51503 47.473 3.74503C47.403 3.97203 47.291 4.18304 47.138 4.38004C46.988 4.57304 46.796 4.77304 46.563 4.98004L43.673 7.59003L43.558 7.29004H47.583V7.99503H42.883ZM51.156 0.655029C51.609 0.655029 52.019 0.765016 52.386 0.985016C52.756 1.20202 53.049 1.49803 53.266 1.87503C53.483 2.24803 53.591 2.66804 53.591 3.13504V5.63504C53.591 6.11504 53.483 6.54502 53.266 6.92502C53.049 7.30502 52.753 7.60504 52.376 7.82504C52.003 8.04204 51.578 8.15002 51.101 8.15002C50.691 8.15002 50.311 8.06004 49.961 7.88004C49.614 7.69704 49.328 7.44503 49.101 7.12503L49.661 6.66003C49.814 6.89703 50.018 7.08704 50.271 7.23004C50.528 7.37304 50.804 7.44504 51.101 7.44504C51.441 7.44504 51.741 7.36502 52.001 7.20502C52.264 7.04202 52.471 6.82803 52.621 6.56503C52.774 6.29803 52.851 6.01004 52.851 5.70004V4.13004L53.031 4.34003C52.824 4.67003 52.549 4.93705 52.206 5.14005C51.866 5.34305 51.493 5.44504 51.086 5.44504C50.643 5.44504 50.241 5.33803 49.881 5.12503C49.524 4.91203 49.241 4.62505 49.031 4.26505C48.824 3.90505 48.721 3.50303 48.721 3.06003C48.721 2.61703 48.831 2.21304 49.051 1.85004C49.271 1.48304 49.566 1.19304 49.936 0.980042C50.306 0.763042 50.713 0.655029 51.156 0.655029ZM51.156 1.36502C50.843 1.36502 50.558 1.44203 50.301 1.59503C50.044 1.74503 49.839 1.94802 49.686 2.20502C49.536 2.46202 49.461 2.74703 49.461 3.06003C49.461 3.37303 49.536 3.65804 49.686 3.91504C49.836 4.17204 50.039 4.37703 50.296 4.53003C50.553 4.68003 50.838 4.75504 51.151 4.75504C51.464 4.75504 51.749 4.68003 52.006 4.53003C52.266 4.37703 52.471 4.17204 52.621 3.91504C52.774 3.65804 52.851 3.37303 52.851 3.06003C52.851 2.75003 52.774 2.46702 52.621 2.21002C52.471 1.95302 52.268 1.74803 52.011 1.59503C51.754 1.44203 51.469 1.36502 51.156 1.36502ZM54.922 8.00003V7.14502H55.777V8.00003H54.922ZM59.671 8.15002C59.228 8.15002 58.828 8.04703 58.471 7.84003C58.118 7.63303 57.838 7.35303 57.631 7.00003C57.424 6.64303 57.321 6.24302 57.321 5.80002V3.00003C57.321 2.55703 57.424 2.15802 57.631 1.80502C57.838 1.44802 58.118 1.16702 58.471 0.960022C58.828 0.753022 59.228 0.650024 59.671 0.650024C60.114 0.650024 60.513 0.753022 60.866 0.960022C61.223 1.16702 61.504 1.44802 61.711 1.80502C61.918 2.15802 62.021 2.55703 62.021 3.00003V5.80002C62.021 6.24302 61.918 6.64303 61.711 7.00003C61.504 7.35303 61.223 7.63303 60.866 7.84003C60.513 8.04703 60.114 8.15002 59.671 8.15002ZM59.671 7.44003C59.968 7.44003 60.238 7.36804 60.481 7.22504C60.724 7.07804 60.918 6.88305 61.061 6.64005C61.204 6.39705 61.276 6.12802 61.276 5.83502V2.96503C61.276 2.66803 61.204 2.39803 61.061 2.15503C60.918 1.91203 60.724 1.71804 60.481 1.57504C60.238 1.42804 59.968 1.35504 59.671 1.35504C59.374 1.35504 59.104 1.42804 58.861 1.57504C58.618 1.71804 58.424 1.91203 58.281 2.15503C58.138 2.39803 58.066 2.66803 58.066 2.96503V5.83502C58.066 6.12802 58.138 6.39705 58.281 6.64005C58.424 6.88305 58.618 7.07804 58.861 7.22504C59.104 7.36804 59.374 7.44003 59.671 7.44003ZM65.55 8.15002C65.176 8.15002 64.831 8.07304 64.515 7.92004C64.198 7.76704 63.928 7.55503 63.705 7.28503C63.481 7.01503 63.321 6.70504 63.225 6.35504L63.93 6.16504C63.993 6.42504 64.108 6.65003 64.275 6.84003C64.441 7.02703 64.636 7.17202 64.86 7.27502C65.086 7.37802 65.323 7.43002 65.57 7.43002C65.89 7.43002 66.176 7.35304 66.43 7.20004C66.686 7.04304 66.89 6.83702 67.04 6.58002C67.19 6.32302 67.265 6.04202 67.265 5.73502C67.265 5.41802 67.186 5.13304 67.03 4.88004C66.873 4.62304 66.666 4.42002 66.41 4.27002C66.153 4.12002 65.873 4.04504 65.57 4.04504C65.23 4.04504 64.936 4.12002 64.69 4.27002C64.443 4.41702 64.246 4.60204 64.1 4.82504L63.43 4.54504L63.65 0.800018H67.495V1.50504H63.975L64.34 1.16003L64.145 4.35504L63.96 4.11002C64.166 3.87302 64.416 3.68802 64.71 3.55502C65.003 3.42202 65.311 3.35504 65.635 3.35504C66.078 3.35504 66.478 3.46202 66.835 3.67502C67.191 3.88502 67.475 4.17003 67.685 4.53003C67.895 4.89003 68 5.29202 68 5.73502C68 6.17502 67.888 6.57804 67.665 6.94504C67.441 7.30804 67.145 7.60004 66.775 7.82004C66.405 8.04004 65.996 8.15002 65.55 8.15002ZM69.336 8.00003V7.14502H70.191V8.00003H69.336ZM71.535 7.99503L71.54 7.32504L74.795 4.38504C75.075 4.13204 75.26 3.89204 75.35 3.66504C75.443 3.43504 75.49 3.19504 75.49 2.94504C75.49 2.64804 75.42 2.38005 75.28 2.14005C75.14 1.90005 74.952 1.71004 74.715 1.57004C74.478 1.42704 74.213 1.35504 73.92 1.35504C73.613 1.35504 73.34 1.42804 73.1 1.57504C72.86 1.72204 72.67 1.91503 72.53 2.15503C72.393 2.39503 72.327 2.65703 72.33 2.94003H71.58C71.58 2.50303 71.683 2.11205 71.89 1.76505C72.097 1.41805 72.377 1.14704 72.73 0.950043C73.083 0.750043 73.483 0.650024 73.93 0.650024C74.367 0.650024 74.758 0.753022 75.105 0.960022C75.455 1.16302 75.73 1.44004 75.93 1.79004C76.133 2.13704 76.235 2.52304 76.235 2.95004C76.235 3.25004 76.198 3.51503 76.125 3.74503C76.055 3.97203 75.943 4.18304 75.79 4.38004C75.64 4.57304 75.448 4.77304 75.215 4.98004L72.325 7.59003L72.21 7.29004H76.235V7.99503H71.535ZM79.788 8.15002C79.345 8.15002 78.945 8.04703 78.588 7.84003C78.235 7.63303 77.955 7.35303 77.748 7.00003C77.542 6.64303 77.438 6.24302 77.438 5.80002V3.00003C77.438 2.55703 77.542 2.15802 77.748 1.80502C77.955 1.44802 78.235 1.16702 78.588 0.960022C78.945 0.753022 79.345 0.650024 79.788 0.650024C80.232 0.650024 80.63 0.753022 80.983 0.960022C81.34 1.16702 81.622 1.44802 81.828 1.80502C82.035 2.15802 82.138 2.55703 82.138 3.00003V5.80002C82.138 6.24302 82.035 6.64303 81.828 7.00003C81.622 7.35303 81.34 7.63303 80.983 7.84003C80.63 8.04703 80.232 8.15002 79.788 8.15002ZM79.788 7.44003C80.085 7.44003 80.355 7.36804 80.598 7.22504C80.842 7.07804 81.035 6.88305 81.178 6.64005C81.322 6.39705 81.393 6.12802 81.393 5.83502V2.96503C81.393 2.66803 81.322 2.39803 81.178 2.15503C81.035 1.91203 80.842 1.71804 80.598 1.57504C80.355 1.42804 80.085 1.35504 79.788 1.35504C79.492 1.35504 79.222 1.42804 78.978 1.57504C78.735 1.71804 78.542 1.91203 78.398 2.15503C78.255 2.39803 78.183 2.66803 78.183 2.96503V5.83502C78.183 6.12802 78.255 6.39705 78.398 6.64005C78.542 6.88305 78.735 7.07804 78.978 7.22504C79.222 7.36804 79.492 7.44003 79.788 7.44003ZM83.342 7.99503L83.347 7.32504L86.602 4.38504C86.882 4.13204 87.067 3.89204 87.157 3.66504C87.25 3.43504 87.297 3.19504 87.297 2.94504C87.297 2.64804 87.227 2.38005 87.087 2.14005C86.947 1.90005 86.758 1.71004 86.522 1.57004C86.285 1.42704 86.02 1.35504 85.727 1.35504C85.42 1.35504 85.147 1.42804 84.907 1.57504C84.667 1.72204 84.477 1.91503 84.337 2.15503C84.2 2.39503 84.133 2.65703 84.137 2.94003H83.387C83.387 2.50303 83.49 2.11205 83.697 1.76505C83.903 1.41805 84.183 1.14704 84.537 0.950043C84.89 0.750043 85.29 0.650024 85.737 0.650024C86.173 0.650024 86.565 0.753022 86.912 0.960022C87.262 1.16302 87.537 1.44004 87.737 1.79004C87.94 2.13704 88.042 2.52304 88.042 2.95004C88.042 3.25004 88.005 3.51503 87.932 3.74503C87.862 3.97203 87.75 4.18304 87.597 4.38004C87.447 4.57304 87.255 4.77304 87.022 4.98004L84.132 7.59003L84.017 7.29004H88.042V7.99503H83.342ZM91.18 8.14502C90.823 8.14502 90.495 8.08202 90.195 7.95502C89.895 7.82802 89.637 7.64804 89.42 7.41504C89.203 7.17804 89.045 6.89704 88.945 6.57004L89.645 6.36002C89.765 6.71702 89.962 6.98704 90.235 7.17004C90.512 7.35304 90.823 7.44203 91.17 7.43503C91.49 7.42803 91.765 7.35703 91.995 7.22003C92.228 7.08303 92.407 6.89302 92.53 6.65002C92.653 6.40702 92.715 6.12502 92.715 5.80502C92.715 5.31502 92.572 4.92203 92.285 4.62503C92.002 4.32503 91.627 4.17502 91.16 4.17502C91.03 4.17502 90.893 4.19304 90.75 4.23004C90.607 4.26304 90.473 4.31203 90.35 4.37503L89.98 3.79004L92.78 1.20502L92.9 1.50504H89.23V0.800018H93.39V1.51505L90.95 3.84503L90.94 3.55502C91.44 3.49202 91.88 3.54804 92.26 3.72504C92.64 3.90204 92.937 4.17203 93.15 4.53503C93.367 4.89503 93.475 5.31802 93.475 5.80502C93.475 6.26502 93.375 6.67202 93.175 7.02502C92.978 7.37502 92.707 7.65004 92.36 7.85004C92.013 8.04704 91.62 8.14502 91.18 8.14502Z" fill="#2BC33A"/>
</svg>
