<svg width="130" height="15" viewBox="0 0 130 15" fill="none" xmlns="http://www.w3.org/2000/svg">
<path d="M0.979996 11V0.919983H4.87199C4.96999 0.919983 5.08 0.92496 5.201 0.93396C5.327 0.93896 5.45299 0.952983 5.57899 0.975983C6.10599 1.05498 6.552 1.23996 6.916 1.52896C7.285 1.81396 7.56199 2.17296 7.74899 2.60696C7.93999 3.04096 8.036 3.52198 8.036 4.04898C8.036 4.57198 7.93999 5.04998 7.74899 5.48398C7.55799 5.91798 7.278 6.27997 6.909 6.56897C6.545 6.85397 6.10199 7.03596 5.57899 7.11496C5.45299 7.13396 5.327 7.14798 5.201 7.15698C5.08 7.16598 4.96999 7.17096 4.87199 7.17096H2.009V11H0.979996ZM2.009 6.19098H4.84399C4.92799 6.19098 5.026 6.18597 5.138 6.17697C5.25 6.16797 5.36 6.15096 5.467 6.12796C5.812 6.05296 6.095 5.91096 6.314 5.70096C6.538 5.49096 6.704 5.24097 6.811 4.95197C6.923 4.66297 6.979 4.36198 6.979 4.04898C6.979 3.73598 6.923 3.43497 6.811 3.14597C6.704 2.85197 6.538 2.59998 6.314 2.38998C6.095 2.17998 5.812 2.03798 5.467 1.96298C5.36 1.93998 5.25 1.92596 5.138 1.92096C5.026 1.91196 4.92799 1.90698 4.84399 1.90698H2.009V6.19098ZM11.592 11.21C11.023 11.21 10.545 11.107 10.157 10.902C9.775 10.697 9.48801 10.424 9.29601 10.083C9.10501 9.74198 9.009 9.37097 9.009 8.96997C9.009 8.55897 9.091 8.20898 9.254 7.91998C9.422 7.62598 9.649 7.38597 9.933 7.19897C10.223 7.01197 10.556 6.86997 10.934 6.77197C11.317 6.67897 11.739 6.59698 12.201 6.52698C12.668 6.45198 13.123 6.38898 13.566 6.33798C14.014 6.28198 14.406 6.22797 14.742 6.17697L14.378 6.40097C14.392 5.65397 14.248 5.10097 13.944 4.74197C13.641 4.38297 13.114 4.20297 12.362 4.20297C11.844 4.20297 11.406 4.31998 11.046 4.55298C10.692 4.78598 10.442 5.15497 10.297 5.65897L9.29601 5.36496C9.46901 4.68796 9.817 4.16298 10.339 3.78998C10.862 3.41698 11.541 3.22998 12.376 3.22998C13.067 3.22998 13.653 3.36098 14.133 3.62198C14.619 3.87898 14.962 4.25197 15.162 4.74197C15.256 4.96097 15.316 5.20596 15.344 5.47696C15.372 5.74796 15.386 6.02298 15.386 6.30298V11H14.469V9.10297L14.735 9.21497C14.479 9.86397 14.08 10.358 13.538 10.699C12.997 11.04 12.348 11.21 11.592 11.21ZM11.711 10.321C12.192 10.321 12.612 10.235 12.971 10.062C13.331 9.88898 13.62 9.65398 13.839 9.35498C14.059 9.05198 14.201 8.71098 14.266 8.33298C14.322 8.08998 14.353 7.82397 14.357 7.53497C14.362 7.24097 14.364 7.02198 14.364 6.87698L14.756 7.07996C14.406 7.12696 14.026 7.17297 13.615 7.21997C13.209 7.26697 12.808 7.31998 12.411 7.38098C12.019 7.44198 11.665 7.51396 11.347 7.59796C11.133 7.65896 10.925 7.74496 10.724 7.85696C10.524 7.96396 10.358 8.10895 10.227 8.29095C10.101 8.47295 10.038 8.69897 10.038 8.96997C10.038 9.18897 10.092 9.40196 10.199 9.60696C10.311 9.81196 10.489 9.98298 10.731 10.118C10.979 10.253 11.305 10.321 11.711 10.321ZM19.932 11.21C19.171 11.21 18.506 11.044 17.937 10.713C17.372 10.377 16.926 9.91298 16.6 9.31998L17.426 8.79498C17.701 9.26198 18.044 9.61598 18.455 9.85898C18.865 10.102 19.337 10.223 19.869 10.223C20.424 10.223 20.87 10.095 21.206 9.83798C21.542 9.58098 21.71 9.22898 21.71 8.78098C21.71 8.47298 21.637 8.22796 21.493 8.04596C21.353 7.86396 21.138 7.73296 20.849 7.65396C20.564 7.57496 20.207 7.53497 19.778 7.53497H18.882V6.65298H19.764C20.286 6.65298 20.706 6.55996 21.024 6.37296C21.346 6.18196 21.507 5.88296 21.507 5.47696C21.507 5.04796 21.346 4.72996 21.024 4.52496C20.706 4.31496 20.326 4.20996 19.883 4.20996C19.435 4.20996 19.01 4.30296 18.609 4.48996C18.212 4.67196 17.878 4.90796 17.608 5.19696L16.95 4.50397C17.328 4.08897 17.769 3.77396 18.273 3.55896C18.781 3.33996 19.344 3.22998 19.96 3.22998C20.445 3.22998 20.884 3.31598 21.276 3.48898C21.672 3.65698 21.985 3.90396 22.214 4.23096C22.447 4.55796 22.564 4.94998 22.564 5.40698C22.564 5.83598 22.459 6.20696 22.249 6.51996C22.043 6.83296 21.752 7.09197 21.374 7.29697L21.318 6.91196C21.644 6.97296 21.915 7.10295 22.13 7.30396C22.344 7.50496 22.503 7.74496 22.606 8.02496C22.708 8.30496 22.76 8.58997 22.76 8.87897C22.76 9.35997 22.634 9.77497 22.382 10.125C22.134 10.47 21.796 10.739 21.367 10.93C20.942 11.117 20.464 11.21 19.932 11.21ZM27.699 11.21C27.004 11.21 26.416 11.035 25.935 10.685C25.455 10.33 25.091 9.85197 24.843 9.24997C24.596 8.64297 24.472 7.96398 24.472 7.21298C24.472 6.44798 24.596 5.76598 24.843 5.16898C25.095 4.56698 25.464 4.09296 25.949 3.74796C26.435 3.40296 27.032 3.22998 27.741 3.22998C28.432 3.22998 29.025 3.40497 29.519 3.75497C30.014 4.10497 30.392 4.58098 30.653 5.18298C30.919 5.78498 31.052 6.46198 31.052 7.21298C31.052 7.96898 30.919 8.64797 30.653 9.24997C30.387 9.85197 30.005 10.33 29.505 10.685C29.006 11.035 28.404 11.21 27.699 11.21ZM24.297 14.36V3.43997H25.221V9.13098H25.333V14.36H24.297ZM27.594 10.251C28.122 10.251 28.56 10.118 28.91 9.85196C29.26 9.58596 29.522 9.22397 29.694 8.76697C29.872 8.30497 29.96 7.78698 29.96 7.21298C29.96 6.64398 29.874 6.12997 29.701 5.67297C29.529 5.21597 29.265 4.85398 28.91 4.58798C28.56 4.32198 28.115 4.18896 27.573 4.18896C27.046 4.18896 26.607 4.31697 26.257 4.57397C25.912 4.83097 25.653 5.18796 25.48 5.64496C25.308 6.09796 25.221 6.61998 25.221 7.21298C25.221 7.79598 25.308 8.31898 25.48 8.78098C25.653 9.23798 25.914 9.59798 26.264 9.85898C26.614 10.12 27.058 10.251 27.594 10.251ZM34.752 11.21C34.183 11.21 33.705 11.107 33.317 10.902C32.935 10.697 32.648 10.424 32.456 10.083C32.265 9.74198 32.169 9.37097 32.169 8.96997C32.169 8.55897 32.251 8.20898 32.414 7.91998C32.582 7.62598 32.809 7.38597 33.093 7.19897C33.383 7.01197 33.716 6.86997 34.094 6.77197C34.477 6.67897 34.899 6.59698 35.361 6.52698C35.828 6.45198 36.283 6.38898 36.726 6.33798C37.174 6.28198 37.566 6.22797 37.902 6.17697L37.538 6.40097C37.552 5.65397 37.408 5.10097 37.104 4.74197C36.801 4.38297 36.274 4.20297 35.522 4.20297C35.004 4.20297 34.566 4.31998 34.206 4.55298C33.852 4.78598 33.602 5.15497 33.457 5.65897L32.456 5.36496C32.629 4.68796 32.977 4.16298 33.499 3.78998C34.022 3.41698 34.701 3.22998 35.536 3.22998C36.227 3.22998 36.813 3.36098 37.293 3.62198C37.779 3.87898 38.122 4.25197 38.322 4.74197C38.416 4.96097 38.476 5.20596 38.504 5.47696C38.532 5.74796 38.546 6.02298 38.546 6.30298V11H37.629V9.10297L37.895 9.21497C37.639 9.86397 37.24 10.358 36.698 10.699C36.157 11.04 35.508 11.21 34.752 11.21ZM34.871 10.321C35.352 10.321 35.772 10.235 36.131 10.062C36.491 9.88898 36.78 9.65398 36.999 9.35498C37.219 9.05198 37.361 8.71098 37.426 8.33298C37.482 8.08998 37.513 7.82397 37.517 7.53497C37.522 7.24097 37.524 7.02198 37.524 6.87698L37.916 7.07996C37.566 7.12696 37.186 7.17297 36.775 7.21997C36.369 7.26697 35.968 7.31998 35.571 7.38098C35.179 7.44198 34.825 7.51396 34.507 7.59796C34.293 7.65896 34.085 7.74496 33.884 7.85696C33.684 7.96396 33.518 8.10895 33.387 8.29095C33.261 8.47295 33.198 8.69897 33.198 8.96997C33.198 9.18897 33.252 9.40196 33.359 9.60696C33.471 9.81196 33.649 9.98298 33.891 10.118C34.139 10.253 34.465 10.321 34.871 10.321ZM43.4 11.217C42.695 11.212 42.091 11.058 41.587 10.755C41.083 10.452 40.691 9.99897 40.411 9.39697C40.135 8.79497 39.986 8.04397 39.963 7.14297C39.949 6.74598 39.958 6.31496 39.991 5.84796C40.023 5.37696 40.075 4.92897 40.145 4.50397C40.215 4.07897 40.299 3.73396 40.397 3.46796C40.518 3.12296 40.691 2.80098 40.915 2.50198C41.143 2.19898 41.407 1.95098 41.706 1.75998C41.995 1.56398 42.322 1.41196 42.686 1.30496C43.054 1.19296 43.437 1.10696 43.834 1.04596C44.235 0.984959 44.632 0.931979 45.024 0.884979C45.42 0.837979 45.787 0.779961 46.123 0.709961L46.235 1.64096C45.978 1.69196 45.675 1.73898 45.325 1.78098C44.975 1.82298 44.608 1.87397 44.226 1.93497C43.843 1.99097 43.477 2.06795 43.127 2.16595C42.777 2.26395 42.478 2.39196 42.231 2.55096C41.853 2.77996 41.561 3.12498 41.356 3.58698C41.155 4.04897 41.031 4.57896 40.985 5.17596C41.274 4.72296 41.657 4.38296 42.133 4.15396C42.613 3.92496 43.134 3.81097 43.694 3.81097C44.375 3.81097 44.961 3.96697 45.451 4.27997C45.945 4.59297 46.326 5.02697 46.592 5.58197C46.858 6.13697 46.991 6.77398 46.991 7.49298C46.991 8.24398 46.844 8.89996 46.55 9.45996C46.26 10.02 45.847 10.454 45.311 10.762C44.774 11.065 44.137 11.217 43.4 11.217ZM43.477 10.23C44.27 10.23 44.872 9.98298 45.283 9.48798C45.698 8.99298 45.906 8.33498 45.906 7.51398C45.906 6.67398 45.691 6.01097 45.262 5.52597C44.837 5.04097 44.237 4.79797 43.463 4.79797C42.688 4.79797 42.093 5.04097 41.678 5.52597C41.262 6.01097 41.055 6.67398 41.055 7.51398C41.055 8.35398 41.262 9.01698 41.678 9.50198C42.093 9.98698 42.693 10.23 43.477 10.23ZM51.688 11.21C50.936 11.21 50.295 11.04 49.763 10.699C49.231 10.358 48.822 9.88697 48.538 9.28497C48.253 8.68297 48.111 7.99198 48.111 7.21298C48.111 6.41998 48.255 5.72398 48.545 5.12698C48.834 4.52998 49.245 4.06498 49.777 3.73398C50.313 3.39798 50.95 3.22998 51.688 3.22998C52.444 3.22998 53.088 3.39997 53.62 3.74097C54.156 4.07697 54.565 4.54598 54.845 5.14798C55.129 5.74498 55.272 6.43398 55.272 7.21298C55.272 8.00598 55.129 8.70397 54.845 9.30597C54.56 9.90297 54.149 10.37 53.613 10.706C53.076 11.042 52.434 11.21 51.688 11.21ZM51.688 10.223C52.528 10.223 53.153 9.94498 53.564 9.38998C53.974 8.82998 54.18 8.10398 54.18 7.21298C54.18 6.29798 53.972 5.56996 53.557 5.02896C53.146 4.48796 52.523 4.21698 51.688 4.21698C51.123 4.21698 50.656 4.34496 50.288 4.60196C49.924 4.85396 49.651 5.20597 49.469 5.65897C49.291 6.10697 49.203 6.62498 49.203 7.21298C49.203 8.12298 49.413 8.85296 49.833 9.40396C50.253 9.94996 50.871 10.223 51.688 10.223ZM58.689 11V4.39197H56.008V3.43997H62.399V4.39197H59.718V11H58.689ZM65.61 11.21C65.04 11.21 64.562 11.107 64.175 10.902C63.792 10.697 63.505 10.424 63.314 10.083C63.122 9.74198 63.027 9.37097 63.027 8.96997C63.027 8.55897 63.108 8.20898 63.272 7.91998C63.44 7.62598 63.666 7.38597 63.951 7.19897C64.24 7.01197 64.574 6.86997 64.952 6.77197C65.334 6.67897 65.757 6.59698 66.219 6.52698C66.685 6.45198 67.14 6.38898 67.584 6.33798C68.032 6.28198 68.424 6.22797 68.76 6.17697L68.396 6.40097C68.41 5.65397 68.265 5.10097 67.962 4.74197C67.658 4.38297 67.131 4.20297 66.38 4.20297C65.862 4.20297 65.423 4.31998 65.064 4.55298C64.709 4.78598 64.459 5.15497 64.315 5.65897L63.314 5.36496C63.486 4.68796 63.834 4.16298 64.357 3.78998C64.879 3.41698 65.558 3.22998 66.394 3.22998C67.084 3.22998 67.67 3.36098 68.151 3.62198C68.636 3.87898 68.979 4.25197 69.18 4.74197C69.273 4.96097 69.334 5.20596 69.362 5.47696C69.39 5.74796 69.404 6.02298 69.404 6.30298V11H68.487V9.10297L68.753 9.21497C68.496 9.86397 68.097 10.358 67.556 10.699C67.014 11.04 66.366 11.21 65.61 11.21ZM65.729 10.321C66.209 10.321 66.629 10.235 66.989 10.062C67.348 9.88898 67.637 9.65398 67.857 9.35498C68.076 9.05198 68.218 8.71098 68.284 8.33298C68.34 8.08998 68.37 7.82397 68.375 7.53497C68.379 7.24097 68.382 7.02198 68.382 6.87698L68.774 7.07996C68.424 7.12696 68.043 7.17297 67.633 7.21997C67.227 7.26697 66.825 7.31998 66.429 7.38098C66.037 7.44198 65.682 7.51396 65.365 7.59796C65.15 7.65896 64.942 7.74496 64.742 7.85696C64.541 7.96396 64.375 8.10895 64.245 8.29095C64.119 8.47295 64.056 8.69897 64.056 8.96997C64.056 9.18897 64.109 9.40196 64.217 9.60696C64.329 9.81196 64.506 9.98298 64.749 10.118C64.996 10.253 65.323 10.321 65.729 10.321ZM73.277 11V4.39197H70.596V3.43997H76.987V4.39197H74.306V11H73.277ZM78.329 11L78.315 3.43997H79.351V6.28897H81.122C81.341 6.28897 81.556 6.29398 81.766 6.30298C81.98 6.31198 82.169 6.33098 82.333 6.35898C82.706 6.42898 83.037 6.55298 83.327 6.72998C83.621 6.90698 83.849 7.15197 84.013 7.46497C84.181 7.77797 84.265 8.16996 84.265 8.64096C84.265 9.28996 84.097 9.80098 83.761 10.174C83.429 10.547 83.009 10.79 82.501 10.902C82.309 10.944 82.102 10.972 81.878 10.986C81.654 10.995 81.432 11 81.213 11H78.329ZM79.351 10.118H81.171C81.329 10.118 81.507 10.113 81.703 10.104C81.899 10.095 82.071 10.069 82.221 10.027C82.468 9.95698 82.692 9.81696 82.893 9.60696C83.098 9.39196 83.201 9.06996 83.201 8.64096C83.201 8.21596 83.103 7.89698 82.907 7.68198C82.711 7.46298 82.449 7.31796 82.123 7.24796C81.978 7.21496 81.822 7.19397 81.654 7.18497C81.486 7.17597 81.325 7.17096 81.171 7.17096H79.351V10.118ZM92.187 14.15V11.147C91.45 11.264 90.778 11.184 90.171 10.909C89.564 10.629 89.081 10.176 88.722 9.55096C88.363 8.92596 88.183 8.15096 88.183 7.22696C88.183 6.30296 88.363 5.52798 88.722 4.90298C89.081 4.27298 89.564 3.81796 90.171 3.53796C90.778 3.25796 91.45 3.17597 92.187 3.29297V0.975983H93.139V3.29297C93.876 3.17597 94.548 3.25796 95.155 3.53796C95.762 3.81796 96.245 4.27298 96.604 4.90298C96.963 5.52798 97.143 6.30296 97.143 7.22696C97.143 8.15096 96.963 8.92596 96.604 9.55096C96.245 10.176 95.762 10.629 95.155 10.909C94.548 11.184 93.876 11.264 93.139 11.147V14.15H92.187ZM92.187 10.188V4.25897C91.809 4.19397 91.445 4.20498 91.095 4.29398C90.745 4.37798 90.43 4.54395 90.15 4.79095C89.87 5.03395 89.648 5.35798 89.485 5.76398C89.326 6.16498 89.247 6.65296 89.247 7.22696C89.247 7.80096 89.329 8.29096 89.492 8.69696C89.655 9.09796 89.877 9.41996 90.157 9.66296C90.437 9.90596 90.752 10.069 91.102 10.153C91.452 10.237 91.814 10.249 92.187 10.188ZM93.139 10.188C93.512 10.249 93.874 10.237 94.224 10.153C94.574 10.069 94.889 9.90798 95.169 9.66998C95.449 9.42698 95.671 9.10498 95.834 8.70398C95.997 8.29798 96.079 7.80596 96.079 7.22696C96.079 6.64796 95.997 6.15796 95.834 5.75696C95.675 5.35096 95.456 5.02697 95.176 4.78397C94.896 4.54097 94.581 4.37798 94.231 4.29398C93.881 4.20498 93.517 4.19397 93.139 4.25897V10.188ZM99.484 14.36L100.947 10.391L100.968 11.567L97.657 3.43997H98.749L101.465 10.237H101.017L103.523 3.43997H104.573L100.513 14.36H99.484ZM105.782 11V3.43997H106.811V6.72296H111.074V3.43997H112.103V11H111.074V7.70996H106.811V11H105.782ZM114.053 11L114.06 3.43997H115.096V7.07996L118.47 3.43997H119.842L116.3 7.21997L120.304 11H118.806L115.096 7.35995V11H114.053ZM121.201 11V9.80298H122.398V11H121.201ZM124.756 11V9.80298H125.953V11H124.756ZM128.311 11V9.80298H129.508V11H128.311Z" fill="#2BC33A"/>
</svg>
