<svg width="94" height="9" viewBox="0 0 94 9" fill="none" xmlns="http://www.w3.org/2000/svg">
<path d="M0.700012 8.00003V0.800018H2.88501C2.96201 0.800018 3.09199 0.802023 3.27499 0.805023C3.46199 0.808023 3.64 0.822032 3.81 0.845032C4.357 0.922032 4.81299 1.12502 5.17999 1.45502C5.54699 1.78502 5.822 2.20503 6.005 2.71503C6.188 3.22503 6.28 3.78702 6.28 4.40002C6.28 5.01302 6.188 5.57502 6.005 6.08502C5.822 6.59502 5.54699 7.01503 5.17999 7.34503C4.81299 7.67503 4.357 7.87802 3.81 7.95502C3.643 7.97502 3.46499 7.98803 3.27499 7.99503C3.08499 7.99803 2.95501 8.00003 2.88501 8.00003H0.700012ZM1.45999 7.29504H2.88501C3.02201 7.29504 3.16801 7.29203 3.32501 7.28503C3.48501 7.27503 3.62199 7.25802 3.73499 7.23502C4.15499 7.16202 4.493 6.99204 4.75 6.72504C5.01 6.45804 5.20001 6.12504 5.32001 5.72504C5.44001 5.32204 5.5 4.88002 5.5 4.40002C5.5 3.91702 5.44001 3.47304 5.32001 3.07004C5.20001 2.66704 5.01 2.33304 4.75 2.07004C4.49 1.80704 4.15199 1.63803 3.73499 1.56503C3.62199 1.54203 3.48301 1.52702 3.32001 1.52002C3.16001 1.51002 3.01501 1.50504 2.88501 1.50504H1.45999V7.29504ZM9.70401 8.15002C9.17701 8.15002 8.72001 8.03302 8.33401 7.80002C7.95002 7.56702 7.652 7.23803 7.439 6.81503C7.225 6.39203 7.11899 5.89504 7.11899 5.32504C7.11899 4.73504 7.22399 4.22504 7.43399 3.79504C7.64399 3.36504 7.939 3.03302 8.319 2.80002C8.702 2.56702 9.15401 2.45004 9.67401 2.45004C10.207 2.45004 10.662 2.57304 11.039 2.82004C11.415 3.06304 11.7 3.41303 11.894 3.87003C12.087 4.32703 12.175 4.87204 12.159 5.50504H11.409V5.24503C11.395 4.54503 11.244 4.01703 10.954 3.66003C10.667 3.30303 10.247 3.12503 9.694 3.12503C9.114 3.12503 8.66901 3.31303 8.35901 3.69003C8.05201 4.06703 7.89899 4.60302 7.89899 5.30002C7.89899 5.98002 8.05201 6.50804 8.35901 6.88504C8.66901 7.25804 9.10701 7.44504 9.67401 7.44504C10.06 7.44504 10.397 7.35702 10.684 7.18002C10.974 7.00002 11.202 6.74203 11.369 6.40503L12.054 6.67004C11.84 7.14004 11.525 7.50504 11.109 7.76505C10.695 8.02205 10.227 8.15002 9.70401 8.15002ZM7.63901 5.50504V4.89005H11.764V5.50504H7.63901ZM14.716 8.15002C14.309 8.15002 13.967 8.07702 13.691 7.93002C13.417 7.78302 13.212 7.58803 13.076 7.34503C12.939 7.10203 12.871 6.83702 12.871 6.55002C12.871 6.25702 12.929 6.00702 13.046 5.80002C13.166 5.59002 13.327 5.41803 13.531 5.28503C13.737 5.15203 13.976 5.05004 14.246 4.98004C14.519 4.91304 14.821 4.85502 15.151 4.80502C15.484 4.75202 15.809 4.70704 16.126 4.67004C16.446 4.63004 16.726 4.59202 16.966 4.55502L16.706 4.71503C16.716 4.18203 16.612 3.78703 16.396 3.53003C16.179 3.27303 15.802 3.14502 15.266 3.14502C14.896 3.14502 14.582 3.22802 14.326 3.39502C14.072 3.56202 13.894 3.82503 13.791 4.18503L13.076 3.97504C13.199 3.49204 13.447 3.11704 13.821 2.85004C14.194 2.58304 14.679 2.45004 15.276 2.45004C15.769 2.45004 16.187 2.54304 16.531 2.73004C16.877 2.91304 17.122 3.18003 17.266 3.53003C17.332 3.68703 17.376 3.86202 17.396 4.05502C17.416 4.24802 17.426 4.44502 17.426 4.64502V8.00003H16.771V6.64502L16.961 6.72504C16.777 7.18804 16.492 7.54203 16.106 7.78503C15.719 8.02803 15.256 8.15002 14.716 8.15002ZM14.801 7.51505C15.144 7.51505 15.444 7.45302 15.701 7.33002C15.957 7.20702 16.164 7.03804 16.321 6.82504C16.477 6.60804 16.579 6.36503 16.626 6.09503C16.666 5.92203 16.687 5.73202 16.691 5.52502C16.694 5.31502 16.696 5.15802 16.696 5.05502L16.976 5.20004C16.726 5.23304 16.454 5.26702 16.161 5.30002C15.871 5.33302 15.584 5.37204 15.301 5.41504C15.021 5.45804 14.767 5.51004 14.541 5.57004C14.387 5.61304 14.239 5.67504 14.096 5.75504C13.952 5.83204 13.834 5.93503 13.741 6.06503C13.651 6.19503 13.606 6.35702 13.606 6.55002C13.606 6.70702 13.644 6.85804 13.721 7.00504C13.801 7.15204 13.927 7.27303 14.101 7.37003C14.277 7.46703 14.511 7.51505 14.801 7.51505ZM20.822 8.15002C20.319 8.15002 19.889 8.02502 19.532 7.77502C19.176 7.52202 18.902 7.18003 18.712 6.75003C18.522 6.32003 18.427 5.83504 18.427 5.29504C18.427 4.75804 18.521 4.27503 18.707 3.84503C18.897 3.41503 19.169 3.07504 19.522 2.82504C19.876 2.57504 20.299 2.45004 20.792 2.45004C21.299 2.45004 21.726 2.57304 22.072 2.82004C22.419 3.06704 22.681 3.40502 22.857 3.83502C23.037 4.26202 23.127 4.74804 23.127 5.29504C23.127 5.83204 23.039 6.31703 22.862 6.75003C22.686 7.18003 22.426 7.52202 22.082 7.77502C21.739 8.02502 21.319 8.15002 20.822 8.15002ZM20.897 7.46503C21.281 7.46503 21.597 7.37203 21.847 7.18503C22.097 6.99803 22.284 6.74204 22.407 6.41504C22.531 6.08504 22.592 5.71204 22.592 5.29504C22.592 4.87204 22.531 4.49802 22.407 4.17502C22.284 3.84802 22.097 3.59303 21.847 3.41003C21.601 3.22703 21.289 3.13504 20.912 3.13504C20.526 3.13504 20.206 3.23004 19.952 3.42004C19.699 3.61004 19.511 3.86804 19.387 4.19504C19.267 4.52204 19.207 4.88804 19.207 5.29504C19.207 5.70504 19.269 6.07503 19.392 6.40503C19.519 6.73203 19.707 6.99002 19.957 7.18002C20.207 7.37002 20.521 7.46503 20.897 7.46503ZM22.592 8.00003V3.93503H22.512V0.800018H23.252V8.00003H22.592ZM24.755 8.00003V0.650024H25.49V8.00003H24.755ZM27.089 1.57504V0.750031H27.824V1.57504H27.089ZM27.089 8.00003V2.60004H27.824V8.00003H27.089ZM33.223 8.00003V5.24503C33.223 4.94503 33.195 4.67004 33.138 4.42004C33.081 4.16704 32.99 3.94704 32.863 3.76004C32.74 3.57004 32.578 3.42304 32.378 3.32004C32.181 3.21704 31.941 3.16504 31.658 3.16504C31.398 3.16504 31.168 3.21002 30.968 3.30002C30.771 3.39002 30.605 3.52003 30.468 3.69003C30.335 3.85703 30.233 4.06002 30.163 4.30002C30.093 4.54002 30.058 4.81303 30.058 5.12003L29.538 5.00504C29.538 4.45204 29.635 3.98702 29.828 3.61002C30.021 3.23302 30.288 2.94804 30.628 2.75504C30.968 2.56204 31.358 2.46503 31.798 2.46503C32.121 2.46503 32.403 2.51502 32.643 2.61502C32.886 2.71502 33.091 2.85002 33.258 3.02002C33.428 3.19002 33.565 3.38504 33.668 3.60504C33.771 3.82204 33.846 4.05302 33.893 4.30002C33.94 4.54302 33.963 4.78703 33.963 5.03003V8.00003H33.223ZM29.318 8.00003V2.60004H29.983V3.93002H30.058V8.00003H29.318ZM37.516 8.15002C36.99 8.15002 36.533 8.03302 36.146 7.80002C35.763 7.56702 35.465 7.23803 35.251 6.81503C35.038 6.39203 34.931 5.89504 34.931 5.32504C34.931 4.73504 35.036 4.22504 35.246 3.79504C35.456 3.36504 35.751 3.03302 36.131 2.80002C36.515 2.56702 36.966 2.45004 37.486 2.45004C38.02 2.45004 38.475 2.57304 38.851 2.82004C39.228 3.06304 39.513 3.41303 39.706 3.87003C39.9 4.32703 39.988 4.87204 39.971 5.50504H39.221V5.24503C39.208 4.54503 39.056 4.01703 38.766 3.66003C38.48 3.30303 38.06 3.12503 37.506 3.12503C36.926 3.12503 36.481 3.31303 36.171 3.69003C35.865 4.06703 35.711 4.60302 35.711 5.30002C35.711 5.98002 35.865 6.50804 36.171 6.88504C36.481 7.25804 36.92 7.44504 37.486 7.44504C37.873 7.44504 38.21 7.35702 38.496 7.18002C38.786 7.00002 39.015 6.74203 39.181 6.40503L39.866 6.67004C39.653 7.14004 39.338 7.50504 38.921 7.76505C38.508 8.02205 38.04 8.15002 37.516 8.15002ZM35.451 5.50504V4.89005H39.576V5.50504H35.451ZM45.018 8.14502C44.661 8.14502 44.333 8.08202 44.033 7.95502C43.733 7.82802 43.474 7.64804 43.258 7.41504C43.041 7.17804 42.883 6.89704 42.783 6.57004L43.483 6.36002C43.603 6.71702 43.799 6.98704 44.073 7.17004C44.349 7.35304 44.661 7.44203 45.008 7.43503C45.328 7.42803 45.603 7.35703 45.833 7.22003C46.066 7.08303 46.244 6.89302 46.368 6.65002C46.491 6.40702 46.553 6.12502 46.553 5.80502C46.553 5.31502 46.409 4.92203 46.123 4.62503C45.839 4.32503 45.464 4.17502 44.998 4.17502C44.868 4.17502 44.731 4.19304 44.588 4.23004C44.444 4.26304 44.311 4.31203 44.188 4.37503L43.818 3.79004L46.618 1.20502L46.738 1.50504H43.068V0.800018H47.228V1.51505L44.788 3.84503L44.778 3.55502C45.278 3.49202 45.718 3.54804 46.098 3.72504C46.478 3.90204 46.774 4.17203 46.988 4.53503C47.204 4.89503 47.313 5.31802 47.313 5.80502C47.313 6.26502 47.213 6.67202 47.013 7.02502C46.816 7.37502 46.544 7.65004 46.198 7.85004C45.851 8.04704 45.458 8.14502 45.018 8.14502ZM50.96 8.15002C50.517 8.15002 50.117 8.04703 49.76 7.84003C49.407 7.63303 49.127 7.35303 48.92 7.00003C48.713 6.64303 48.61 6.24302 48.61 5.80002V3.00003C48.61 2.55703 48.713 2.15802 48.92 1.80502C49.127 1.44802 49.407 1.16702 49.76 0.960022C50.117 0.753022 50.517 0.650024 50.96 0.650024C51.403 0.650024 51.802 0.753022 52.155 0.960022C52.512 1.16702 52.793 1.44802 53 1.80502C53.207 2.15802 53.31 2.55703 53.31 3.00003V5.80002C53.31 6.24302 53.207 6.64303 53 7.00003C52.793 7.35303 52.512 7.63303 52.155 7.84003C51.802 8.04703 51.403 8.15002 50.96 8.15002ZM50.96 7.44003C51.257 7.44003 51.527 7.36804 51.77 7.22504C52.013 7.07804 52.207 6.88305 52.35 6.64005C52.493 6.39705 52.565 6.12802 52.565 5.83502V2.96503C52.565 2.66803 52.493 2.39803 52.35 2.15503C52.207 1.91203 52.013 1.71804 51.77 1.57504C51.527 1.42804 51.257 1.35504 50.96 1.35504C50.663 1.35504 50.393 1.42804 50.15 1.57504C49.907 1.71804 49.713 1.91203 49.57 2.15503C49.427 2.39803 49.355 2.66803 49.355 2.96503V5.83502C49.355 6.12802 49.427 6.39705 49.57 6.64005C49.713 6.88305 49.907 7.07804 50.15 7.22504C50.393 7.36804 50.663 7.44003 50.96 7.44003ZM54.854 8.00003V7.14502H55.709V8.00003H54.854ZM59.603 8.15002C59.159 8.15002 58.759 8.04703 58.403 7.84003C58.049 7.63303 57.769 7.35303 57.563 7.00003C57.356 6.64303 57.253 6.24302 57.253 5.80002V3.00003C57.253 2.55703 57.356 2.15802 57.563 1.80502C57.769 1.44802 58.049 1.16702 58.403 0.960022C58.759 0.753022 59.159 0.650024 59.603 0.650024C60.046 0.650024 60.444 0.753022 60.798 0.960022C61.154 1.16702 61.436 1.44802 61.643 1.80502C61.849 2.15802 61.953 2.55703 61.953 3.00003V5.80002C61.953 6.24302 61.849 6.64303 61.643 7.00003C61.436 7.35303 61.154 7.63303 60.798 7.84003C60.444 8.04703 60.046 8.15002 59.603 8.15002ZM59.603 7.44003C59.899 7.44003 60.169 7.36804 60.413 7.22504C60.656 7.07804 60.849 6.88305 60.993 6.64005C61.136 6.39705 61.208 6.12802 61.208 5.83502V2.96503C61.208 2.66803 61.136 2.39803 60.993 2.15503C60.849 1.91203 60.656 1.71804 60.413 1.57504C60.169 1.42804 59.899 1.35504 59.603 1.35504C59.306 1.35504 59.036 1.42804 58.793 1.57504C58.549 1.71804 58.356 1.91203 58.213 2.15503C58.069 2.39803 57.998 2.66803 57.998 2.96503V5.83502C57.998 6.12802 58.069 6.39705 58.213 6.64005C58.356 6.88305 58.549 7.07804 58.793 7.22504C59.036 7.36804 59.306 7.44003 59.603 7.44003ZM65.481 8.15002C65.108 8.15002 64.763 8.07304 64.446 7.92004C64.13 7.76704 63.86 7.55503 63.636 7.28503C63.413 7.01503 63.253 6.70504 63.156 6.35504L63.861 6.16504C63.925 6.42504 64.04 6.65003 64.206 6.84003C64.373 7.02703 64.568 7.17202 64.791 7.27502C65.018 7.37802 65.255 7.43002 65.501 7.43002C65.821 7.43002 66.108 7.35304 66.361 7.20004C66.618 7.04304 66.821 6.83702 66.971 6.58002C67.121 6.32302 67.196 6.04202 67.196 5.73502C67.196 5.41802 67.118 5.13304 66.961 4.88004C66.805 4.62304 66.598 4.42002 66.341 4.27002C66.085 4.12002 65.805 4.04504 65.501 4.04504C65.161 4.04504 64.868 4.12002 64.621 4.27002C64.375 4.41702 64.178 4.60204 64.031 4.82504L63.361 4.54504L63.581 0.800018H67.426V1.50504H63.906L64.271 1.16003L64.076 4.35504L63.891 4.11002C64.098 3.87302 64.348 3.68802 64.641 3.55502C64.935 3.42202 65.243 3.35504 65.566 3.35504C66.01 3.35504 66.41 3.46202 66.766 3.67502C67.123 3.88502 67.406 4.17003 67.616 4.53003C67.826 4.89003 67.931 5.29202 67.931 5.73502C67.931 6.17502 67.82 6.57804 67.596 6.94504C67.373 7.30804 67.076 7.60004 66.706 7.82004C66.336 8.04004 65.928 8.15002 65.481 8.15002ZM69.268 8.00003V7.14502H70.123V8.00003H69.268ZM71.467 7.99503L71.472 7.32504L74.727 4.38504C75.007 4.13204 75.192 3.89204 75.282 3.66504C75.375 3.43504 75.422 3.19504 75.422 2.94504C75.422 2.64804 75.352 2.38005 75.212 2.14005C75.072 1.90005 74.883 1.71004 74.647 1.57004C74.41 1.42704 74.145 1.35504 73.852 1.35504C73.545 1.35504 73.272 1.42804 73.032 1.57504C72.792 1.72204 72.602 1.91503 72.462 2.15503C72.325 2.39503 72.258 2.65703 72.262 2.94003H71.512C71.512 2.50303 71.615 2.11205 71.822 1.76505C72.028 1.41805 72.308 1.14704 72.662 0.950043C73.015 0.750043 73.415 0.650024 73.862 0.650024C74.298 0.650024 74.69 0.753022 75.037 0.960022C75.387 1.16302 75.662 1.44004 75.862 1.79004C76.065 2.13704 76.167 2.52304 76.167 2.95004C76.167 3.25004 76.13 3.51503 76.057 3.74503C75.987 3.97203 75.875 4.18304 75.722 4.38004C75.572 4.57304 75.38 4.77304 75.147 4.98004L72.257 7.59003L72.142 7.29004H76.167V7.99503H71.467ZM79.72 8.15002C79.277 8.15002 78.877 8.04703 78.52 7.84003C78.167 7.63303 77.887 7.35303 77.68 7.00003C77.473 6.64303 77.37 6.24302 77.37 5.80002V3.00003C77.37 2.55703 77.473 2.15802 77.68 1.80502C77.887 1.44802 78.167 1.16702 78.52 0.960022C78.877 0.753022 79.277 0.650024 79.72 0.650024C80.163 0.650024 80.562 0.753022 80.915 0.960022C81.272 1.16702 81.553 1.44802 81.76 1.80502C81.967 2.15802 82.07 2.55703 82.07 3.00003V5.80002C82.07 6.24302 81.967 6.64303 81.76 7.00003C81.553 7.35303 81.272 7.63303 80.915 7.84003C80.562 8.04703 80.163 8.15002 79.72 8.15002ZM79.72 7.44003C80.017 7.44003 80.287 7.36804 80.53 7.22504C80.773 7.07804 80.967 6.88305 81.11 6.64005C81.253 6.39705 81.325 6.12802 81.325 5.83502V2.96503C81.325 2.66803 81.253 2.39803 81.11 2.15503C80.967 1.91203 80.773 1.71804 80.53 1.57504C80.287 1.42804 80.017 1.35504 79.72 1.35504C79.423 1.35504 79.153 1.42804 78.91 1.57504C78.667 1.71804 78.473 1.91203 78.33 2.15503C78.187 2.39803 78.115 2.66803 78.115 2.96503V5.83502C78.115 6.12802 78.187 6.39705 78.33 6.64005C78.473 6.88305 78.667 7.07804 78.91 7.22504C79.153 7.36804 79.423 7.44003 79.72 7.44003ZM83.273 7.99503L83.278 7.32504L86.533 4.38504C86.813 4.13204 86.998 3.89204 87.088 3.66504C87.182 3.43504 87.228 3.19504 87.228 2.94504C87.228 2.64804 87.158 2.38005 87.018 2.14005C86.878 1.90005 86.69 1.71004 86.453 1.57004C86.217 1.42704 85.952 1.35504 85.658 1.35504C85.352 1.35504 85.078 1.42804 84.838 1.57504C84.598 1.72204 84.408 1.91503 84.268 2.15503C84.132 2.39503 84.065 2.65703 84.068 2.94003H83.318C83.318 2.50303 83.422 2.11205 83.628 1.76505C83.835 1.41805 84.115 1.14704 84.468 0.950043C84.822 0.750043 85.222 0.650024 85.668 0.650024C86.105 0.650024 86.497 0.753022 86.843 0.960022C87.193 1.16302 87.468 1.44004 87.668 1.79004C87.872 2.13704 87.973 2.52304 87.973 2.95004C87.973 3.25004 87.937 3.51503 87.863 3.74503C87.793 3.97203 87.682 4.18304 87.528 4.38004C87.378 4.57304 87.187 4.77304 86.953 4.98004L84.063 7.59003L83.948 7.29004H87.973V7.99503H83.273ZM91.112 8.14502C90.755 8.14502 90.427 8.08202 90.127 7.95502C89.827 7.82802 89.568 7.64804 89.352 7.41504C89.135 7.17804 88.977 6.89704 88.877 6.57004L89.577 6.36002C89.697 6.71702 89.893 6.98704 90.167 7.17004C90.443 7.35304 90.755 7.44203 91.102 7.43503C91.422 7.42803 91.697 7.35703 91.927 7.22003C92.16 7.08303 92.338 6.89302 92.462 6.65002C92.585 6.40702 92.647 6.12502 92.647 5.80502C92.647 5.31502 92.503 4.92203 92.217 4.62503C91.933 4.32503 91.558 4.17502 91.092 4.17502C90.962 4.17502 90.825 4.19304 90.682 4.23004C90.538 4.26304 90.405 4.31203 90.282 4.37503L89.912 3.79004L92.712 1.20502L92.832 1.50504H89.162V0.800018H93.322V1.51505L90.882 3.84503L90.872 3.55502C91.372 3.49202 91.812 3.54804 92.192 3.72504C92.572 3.90204 92.868 4.17203 93.082 4.53503C93.298 4.89503 93.407 5.31802 93.407 5.80502C93.407 6.26502 93.307 6.67202 93.107 7.02502C92.91 7.37502 92.638 7.65004 92.292 7.85004C91.945 8.04704 91.552 8.14502 91.112 8.14502Z" fill="#FF784F"/>
</svg>
