<svg width="130" height="13" viewBox="0 0 130 13" fill="none" xmlns="http://www.w3.org/2000/svg">
<path d="M3.66101 11V1.90704H0.140015V0.920044H8.211V1.90704H4.69V11H3.66101ZM11.548 11.21C10.811 11.21 10.171 11.047 9.63 10.72C9.09301 10.393 8.67601 9.93403 8.37701 9.34103C8.07801 8.74803 7.92899 8.05304 7.92899 7.25504C7.92899 6.42904 8.07599 5.71504 8.37 5.11304C8.66399 4.51104 9.07701 4.04703 9.60901 3.72003C10.146 3.39303 10.778 3.23004 11.506 3.23004C12.253 3.23004 12.89 3.40302 13.417 3.74802C13.944 4.08902 14.343 4.57902 14.614 5.21802C14.885 5.85702 15.008 6.62002 14.985 7.50702H13.935V7.14304C13.916 6.16304 13.704 5.42304 13.298 4.92404C12.897 4.42504 12.309 4.17502 11.534 4.17502C10.722 4.17502 10.099 4.43903 9.66501 4.96603C9.23601 5.49303 9.021 6.24503 9.021 7.22003C9.021 8.17203 9.23601 8.91203 9.66501 9.43903C10.099 9.96203 10.713 10.223 11.506 10.223C12.047 10.223 12.519 10.099 12.92 9.85202C13.326 9.60002 13.646 9.23803 13.879 8.76703L14.838 9.13803C14.539 9.79603 14.098 10.307 13.515 10.671C12.936 11.03 12.281 11.21 11.548 11.21ZM8.65701 7.50702V6.64603H14.432V7.50702H8.65701ZM19.675 11.21C18.914 11.21 18.27 11.04 17.743 10.699C17.215 10.358 16.814 9.88902 16.539 9.29202C16.268 8.69002 16.128 7.99903 16.119 7.22003C16.128 6.42703 16.273 5.73103 16.553 5.13403C16.833 4.53203 17.236 4.06504 17.764 3.73404C18.291 3.39804 18.93 3.23004 19.682 3.23004C20.447 3.23004 21.112 3.41704 21.677 3.79004C22.246 4.16304 22.636 4.67403 22.846 5.32303L21.838 5.64502C21.66 5.19202 21.378 4.84203 20.991 4.59503C20.608 4.34303 20.169 4.21704 19.675 4.21704C19.119 4.21704 18.66 4.34502 18.296 4.60202C17.932 4.85402 17.661 5.20603 17.484 5.65903C17.306 6.11203 17.215 6.63203 17.211 7.22003C17.22 8.12503 17.43 8.85302 17.841 9.40402C18.251 9.95002 18.863 10.223 19.675 10.223C20.188 10.223 20.624 10.106 20.984 9.87302C21.348 9.63502 21.623 9.29004 21.81 8.83704L22.846 9.14502C22.566 9.81702 22.155 10.33 21.614 10.685C21.072 11.035 20.426 11.21 19.675 11.21ZM26.164 11V4.39203H23.483V3.44003H29.874V4.39203H27.193V11H26.164ZM34.229 11.21C33.477 11.21 32.836 11.04 32.304 10.699C31.772 10.358 31.363 9.88703 31.079 9.28503C30.794 8.68303 30.652 7.99204 30.652 7.21304C30.652 6.42004 30.796 5.72404 31.086 5.12704C31.375 4.53004 31.786 4.06504 32.318 3.73404C32.854 3.39804 33.491 3.23004 34.229 3.23004C34.985 3.23004 35.629 3.40003 36.161 3.74103C36.697 4.07703 37.106 4.54604 37.386 5.14804C37.67 5.74504 37.813 6.43404 37.813 7.21304C37.813 8.00604 37.67 8.70403 37.386 9.30603C37.101 9.90303 36.69 10.37 36.154 10.706C35.617 11.042 34.975 11.21 34.229 11.21ZM34.229 10.223C35.069 10.223 35.694 9.94505 36.105 9.39005C36.515 8.83005 36.721 8.10404 36.721 7.21304C36.721 6.29804 36.513 5.57002 36.098 5.02902C35.687 4.48802 35.064 4.21704 34.229 4.21704C33.664 4.21704 33.197 4.34502 32.829 4.60202C32.465 4.85402 32.192 5.20603 32.01 5.65903C31.832 6.10703 31.744 6.62504 31.744 7.21304C31.744 8.12304 31.954 8.85302 32.374 9.40402C32.794 9.95002 33.412 10.223 34.229 10.223ZM39.35 11V3.44003H42.465C42.624 3.44003 42.815 3.44902 43.039 3.46802C43.268 3.48702 43.48 3.52203 43.676 3.57303C44.101 3.68503 44.441 3.91403 44.698 4.25903C44.959 4.60403 45.09 5.02004 45.09 5.50504C45.09 5.77604 45.048 6.01803 44.964 6.23303C44.885 6.44303 44.77 6.62502 44.621 6.77902C44.551 6.85802 44.474 6.92804 44.39 6.98904C44.306 7.04504 44.224 7.09203 44.145 7.12903C44.294 7.15703 44.455 7.22204 44.628 7.32504C44.899 7.48404 45.104 7.69802 45.244 7.96902C45.384 8.23502 45.454 8.55902 45.454 8.94202C45.454 9.46002 45.33 9.88205 45.083 10.209C44.836 10.536 44.504 10.76 44.089 10.881C43.902 10.932 43.699 10.965 43.48 10.979C43.265 10.993 43.062 11 42.871 11H39.35ZM40.386 10.125H42.822C42.92 10.125 43.044 10.118 43.193 10.104C43.342 10.085 43.475 10.062 43.592 10.034C43.867 9.96403 44.068 9.82404 44.194 9.61404C44.325 9.39904 44.39 9.16603 44.39 8.91403C44.39 8.58303 44.292 8.31202 44.096 8.10202C43.905 7.88702 43.648 7.75702 43.326 7.71002C43.219 7.68702 43.107 7.67303 42.99 7.66803C42.873 7.66303 42.768 7.66104 42.675 7.66104H40.386V10.125ZM40.386 6.77902H42.5C42.621 6.77902 42.757 6.77203 42.906 6.75803C43.06 6.73903 43.193 6.70902 43.305 6.66702C43.548 6.58302 43.725 6.43803 43.837 6.23303C43.954 6.02803 44.012 5.80404 44.012 5.56104C44.012 5.29504 43.949 5.06202 43.823 4.86102C43.702 4.66002 43.517 4.52004 43.27 4.44104C43.102 4.38004 42.92 4.34503 42.724 4.33603C42.533 4.32703 42.411 4.32202 42.36 4.32202H40.386V6.77902ZM50.006 11.21C49.255 11.21 48.613 11.04 48.081 10.699C47.549 10.358 47.141 9.88703 46.856 9.28503C46.571 8.68303 46.429 7.99204 46.429 7.21304C46.429 6.42004 46.574 5.72404 46.863 5.12704C47.152 4.53004 47.563 4.06504 48.095 3.73404C48.632 3.39804 49.269 3.23004 50.006 3.23004C50.762 3.23004 51.406 3.40003 51.938 3.74103C52.475 4.07703 52.883 4.54604 53.163 5.14804C53.448 5.74504 53.59 6.43404 53.59 7.21304C53.59 8.00604 53.448 8.70403 53.163 9.30603C52.878 9.90303 52.468 10.37 51.931 10.706C51.394 11.042 50.753 11.21 50.006 11.21ZM50.006 10.223C50.846 10.223 51.471 9.94505 51.882 9.39005C52.293 8.83005 52.498 8.10404 52.498 7.21304C52.498 6.29804 52.29 5.57002 51.875 5.02902C51.464 4.48802 50.841 4.21704 50.006 4.21704C49.441 4.21704 48.975 4.34502 48.606 4.60202C48.242 4.85402 47.969 5.20603 47.787 5.65903C47.61 6.10703 47.521 6.62504 47.521 7.21304C47.521 8.12304 47.731 8.85302 48.151 9.40402C48.571 9.95002 49.189 10.223 50.006 10.223ZM58.333 11.21C57.596 11.21 56.957 11.047 56.415 10.72C55.879 10.393 55.461 9.93403 55.162 9.34103C54.864 8.74803 54.714 8.05304 54.714 7.25504C54.714 6.42904 54.861 5.71504 55.155 5.11304C55.449 4.51104 55.862 4.04703 56.394 3.72003C56.931 3.39303 57.563 3.23004 58.291 3.23004C59.038 3.23004 59.675 3.40302 60.202 3.74802C60.73 4.08902 61.129 4.57902 61.399 5.21802C61.67 5.85702 61.794 6.62002 61.77 7.50702H60.72V7.14304C60.702 6.16304 60.489 5.42304 60.083 4.92404C59.682 4.42504 59.094 4.17502 58.319 4.17502C57.507 4.17502 56.884 4.43903 56.45 4.96603C56.021 5.49303 55.806 6.24503 55.806 7.22003C55.806 8.17203 56.021 8.91203 56.45 9.43903C56.884 9.96203 57.498 10.223 58.291 10.223C58.833 10.223 59.304 10.099 59.705 9.85202C60.111 9.60002 60.431 9.23803 60.664 8.76703L61.623 9.13803C61.325 9.79603 60.884 10.307 60.3 10.671C59.722 11.03 59.066 11.21 58.333 11.21ZM55.442 7.50702V6.64603H61.217V7.50702H55.442ZM68.849 11.21C68.089 11.21 67.424 11.044 66.854 10.713C66.29 10.377 65.844 9.91304 65.517 9.32004L66.343 8.79504C66.619 9.26204 66.962 9.61604 67.372 9.85904C67.783 10.102 68.254 10.223 68.786 10.223C69.342 10.223 69.787 10.095 70.123 9.83804C70.459 9.58104 70.627 9.22904 70.627 8.78104C70.627 8.47304 70.555 8.22802 70.41 8.04602C70.27 7.86402 70.056 7.73302 69.766 7.65402C69.482 7.57502 69.125 7.53503 68.695 7.53503H67.799V6.65305H68.681C69.204 6.65305 69.624 6.56002 69.941 6.37302C70.263 6.18202 70.424 5.88302 70.424 5.47702C70.424 5.04802 70.263 4.73002 69.941 4.52502C69.624 4.31502 69.244 4.21002 68.8 4.21002C68.352 4.21002 67.928 4.30302 67.526 4.49002C67.13 4.67202 66.796 4.90802 66.525 5.19702L65.867 4.50403C66.245 4.08903 66.686 3.77402 67.19 3.55902C67.699 3.34002 68.261 3.23004 68.877 3.23004C69.363 3.23004 69.801 3.31604 70.193 3.48904C70.59 3.65704 70.903 3.90402 71.131 4.23102C71.365 4.55802 71.481 4.95004 71.481 5.40704C71.481 5.83604 71.376 6.20702 71.166 6.52002C70.961 6.83302 70.669 7.09203 70.291 7.29703L70.235 6.91202C70.562 6.97302 70.833 7.10302 71.047 7.30402C71.262 7.50502 71.421 7.74502 71.523 8.02502C71.626 8.30502 71.677 8.59003 71.677 8.87903C71.677 9.36003 71.551 9.77503 71.299 10.125C71.052 10.47 70.714 10.739 70.284 10.93C69.86 11.117 69.381 11.21 68.849 11.21ZM75.385 11.21C74.816 11.21 74.338 11.107 73.95 10.902C73.568 10.697 73.281 10.424 73.089 10.083C72.898 9.74204 72.802 9.37103 72.802 8.97003C72.802 8.55903 72.884 8.20904 73.047 7.92004C73.215 7.62604 73.442 7.38604 73.726 7.19904C74.016 7.01204 74.349 6.87003 74.727 6.77203C75.11 6.67903 75.532 6.59704 75.994 6.52704C76.461 6.45204 76.916 6.38904 77.359 6.33804C77.807 6.28204 78.199 6.22803 78.535 6.17703L78.171 6.40103C78.185 5.65403 78.041 5.10104 77.737 4.74203C77.434 4.38303 76.907 4.20303 76.155 4.20303C75.637 4.20303 75.199 4.32004 74.839 4.55304C74.485 4.78604 74.235 5.15503 74.09 5.65903L73.089 5.36502C73.262 4.68802 73.61 4.16304 74.132 3.79004C74.655 3.41704 75.334 3.23004 76.169 3.23004C76.86 3.23004 77.446 3.36104 77.926 3.62204C78.412 3.87904 78.755 4.25203 78.955 4.74203C79.049 4.96103 79.109 5.20602 79.137 5.47702C79.165 5.74802 79.179 6.02304 79.179 6.30304V11H78.262V9.10303L78.528 9.21503C78.272 9.86403 77.873 10.358 77.331 10.699C76.79 11.04 76.141 11.21 75.385 11.21ZM75.504 10.321C75.985 10.321 76.405 10.235 76.764 10.062C77.124 9.88904 77.413 9.65404 77.632 9.35504C77.852 9.05204 77.994 8.71104 78.059 8.33304C78.115 8.09004 78.146 7.82403 78.15 7.53503C78.155 7.24103 78.157 7.02204 78.157 6.87704L78.549 7.08002C78.199 7.12702 77.819 7.17303 77.408 7.22003C77.002 7.26703 76.601 7.32004 76.204 7.38104C75.812 7.44204 75.458 7.51402 75.14 7.59802C74.926 7.65902 74.718 7.74503 74.517 7.85703C74.317 7.96403 74.151 8.10902 74.02 8.29102C73.894 8.47302 73.831 8.69903 73.831 8.97003C73.831 9.18903 73.885 9.40203 73.992 9.60703C74.104 9.81203 74.282 9.98304 74.524 10.118C74.772 10.253 75.098 10.321 75.504 10.321ZM80.441 12.68V10.118C80.871 10.118 81.179 9.98002 81.365 9.70502C81.552 9.42502 81.704 8.97904 81.82 8.36804C81.9 7.97104 81.965 7.54404 82.016 7.08704C82.068 6.63004 82.112 6.10704 82.149 5.51904C82.187 4.92604 82.222 4.23303 82.254 3.44003H87.252V10.118H87.98V12.68H86.986V11H81.428V12.68H80.441ZM82.184 10.118H86.23V4.32202H83.206C83.192 4.67702 83.171 5.05204 83.143 5.44904C83.12 5.84604 83.09 6.24204 83.052 6.63904C83.02 7.03604 82.98 7.40903 82.933 7.75903C82.891 8.10403 82.84 8.40804 82.779 8.66904C82.709 9.00504 82.632 9.29203 82.548 9.53003C82.469 9.76803 82.348 9.96404 82.184 10.118ZM91.545 11.21C90.976 11.21 90.498 11.107 90.11 10.902C89.728 10.697 89.441 10.424 89.249 10.083C89.058 9.74204 88.962 9.37103 88.962 8.97003C88.962 8.55903 89.044 8.20904 89.207 7.92004C89.375 7.62604 89.602 7.38604 89.886 7.19904C90.176 7.01204 90.509 6.87003 90.887 6.77203C91.27 6.67903 91.692 6.59704 92.154 6.52704C92.621 6.45204 93.076 6.38904 93.519 6.33804C93.967 6.28204 94.359 6.22803 94.695 6.17703L94.331 6.40103C94.345 5.65403 94.201 5.10104 93.897 4.74203C93.594 4.38303 93.067 4.20303 92.315 4.20303C91.797 4.20303 91.359 4.32004 90.999 4.55304C90.645 4.78604 90.395 5.15503 90.25 5.65903L89.249 5.36502C89.422 4.68802 89.77 4.16304 90.292 3.79004C90.815 3.41704 91.494 3.23004 92.329 3.23004C93.02 3.23004 93.606 3.36104 94.086 3.62204C94.572 3.87904 94.915 4.25203 95.115 4.74203C95.209 4.96103 95.269 5.20602 95.297 5.47702C95.325 5.74802 95.339 6.02304 95.339 6.30304V11H94.422V9.10303L94.688 9.21503C94.432 9.86403 94.033 10.358 93.491 10.699C92.95 11.04 92.301 11.21 91.545 11.21ZM91.664 10.321C92.145 10.321 92.565 10.235 92.924 10.062C93.284 9.88904 93.573 9.65404 93.792 9.35504C94.012 9.05204 94.154 8.71104 94.219 8.33304C94.275 8.09004 94.306 7.82403 94.31 7.53503C94.315 7.24103 94.317 7.02204 94.317 6.87704L94.709 7.08002C94.359 7.12702 93.979 7.17303 93.568 7.22003C93.162 7.26703 92.761 7.32004 92.364 7.38104C91.972 7.44204 91.618 7.51402 91.3 7.59802C91.086 7.65902 90.878 7.74503 90.677 7.85703C90.477 7.96403 90.311 8.10902 90.18 8.29102C90.054 8.47302 89.991 8.69903 89.991 8.97003C89.991 9.18903 90.045 9.40203 90.152 9.60703C90.264 9.81203 90.442 9.98304 90.684 10.118C90.932 10.253 91.258 10.321 91.664 10.321ZM97.155 11V3.44003H98.184V6.72302H102.447V3.44003H103.476V11H102.447V7.71002H98.184V11H97.155ZM111.439 3.44003V11H110.438V5.11304L106.294 11H105.426V3.44003H106.427V9.27805L110.578 3.44003H111.439ZM116.603 11.21C115.865 11.21 115.226 11.047 114.685 10.72C114.148 10.393 113.73 9.93403 113.432 9.34103C113.133 8.74803 112.984 8.05304 112.984 7.25504C112.984 6.42904 113.131 5.71504 113.425 5.11304C113.719 4.51104 114.132 4.04703 114.664 3.72003C115.2 3.39303 115.833 3.23004 116.561 3.23004C117.307 3.23004 117.944 3.40302 118.472 3.74802C118.999 4.08902 119.398 4.57902 119.669 5.21802C119.939 5.85702 120.063 6.62002 120.04 7.50702H118.99V7.14304C118.971 6.16304 118.759 5.42304 118.353 4.92404C117.951 4.42504 117.363 4.17502 116.589 4.17502C115.777 4.17502 115.154 4.43903 114.72 4.96603C114.29 5.49303 114.076 6.24503 114.076 7.22003C114.076 8.17203 114.29 8.91203 114.72 9.43903C115.154 9.96203 115.767 10.223 116.561 10.223C117.102 10.223 117.573 10.099 117.975 9.85202C118.381 9.60002 118.7 9.23803 118.934 8.76703L119.893 9.13803C119.594 9.79603 119.153 10.307 118.57 10.671C117.991 11.03 117.335 11.21 116.603 11.21ZM113.712 7.50702V6.64603H119.487V7.50702H113.712ZM121.516 11V9.80304H122.713V11H121.516ZM125.071 11V9.80304H126.268V11H125.071ZM128.625 11V9.80304H129.822V11H128.625Z" fill="#FF784F"/>
</svg>
