<svg width="249" height="17" viewBox="0 0 249 17" fill="none" xmlns="http://www.w3.org/2000/svg">
<path d="M6.424 12.424C5.608 12.424 4.84 12.272 4.12 11.968C3.4 11.6587 2.768 11.232 2.224 10.688C1.68 10.144 1.25333 9.512 0.944 8.792C0.634667 8.072 0.48 7.30133 0.48 6.48C0.48 5.65867 0.634667 4.888 0.944 4.168C1.25333 3.448 1.68 2.816 2.224 2.272C2.768 1.728 3.4 1.304 4.12 0.999999C4.84 0.690666 5.608 0.535999 6.424 0.535999C7.25067 0.535999 8.02133 0.690666 8.736 0.999999C9.456 1.304 10.088 1.728 10.632 2.272C11.176 2.816 11.6027 3.448 11.912 4.168C12.2213 4.888 12.376 5.65867 12.376 6.48C12.376 7.30133 12.2213 8.072 11.912 8.792C11.6027 9.512 11.176 10.144 10.632 10.688C10.088 11.232 9.456 11.6587 8.736 11.968C8.02133 12.272 7.25067 12.424 6.424 12.424ZM6.496 9.848C6.01067 9.848 5.576 9.76533 5.192 9.6C4.808 9.43467 4.472 9.17067 4.184 8.808C3.90667 8.456 3.71467 8.07733 3.608 7.672C3.50667 7.26667 3.456 6.86133 3.456 6.456C3.46133 6.04 3.51733 5.632 3.624 5.232C3.736 4.832 3.92267 4.46667 4.184 4.136C4.472 3.77867 4.81067 3.51467 5.2 3.344C5.58933 3.17333 6.03733 3.088 6.544 3.088C6.832 3.088 7.104 3.12 7.36 3.184C7.616 3.24267 7.86933 3.34667 8.12 3.496C8.376 3.656 8.60267 3.856 8.8 4.096C8.99733 4.336 9.13867 4.61333 9.224 4.928L8.24 5.224C8.176 5.05867 8.08533 4.89867 7.968 4.744C7.85067 4.58933 7.71467 4.456 7.56 4.344C7.41067 4.23733 7.24267 4.16 7.056 4.112C6.87467 4.05867 6.69067 4.032 6.504 4.032C6.19467 4.032 5.912 4.096 5.656 4.224C5.4 4.34667 5.18133 4.52 5 4.744C4.81867 4.97867 4.69333 5.248 4.624 5.552C4.55467 5.85067 4.52 6.14933 4.52 6.448C4.52 6.77333 4.55733 7.088 4.632 7.392C4.712 7.696 4.83467 7.96 5 8.184C5.17067 8.41867 5.384 8.59733 5.64 8.72C5.90133 8.84267 6.18933 8.904 6.504 8.904C6.92 8.904 7.27733 8.80267 7.576 8.6C7.73067 8.488 7.85867 8.36267 7.96 8.224C8.06133 8.08533 8.14667 7.93067 8.216 7.76L9.224 8.032C9.10667 8.336 8.95733 8.6 8.776 8.824C8.59467 9.048 8.40533 9.22933 8.208 9.368C7.968 9.528 7.70933 9.648 7.432 9.728C7.16 9.808 6.848 9.848 6.496 9.848ZM6.424 11.28C7.09067 11.28 7.712 11.1573 8.288 10.912C8.864 10.6613 9.37067 10.3173 9.808 9.88C10.2507 9.43733 10.5947 8.92533 10.84 8.344C11.0907 7.75733 11.216 7.13333 11.216 6.472C11.216 5.80533 11.0907 5.184 10.84 4.608C10.5947 4.032 10.2507 3.52533 9.808 3.088C9.37067 2.64533 8.864 2.30133 8.288 2.056C7.712 1.80533 7.09067 1.68 6.424 1.68C5.76267 1.68 5.13867 1.80533 4.552 2.056C3.97067 2.30133 3.45867 2.64533 3.016 3.088C2.57867 3.52533 2.23467 4.032 1.984 4.608C1.73867 5.184 1.616 5.80533 1.616 6.472C1.616 7.13333 1.73867 7.75733 1.984 8.344C2.23467 8.92533 2.57867 9.43733 3.016 9.88C3.45867 10.3173 3.97067 10.6613 4.552 10.912C5.13867 11.1573 5.76267 11.28 6.424 11.28ZM16.8625 11.992L16.8705 10.92L22.0785 6.216C22.5265 5.81067 22.8225 5.42667 22.9665 5.064C23.1158 4.696 23.1905 4.312 23.1905 3.912C23.1905 3.43733 23.0785 3.008 22.8545 2.624C22.6305 2.24 22.3292 1.936 21.9505 1.712C21.5718 1.48267 21.1478 1.368 20.6785 1.368C20.1878 1.368 19.7505 1.48533 19.3665 1.72C18.9825 1.95467 18.6785 2.264 18.4545 2.648C18.2358 3.032 18.1292 3.45067 18.1345 3.904H16.9345C16.9345 3.20533 17.0998 2.57867 17.4305 2.024C17.7612 1.46933 18.2092 1.03467 18.7745 0.719999C19.3398 0.4 19.9798 0.24 20.6945 0.24C21.3932 0.24 22.0198 0.405333 22.5745 0.735999C23.1345 1.06133 23.5745 1.504 23.8945 2.064C24.2198 2.61867 24.3825 3.23733 24.3825 3.92C24.3825 4.4 24.3238 4.824 24.2065 5.192C24.0945 5.55467 23.9158 5.89333 23.6705 6.208C23.4305 6.51733 23.1238 6.83733 22.7505 7.168L18.1265 11.344L17.9425 10.864H24.3825V11.992H16.8625ZM30.0675 12.24C29.3582 12.24 28.7182 12.0747 28.1475 11.744C27.5822 11.4133 27.1342 10.9653 26.8035 10.4C26.4728 9.82933 26.3075 9.18933 26.3075 8.48V4C26.3075 3.29067 26.4728 2.65333 26.8035 2.088C27.1342 1.51733 27.5822 1.06667 28.1475 0.735999C28.7182 0.405333 29.3582 0.24 30.0675 0.24C30.7768 0.24 31.4142 0.405333 31.9795 0.735999C32.5502 1.06667 33.0008 1.51733 33.3315 2.088C33.6622 2.65333 33.8275 3.29067 33.8275 4V8.48C33.8275 9.18933 33.6622 9.82933 33.3315 10.4C33.0008 10.9653 32.5502 11.4133 31.9795 11.744C31.4142 12.0747 30.7768 12.24 30.0675 12.24ZM30.0675 11.104C30.5422 11.104 30.9742 10.9893 31.3635 10.76C31.7528 10.5253 32.0622 10.2133 32.2915 9.824C32.5208 9.43467 32.6355 9.00533 32.6355 8.536V3.944C32.6355 3.46933 32.5208 3.03733 32.2915 2.648C32.0622 2.25867 31.7528 1.94933 31.3635 1.72C30.9742 1.48533 30.5422 1.368 30.0675 1.368C29.5928 1.368 29.1608 1.48533 28.7715 1.72C28.3822 1.94933 28.0728 2.25867 27.8435 2.648C27.6142 3.03733 27.4995 3.46933 27.4995 3.944V8.536C27.4995 9.00533 27.6142 9.43467 27.8435 9.824C28.0728 10.2133 28.3822 10.5253 28.7715 10.76C29.1608 10.9893 29.5928 11.104 30.0675 11.104ZM35.7531 11.992L35.7611 10.92L40.9691 6.216C41.4171 5.81067 41.7131 5.42667 41.8571 5.064C42.0065 4.696 42.0811 4.312 42.0811 3.912C42.0811 3.43733 41.9691 3.008 41.7451 2.624C41.5211 2.24 41.2198 1.936 40.8411 1.712C40.4625 1.48267 40.0385 1.368 39.5691 1.368C39.0785 1.368 38.6411 1.48533 38.2571 1.72C37.8731 1.95467 37.5691 2.264 37.3451 2.648C37.1265 3.032 37.0198 3.45067 37.0251 3.904H35.8251C35.8251 3.20533 35.9905 2.57867 36.3211 2.024C36.6518 1.46933 37.0998 1.03467 37.6651 0.719999C38.2305 0.4 38.8705 0.24 39.5851 0.24C40.2838 0.24 40.9105 0.405333 41.4651 0.735999C42.0251 1.06133 42.4651 1.504 42.7851 2.064C43.1105 2.61867 43.2731 3.23733 43.2731 3.92C43.2731 4.4 43.2145 4.824 43.0971 5.192C42.9851 5.55467 42.8065 5.89333 42.5611 6.208C42.3211 6.51733 42.0145 6.83733 41.6411 7.168L37.0171 11.344L36.8331 10.864H43.2731V11.992H35.7531ZM48.2941 12.232C47.7235 12.232 47.1981 12.1307 46.7181 11.928C46.2381 11.7253 45.8248 11.4373 45.4781 11.064C45.1315 10.6853 44.8781 10.2347 44.7181 9.712L45.8381 9.376C46.0301 9.94667 46.3448 10.3787 46.7821 10.672C47.2248 10.9653 47.7235 11.1067 48.2781 11.096C48.7901 11.0853 49.2301 10.9707 49.5981 10.752C49.9715 10.5333 50.2568 10.2293 50.4541 9.84C50.6515 9.45067 50.7501 9 50.7501 8.488C50.7501 7.704 50.5208 7.07467 50.0621 6.6C49.6088 6.12 49.0088 5.88 48.2621 5.88C48.0541 5.88 47.8355 5.90933 47.6061 5.968C47.3768 6.02133 47.1635 6.09867 46.9661 6.2L46.3741 5.264L50.8541 1.128L51.0461 1.608H45.1741V0.48H51.8301V1.624L47.9261 5.352L47.9101 4.888C48.7101 4.78667 49.4141 4.87733 50.0221 5.16C50.6301 5.44267 51.1048 5.87467 51.4461 6.456C51.7928 7.032 51.9661 7.70933 51.9661 8.488C51.9661 9.224 51.8061 9.87467 51.4861 10.44C51.1715 11 50.7368 11.44 50.1821 11.76C49.6275 12.0747 48.9981 12.232 48.2941 12.232ZM67.549 12L67.557 6.328C67.557 5.66133 67.3703 5.13867 66.997 4.76C66.629 4.376 66.1597 4.184 65.589 4.184C65.2637 4.184 64.9463 4.25867 64.637 4.408C64.3277 4.55733 64.0717 4.79733 63.869 5.128C63.6717 5.45867 63.573 5.89067 63.573 6.424L62.877 6.224C62.861 5.60533 62.981 5.064 63.237 4.6C63.4983 4.136 63.8557 3.776 64.309 3.52C64.7677 3.25867 65.285 3.128 65.861 3.128C66.7303 3.128 67.4263 3.39733 67.949 3.936C68.4717 4.46933 68.733 5.192 68.733 6.104L68.725 12H67.549ZM57.237 12V3.36H58.293V5.488H58.421V12H57.237ZM62.405 12L62.413 6.408C62.413 5.72 62.229 5.17867 61.861 4.784C61.4983 4.384 61.0183 4.184 60.421 4.184C59.8237 4.184 59.341 4.38933 58.973 4.8C58.605 5.20533 58.421 5.74667 58.421 6.424L57.717 6.04C57.717 5.48533 57.8477 4.98933 58.109 4.552C58.3703 4.10933 58.7277 3.76267 59.181 3.512C59.6343 3.256 60.149 3.128 60.725 3.128C61.2743 3.128 61.7623 3.24533 62.189 3.48C62.621 3.71467 62.9597 4.056 63.205 4.504C63.4503 4.952 63.573 5.496 63.573 6.136L63.565 12H62.405ZM73.2795 12.24C72.6288 12.24 72.0822 12.1227 71.6395 11.888C71.2022 11.6533 70.8742 11.3413 70.6555 10.952C70.4368 10.5627 70.3275 10.1387 70.3275 9.68C70.3275 9.21067 70.4208 8.81067 70.6075 8.48C70.7995 8.144 71.0582 7.86933 71.3835 7.656C71.7142 7.44267 72.0955 7.28 72.5275 7.168C72.9648 7.06133 73.4475 6.968 73.9755 6.888C74.5088 6.80267 75.0288 6.73067 75.5355 6.672C76.0475 6.608 76.4955 6.54667 76.8795 6.488L76.4635 6.744C76.4795 5.89067 76.3142 5.25867 75.9675 4.848C75.6208 4.43733 75.0182 4.232 74.1595 4.232C73.5675 4.232 73.0662 4.36533 72.6555 4.632C72.2502 4.89867 71.9648 5.32 71.7995 5.896L70.6555 5.56C70.8528 4.78667 71.2502 4.18667 71.8475 3.76C72.4448 3.33333 73.2208 3.12 74.1755 3.12C74.9648 3.12 75.6342 3.26933 76.1835 3.568C76.7382 3.86133 77.1302 4.288 77.3595 4.848C77.4662 5.09867 77.5355 5.37867 77.5675 5.688C77.5995 5.99733 77.6155 6.312 77.6155 6.632V12H76.5675V9.832L76.8715 9.96C76.5782 10.7013 76.1222 11.2667 75.5035 11.656C74.8848 12.0453 74.1435 12.24 73.2795 12.24ZM73.4155 11.224C73.9648 11.224 74.4448 11.1253 74.8555 10.928C75.2662 10.7307 75.5968 10.4613 75.8475 10.12C76.0982 9.77333 76.2608 9.384 76.3355 8.952C76.3995 8.67467 76.4342 8.37067 76.4395 8.04C76.4448 7.704 76.4475 7.45333 76.4475 7.288L76.8955 7.52C76.4955 7.57333 76.0608 7.62667 75.5915 7.68C75.1275 7.73333 74.6688 7.79467 74.2155 7.864C73.7675 7.93333 73.3622 8.016 72.9995 8.112C72.7542 8.18133 72.5168 8.28 72.2875 8.408C72.0582 8.53067 71.8688 8.696 71.7195 8.904C71.5755 9.112 71.5035 9.37067 71.5035 9.68C71.5035 9.93067 71.5648 10.1733 71.6875 10.408C71.8155 10.6427 72.0182 10.8373 72.2955 10.992C72.5782 11.1467 72.9515 11.224 73.4155 11.224ZM79.6901 12L79.6981 0.48H80.8821V7.52L84.7381 3.36H86.3061L82.2581 7.68L86.8341 12H85.1221L80.8821 7.84V12H79.6901ZM91.1354 12.24C90.2927 12.24 89.562 12.0533 88.9434 11.68C88.33 11.3067 87.8527 10.7813 87.5114 10.104C87.17 9.42667 86.9994 8.632 86.9994 7.72C86.9994 6.776 87.1674 5.96 87.5034 5.272C87.8394 4.584 88.3114 4.05333 88.9194 3.68C89.5327 3.30667 90.2554 3.12 91.0874 3.12C91.9407 3.12 92.6687 3.31733 93.2714 3.712C93.874 4.10133 94.33 4.66133 94.6394 5.392C94.9487 6.12267 95.09 6.99467 95.0634 8.008H93.8634V7.592C93.842 6.472 93.5994 5.62667 93.1354 5.056C92.6767 4.48533 92.0047 4.2 91.1194 4.2C90.1914 4.2 89.4794 4.50133 88.9834 5.104C88.4927 5.70667 88.2474 6.56533 88.2474 7.68C88.2474 8.768 88.4927 9.61333 88.9834 10.216C89.4794 10.8133 90.1807 11.112 91.0874 11.112C91.706 11.112 92.2447 10.9707 92.7034 10.688C93.1674 10.4 93.5327 9.98667 93.7994 9.448L94.8954 9.872C94.554 10.624 94.05 11.208 93.3834 11.624C92.722 12.0347 91.9727 12.24 91.1354 12.24ZM87.8314 8.008V7.024H94.4314V8.008H87.8314ZM96.8388 12V3.36H97.8948V5.44L97.6868 5.168C97.7828 4.912 97.9081 4.67733 98.0628 4.464C98.2174 4.24533 98.3854 4.06667 98.5668 3.928C98.7908 3.73067 99.0521 3.58133 99.3508 3.48C99.6494 3.37333 99.9508 3.312 100.255 3.296C100.559 3.27467 100.836 3.296 101.087 3.36V4.464C100.772 4.384 100.428 4.36533 100.055 4.408C99.6814 4.45067 99.3374 4.6 99.0228 4.856C98.7348 5.08 98.5188 5.34933 98.3748 5.664C98.2308 5.97333 98.1348 6.304 98.0868 6.656C98.0388 7.00267 98.0148 7.34667 98.0148 7.688V12H96.8388ZM105.516 12.232C104.503 12.232 103.668 12.0133 103.012 11.576C102.361 11.1387 101.961 10.5307 101.812 9.752L103.012 9.552C103.14 10.0427 103.431 10.4347 103.884 10.728C104.343 11.016 104.908 11.16 105.58 11.16C106.236 11.16 106.753 11.024 107.132 10.752C107.511 10.4747 107.7 10.0987 107.7 9.624C107.7 9.35733 107.639 9.14133 107.516 8.976C107.399 8.80533 107.156 8.648 106.788 8.504C106.42 8.36 105.871 8.18933 105.14 7.992C104.356 7.77867 103.743 7.56533 103.3 7.352C102.857 7.13867 102.543 6.89333 102.356 6.616C102.169 6.33333 102.076 5.98933 102.076 5.584C102.076 5.09333 102.215 4.664 102.492 4.296C102.769 3.92267 103.153 3.63467 103.644 3.432C104.135 3.224 104.705 3.12 105.356 3.12C106.007 3.12 106.588 3.22667 107.1 3.44C107.617 3.648 108.033 3.94133 108.348 4.32C108.663 4.69867 108.849 5.13867 108.908 5.64L107.708 5.856C107.628 5.34933 107.375 4.94933 106.948 4.656C106.527 4.35733 105.991 4.20267 105.34 4.192C104.727 4.176 104.228 4.29333 103.844 4.544C103.46 4.78933 103.268 5.11733 103.268 5.528C103.268 5.75733 103.337 5.95467 103.476 6.12C103.615 6.28 103.865 6.432 104.228 6.576C104.596 6.72 105.119 6.87733 105.796 7.048C106.591 7.25067 107.215 7.464 107.668 7.688C108.121 7.912 108.444 8.176 108.636 8.48C108.828 8.784 108.924 9.16 108.924 9.608C108.924 10.424 108.62 11.0667 108.012 11.536C107.409 12 106.577 12.232 105.516 12.232ZM110.922 12V10.632H112.29V12H110.922ZM117.164 12L121.132 0.48H122.692L126.66 12H125.436L121.668 1.136H122.132L118.388 12H117.164ZM118.932 9.208V8.104H124.884V9.208H118.932ZM128.264 12V0.24H129.44V12H128.264ZM131.999 12V0.24H133.175V12H131.999ZM138.776 12V3.36H139.832V5.44L139.624 5.168C139.72 4.912 139.846 4.67733 140 4.464C140.155 4.24533 140.323 4.06667 140.504 3.928C140.728 3.73067 140.99 3.58133 141.288 3.48C141.587 3.37333 141.888 3.312 142.192 3.296C142.496 3.27467 142.774 3.296 143.024 3.36V4.464C142.71 4.384 142.366 4.36533 141.992 4.408C141.619 4.45067 141.275 4.6 140.96 4.856C140.672 5.08 140.456 5.34933 140.312 5.664C140.168 5.97333 140.072 6.304 140.024 6.656C139.976 7.00267 139.952 7.34667 139.952 7.688V12H138.776ZM144.702 1.72V0.4H145.878V1.72H144.702ZM144.702 12V3.36H145.878V12H144.702ZM151.708 16.08C151.266 16.08 150.828 16.0133 150.396 15.88C149.97 15.752 149.575 15.5467 149.212 15.264C148.85 14.9867 148.546 14.624 148.3 14.176L149.364 13.584C149.604 14.064 149.94 14.408 150.372 14.616C150.81 14.8293 151.255 14.936 151.708 14.936C152.332 14.936 152.836 14.8187 153.22 14.584C153.61 14.3547 153.892 14.0133 154.068 13.56C154.244 13.1067 154.33 12.5413 154.324 11.864V9.56H154.46V3.36H155.508V11.88C155.508 12.1253 155.5 12.36 155.484 12.584C155.474 12.8133 155.45 13.0373 155.412 13.256C155.311 13.9013 155.1 14.432 154.78 14.848C154.466 15.264 154.05 15.5733 153.532 15.776C153.02 15.9787 152.412 16.08 151.708 16.08ZM151.628 12.24C150.823 12.24 150.135 12.04 149.564 11.64C148.994 11.2347 148.556 10.688 148.252 10C147.948 9.312 147.796 8.536 147.796 7.672C147.796 6.81333 147.946 6.04 148.244 5.352C148.548 4.664 148.983 4.12 149.548 3.72C150.114 3.32 150.791 3.12 151.58 3.12C152.391 3.12 153.074 3.31733 153.628 3.712C154.183 4.10667 154.602 4.648 154.884 5.336C155.172 6.01867 155.316 6.79733 155.316 7.672C155.316 8.53067 155.175 9.30667 154.892 10C154.61 10.688 154.194 11.2347 153.644 11.64C153.095 12.04 152.423 12.24 151.628 12.24ZM151.748 11.144C152.362 11.144 152.868 10.9947 153.268 10.696C153.668 10.3973 153.967 9.98667 154.164 9.464C154.362 8.936 154.46 8.33867 154.46 7.672C154.46 6.99467 154.362 6.39733 154.164 5.88C153.967 5.35733 153.668 4.94933 153.268 4.656C152.874 4.36267 152.375 4.216 151.772 4.216C151.154 4.216 150.642 4.368 150.236 4.672C149.831 4.976 149.53 5.38933 149.332 5.912C149.14 6.43467 149.044 7.02133 149.044 7.672C149.044 8.328 149.143 8.92 149.34 9.448C149.543 9.97067 149.844 10.384 150.244 10.688C150.644 10.992 151.146 11.144 151.748 11.144ZM163.985 12V7.592C163.985 7.112 163.94 6.672 163.849 6.272C163.758 5.86667 163.612 5.51467 163.409 5.216C163.212 4.912 162.953 4.67733 162.633 4.512C162.318 4.34667 161.934 4.264 161.481 4.264C161.065 4.264 160.697 4.336 160.377 4.48C160.062 4.624 159.796 4.832 159.577 5.104C159.364 5.37067 159.201 5.696 159.089 6.08C158.977 6.464 158.921 6.90133 158.921 7.392L158.089 7.208C158.089 6.32267 158.244 5.57867 158.553 4.976C158.862 4.37333 159.289 3.91733 159.833 3.608C160.377 3.29867 161.001 3.144 161.705 3.144C162.222 3.144 162.673 3.224 163.057 3.384C163.446 3.544 163.774 3.76 164.041 4.032C164.313 4.304 164.532 4.616 164.697 4.968C164.862 5.31467 164.982 5.68533 165.057 6.08C165.132 6.46933 165.169 6.85867 165.169 7.248V12H163.985ZM157.737 12V0.48H158.801V6.984H158.921V12H157.737ZM171.949 12C171.464 12.1013 170.984 12.1413 170.509 12.12C170.04 12.0987 169.618 11.9973 169.245 11.816C168.877 11.6347 168.597 11.352 168.405 10.968C168.25 10.648 168.165 10.3253 168.149 10C168.138 9.66933 168.133 9.29333 168.133 8.872V0.959999H169.301V8.824C169.301 9.18667 169.304 9.49067 169.309 9.736C169.32 9.976 169.376 10.1893 169.477 10.376C169.669 10.7333 169.973 10.9467 170.389 11.016C170.81 11.0853 171.33 11.0693 171.949 10.968V12ZM166.285 4.368V3.36H171.949V4.368H166.285ZM176.875 12.232C175.862 12.232 175.027 12.0133 174.371 11.576C173.721 11.1387 173.321 10.5307 173.171 9.752L174.371 9.552C174.499 10.0427 174.79 10.4347 175.243 10.728C175.702 11.016 176.267 11.16 176.939 11.16C177.595 11.16 178.113 11.024 178.491 10.752C178.87 10.4747 179.059 10.0987 179.059 9.624C179.059 9.35733 178.998 9.14133 178.875 8.976C178.758 8.80533 178.515 8.648 178.147 8.504C177.779 8.36 177.23 8.18933 176.499 7.992C175.715 7.77867 175.102 7.56533 174.659 7.352C174.217 7.13867 173.902 6.89333 173.715 6.616C173.529 6.33333 173.435 5.98933 173.435 5.584C173.435 5.09333 173.574 4.664 173.851 4.296C174.129 3.92267 174.513 3.63467 175.003 3.432C175.494 3.224 176.065 3.12 176.715 3.12C177.366 3.12 177.947 3.22667 178.459 3.44C178.977 3.648 179.393 3.94133 179.707 4.32C180.022 4.69867 180.209 5.13867 180.267 5.64L179.067 5.856C178.987 5.34933 178.734 4.94933 178.307 4.656C177.886 4.35733 177.35 4.20267 176.699 4.192C176.086 4.176 175.587 4.29333 175.203 4.544C174.819 4.78933 174.627 5.11733 174.627 5.528C174.627 5.75733 174.697 5.95467 174.835 6.12C174.974 6.28 175.225 6.432 175.587 6.576C175.955 6.72 176.478 6.87733 177.155 7.048C177.95 7.25067 178.574 7.464 179.027 7.688C179.481 7.912 179.803 8.176 179.995 8.48C180.187 8.784 180.283 9.16 180.283 9.608C180.283 10.424 179.979 11.0667 179.371 11.536C178.769 12 177.937 12.232 176.875 12.232ZM185.261 12V3.36H186.317V5.44L186.109 5.168C186.205 4.912 186.33 4.67733 186.485 4.464C186.639 4.24533 186.807 4.06667 186.989 3.928C187.213 3.73067 187.474 3.58133 187.773 3.48C188.071 3.37333 188.373 3.312 188.677 3.296C188.981 3.27467 189.258 3.296 189.509 3.36V4.464C189.194 4.384 188.85 4.36533 188.477 4.408C188.103 4.45067 187.759 4.6 187.445 4.856C187.157 5.08 186.941 5.34933 186.797 5.664C186.653 5.97333 186.557 6.304 186.509 6.656C186.461 7.00267 186.437 7.34667 186.437 7.688V12H185.261ZM194.526 12.24C193.683 12.24 192.953 12.0533 192.334 11.68C191.721 11.3067 191.243 10.7813 190.902 10.104C190.561 9.42667 190.39 8.632 190.39 7.72C190.39 6.776 190.558 5.96 190.894 5.272C191.23 4.584 191.702 4.05333 192.31 3.68C192.923 3.30667 193.646 3.12 194.478 3.12C195.331 3.12 196.059 3.31733 196.662 3.712C197.265 4.10133 197.721 4.66133 198.03 5.392C198.339 6.12267 198.481 6.99467 198.454 8.008H197.254V7.592C197.233 6.472 196.99 5.62667 196.526 5.056C196.067 4.48533 195.395 4.2 194.51 4.2C193.582 4.2 192.87 4.50133 192.374 5.104C191.883 5.70667 191.638 6.56533 191.638 7.68C191.638 8.768 191.883 9.61333 192.374 10.216C192.87 10.8133 193.571 11.112 194.478 11.112C195.097 11.112 195.635 10.9707 196.094 10.688C196.558 10.4 196.923 9.98667 197.19 9.448L198.286 9.872C197.945 10.624 197.441 11.208 196.774 11.624C196.113 12.0347 195.363 12.24 194.526 12.24ZM191.222 8.008V7.024H197.822V8.008H191.222ZM203.453 12.232C202.44 12.232 201.605 12.0133 200.949 11.576C200.299 11.1387 199.899 10.5307 199.749 9.752L200.949 9.552C201.077 10.0427 201.368 10.4347 201.821 10.728C202.28 11.016 202.845 11.16 203.517 11.16C204.173 11.16 204.691 11.024 205.069 10.752C205.448 10.4747 205.637 10.0987 205.637 9.624C205.637 9.35733 205.576 9.14133 205.453 8.976C205.336 8.80533 205.093 8.648 204.725 8.504C204.357 8.36 203.808 8.18933 203.077 7.992C202.293 7.77867 201.68 7.56533 201.237 7.352C200.795 7.13867 200.48 6.89333 200.293 6.616C200.107 6.33333 200.013 5.98933 200.013 5.584C200.013 5.09333 200.152 4.664 200.429 4.296C200.707 3.92267 201.091 3.63467 201.581 3.432C202.072 3.224 202.643 3.12 203.293 3.12C203.944 3.12 204.525 3.22667 205.037 3.44C205.555 3.648 205.971 3.94133 206.285 4.32C206.6 4.69867 206.787 5.13867 206.845 5.64L205.645 5.856C205.565 5.34933 205.312 4.94933 204.885 4.656C204.464 4.35733 203.928 4.20267 203.277 4.192C202.664 4.176 202.165 4.29333 201.781 4.544C201.397 4.78933 201.205 5.11733 201.205 5.528C201.205 5.75733 201.275 5.95467 201.413 6.12C201.552 6.28 201.803 6.432 202.165 6.576C202.533 6.72 203.056 6.87733 203.733 7.048C204.528 7.25067 205.152 7.464 205.605 7.688C206.059 7.912 206.381 8.176 206.573 8.48C206.765 8.784 206.861 9.16 206.861 9.608C206.861 10.424 206.557 11.0667 205.949 11.536C205.347 12 204.515 12.232 203.453 12.232ZM212.292 12.24C211.449 12.24 210.718 12.0533 210.1 11.68C209.486 11.3067 209.009 10.7813 208.668 10.104C208.326 9.42667 208.156 8.632 208.156 7.72C208.156 6.776 208.324 5.96 208.66 5.272C208.996 4.584 209.468 4.05333 210.076 3.68C210.689 3.30667 211.412 3.12 212.244 3.12C213.097 3.12 213.825 3.31733 214.428 3.712C215.03 4.10133 215.486 4.66133 215.796 5.392C216.105 6.12267 216.246 6.99467 216.22 8.008H215.02V7.592C214.998 6.472 214.756 5.62667 214.292 5.056C213.833 4.48533 213.161 4.2 212.276 4.2C211.348 4.2 210.636 4.50133 210.14 5.104C209.649 5.70667 209.404 6.56533 209.404 7.68C209.404 8.768 209.649 9.61333 210.14 10.216C210.636 10.8133 211.337 11.112 212.244 11.112C212.862 11.112 213.401 10.9707 213.86 10.688C214.324 10.4 214.689 9.98667 214.956 9.448L216.052 9.872C215.71 10.624 215.206 11.208 214.54 11.624C213.878 12.0347 213.129 12.24 212.292 12.24ZM208.988 8.008V7.024H215.588V8.008H208.988ZM217.995 12V3.36H219.051V5.44L218.843 5.168C218.939 4.912 219.064 4.67733 219.219 4.464C219.374 4.24533 219.542 4.06667 219.723 3.928C219.947 3.73067 220.208 3.58133 220.507 3.48C220.806 3.37333 221.107 3.312 221.411 3.296C221.715 3.27467 221.992 3.296 222.243 3.36V4.464C221.928 4.384 221.584 4.36533 221.211 4.408C220.838 4.45067 220.494 4.6 220.179 4.856C219.891 5.08 219.675 5.34933 219.531 5.664C219.387 5.97333 219.291 6.304 219.243 6.656C219.195 7.00267 219.171 7.34667 219.171 7.688V12H217.995ZM226.097 12L222.961 3.36H224.153L226.705 10.464L229.241 3.36H230.449L227.313 12H226.097ZM235.229 12.24C234.386 12.24 233.656 12.0533 233.037 11.68C232.424 11.3067 231.946 10.7813 231.605 10.104C231.264 9.42667 231.093 8.632 231.093 7.72C231.093 6.776 231.261 5.96 231.597 5.272C231.933 4.584 232.405 4.05333 233.013 3.68C233.626 3.30667 234.349 3.12 235.181 3.12C236.034 3.12 236.762 3.31733 237.365 3.712C237.968 4.10133 238.424 4.66133 238.733 5.392C239.042 6.12267 239.184 6.99467 239.157 8.008H237.957V7.592C237.936 6.472 237.693 5.62667 237.229 5.056C236.77 4.48533 236.098 4.2 235.213 4.2C234.285 4.2 233.573 4.50133 233.077 5.104C232.586 5.70667 232.341 6.56533 232.341 7.68C232.341 8.768 232.586 9.61333 233.077 10.216C233.573 10.8133 234.274 11.112 235.181 11.112C235.8 11.112 236.338 10.9707 236.797 10.688C237.261 10.4 237.626 9.98667 237.893 9.448L238.989 9.872C238.648 10.624 238.144 11.208 237.477 11.624C236.816 12.0347 236.066 12.24 235.229 12.24ZM231.925 8.008V7.024H238.525V8.008H231.925ZM244.285 12.24C243.479 12.24 242.791 12.04 242.221 11.64C241.65 11.2347 241.213 10.688 240.909 10C240.605 9.312 240.453 8.536 240.453 7.672C240.453 6.81333 240.602 6.04 240.901 5.352C241.205 4.664 241.639 4.12 242.205 3.72C242.77 3.32 243.447 3.12 244.237 3.12C245.047 3.12 245.73 3.31733 246.285 3.712C246.839 4.10667 247.258 4.648 247.541 5.336C247.829 6.01867 247.973 6.79733 247.973 7.672C247.973 8.53067 247.831 9.30667 247.549 10C247.266 10.688 246.85 11.2347 246.301 11.64C245.751 12.04 245.079 12.24 244.285 12.24ZM244.405 11.144C245.018 11.144 245.525 10.9947 245.925 10.696C246.325 10.3973 246.623 9.98667 246.821 9.464C247.018 8.936 247.117 8.33867 247.117 7.672C247.117 6.99467 247.018 6.39733 246.821 5.88C246.623 5.35733 246.325 4.94933 245.925 4.656C245.53 4.36267 245.031 4.216 244.429 4.216C243.81 4.216 243.298 4.368 242.893 4.672C242.487 4.976 242.186 5.38933 241.989 5.912C241.797 6.43467 241.701 7.02133 241.701 7.672C241.701 8.328 241.799 8.92 241.997 9.448C242.199 9.97067 242.501 10.384 242.901 10.688C243.301 10.992 243.802 11.144 244.405 11.144ZM247.117 12V5.496H246.989V0.48H248.173V12H247.117Z" fill="#767E8C"/>
</svg>
